<svg width="330" height="286" viewBox="0 0 330 286" fill="none" xmlns="http://www.w3.org/2000/svg">
<path d="M39.8164 98.8623C28.247 107.135 16.9769 116.959 12.2893 130.196C5.80649 148.396 13.6856 169.699 28.4465 182.315C43.1077 195.035 63.354 200.102 82.8025 199.998C108.534 199.895 135.662 190.174 150.224 169.079C156.009 160.702 159.499 150.982 161.693 141.054C164.486 128.438 165.284 114.891 160.995 102.689C141.347 46.3294 73.3276 74.9743 39.8164 98.8623Z" fill="white" fill-opacity="0.1"/>
<path d="M156.636 77.8225C156.735 77.8078 156.735 77.8078 156.834 77.7932C157.442 77.8041 157.893 77.434 158.116 76.8954C158.647 75.7047 159.292 74.5982 159.922 73.3927L160.552 72.1873C164.321 65.5629 164.588 57.1327 161.425 50.1207C161.283 49.8386 161.011 49.3733 160.542 48.9374C159.648 48.3623 158.546 48.4246 157.447 49.1941C155.432 50.6049 154.087 53.1293 153.498 56.6539C152.359 63.2926 153.151 71.3637 155.486 76.881C155.672 77.4599 156.112 77.698 156.636 77.8225ZM156.202 57.1628C156.711 54.459 157.549 52.616 158.916 51.6047C161.635 57.6716 161.306 64.999 158.028 70.843L157.383 71.9495C157.214 72.1767 157.046 72.4038 156.991 72.7152C155.693 68.0551 155.407 62.032 156.202 57.1628Z" fill="white"/>
<path d="M165.963 71.889C166.377 72.6364 167.044 73.043 167.88 73.2224C167.979 73.2078 168.077 73.1931 168.092 73.292C171.063 73.5592 173.899 69.4995 176.507 65.2713C179.17 60.7317 180.261 55.8186 179.517 51.4808C179.282 49.8981 178.403 49.4219 177.766 49.2131C176.93 49.0337 176.267 49.3342 175.985 49.4771C171.64 51.5365 168.241 55.882 166.644 61.4767C165.117 66.8588 164.893 70.1269 165.963 71.889ZM169.377 62.1835C170.626 57.6514 173.238 54.1303 176.791 52.1882C177.334 55.8482 176.422 59.926 173.982 63.927C170.1 70.4671 168.572 70.3903 168.473 70.405C168.374 70.4196 167.308 69.3646 169.377 62.1835Z" fill="white"/>
<path d="M187.578 66.9666C187.38 66.996 169.978 70.9911 169.513 76.7212C154.815 78.4959 140.175 83.3957 127.118 90.7904C124.693 92.1609 122.564 93.4873 120.549 94.8981C120.74 93.4545 120.718 91.9414 120.611 90.5419C120.637 90.0326 120.564 89.5381 120.589 89.0288C120.581 79.4262 118.169 69.9777 113.614 61.7568C113.329 61.1926 112.79 60.9692 112.197 61.0571C111.603 61.1451 111.167 61.6141 111.043 62.1381L108.446 73.9465C107.424 78.6471 106.194 83.9853 107.382 89.2682C108.177 92.5875 110.878 97.8483 115.197 99.0276C114.747 99.3977 114.395 99.7531 113.944 100.123C103.093 110.123 96.0749 122.789 93.7278 136.279C93.4969 135.403 93.266 134.528 92.9362 133.667C92.3168 131.534 91.5838 129.318 90.8655 127.2C88.2928 119.393 85.5772 111.304 85.0672 103.09C84.2819 90.9741 88.3621 78.9458 92.0616 69.8044C94.9369 62.6049 98.1383 55.5593 101.779 48.7517C102.674 52.0563 108.034 54.7999 108.148 54.8842C109.778 55.6534 111.577 56.1955 113.416 56.3272C115.468 56.5285 117.56 56.3194 119.608 55.8136C122.037 55.1503 123.769 53.8825 124.751 52.3216C125.971 50.3211 125.799 47.1117 123.556 45.6245C122.662 45.0493 121.629 44.8992 120.497 44.7638C119.874 44.6539 119.053 44.5734 118.233 44.4929C112.558 43.7167 107.124 43.208 104.105 44.6665C104.735 43.461 105.38 42.3545 106.109 41.1345C108.432 41.801 111.279 42.5921 113.953 42.9033C115.694 43.0496 117.306 43.0128 118.661 42.6097C121.555 41.6752 124.164 40.1764 126.673 38.6924C129.183 37.2083 132.158 35.4531 134.209 32.925C135.656 31.093 136.447 28.2462 134.571 26.5024C133.505 25.4474 131.977 25.3706 130.775 25.4477C125.657 25.701 119.513 27.2183 114.154 29.9337C114.432 29.0837 114.725 28.3326 114.82 27.6108C115.644 22.9395 115.222 18.0485 114.72 13.9781C114.408 11.1937 112.822 10.7213 112.1 10.6261C110.656 10.4357 109.715 11.5862 109.462 11.927C106.608 15.1806 105.176 19.841 105.067 25.9228L105.031 27.0402C105.067 28.6523 104.961 29.9822 104.939 31.1986C103.287 26.1868 100.714 21.1091 100.285 20.2628C99.5562 18.7535 98.2444 16.7239 96.0938 16.5372C95.9948 16.5519 95.8959 16.5666 95.8813 16.4677C93.6464 16.3946 92.0016 18.2559 91.6573 20.0255C91.2985 21.6962 91.632 23.2643 92.0645 24.8176C93.3033 29.0821 95.3995 35.0391 98.8987 38.8673C99.496 39.4864 100.962 41.1899 102.815 41.4205C101.764 43.1939 100.826 45.0515 99.7751 46.8248C98.9139 44.4252 97.3456 42.0293 96.6897 41.0145C94.3372 37.4206 91.1716 35.1604 87.8155 34.3437C85.7198 33.8457 83.8697 34.3221 82.8586 35.6851C82.1004 36.7074 82.0236 38.2352 82.7235 39.5467C83.1815 40.5908 84.006 41.3784 84.7021 41.9829C85.2847 42.5031 86.0102 43.3054 86.8493 44.1919C90.6746 48.174 94.0162 51.6212 96.8337 52.2144C94.7348 56.4682 92.7495 60.8063 90.8778 65.2286C90.3024 63.3931 89.0602 61.151 87.0229 58.3192C83.8313 53.8387 78.7934 50.5419 73.4552 49.3114C72.8324 49.2016 72.1693 49.5021 71.8469 50.0553C70.9935 51.7993 71.9792 53.675 72.3933 54.4224C75.3358 59.9507 81.4695 67.2299 89.0207 69.7498C85.3506 79.0889 81.3693 91.1026 82.1985 103.515C82.2463 104.519 82.4222 105.706 82.5835 106.794C73.7859 95.8662 62.0284 89.5218 49.5785 83.2801C50.509 82.7378 51.183 81.8291 51.5347 81.4737C54.1613 78.0515 55.7728 72.5558 55.4096 68.0604C55.3142 66.0527 54.2039 64.7009 52.6908 64.7231C52.0826 64.7121 51.7016 64.8697 51.3206 65.0273C49.1481 66.057 47.3201 68.0466 46.2872 70.6259C45.4631 72.5678 45.1922 74.832 45.1082 77.675C45.1303 79.1881 45.2916 80.2763 45.5372 81.2508C44.2328 80.6354 42.9138 79.9211 41.6095 79.3057C43.3935 77.0194 43.2429 72.5937 43.1365 71.1941C42.8466 67.1934 41.3991 63.5664 39.0248 61.1889C37.2477 59.4305 34.3716 58.4416 32.4007 60.1491C31.0489 61.2593 30.9172 63.0985 30.8953 64.3149C30.8846 67.6525 31.8381 76.8117 36.1103 79.7166C36.6782 80.1379 37.2168 80.3613 37.6418 80.5005C40.3787 81.9144 43.1157 83.3284 45.8526 84.7423C60.5998 92.1598 74.5812 99.1855 83.665 113.407C84.8232 118.492 86.4761 123.504 88.0996 128.318C88.8179 130.436 89.5361 132.553 90.1555 134.685C93.8094 146.376 95.547 156.733 95.6395 166.222C93.0047 160.042 88.1644 153.986 81.1478 148.253C78.037 145.681 74.7578 143.337 71.4932 141.091C71.0388 140.754 70.5845 140.417 70.1302 140.08C71.7129 139.846 73.094 138.933 74.0757 137.372C75.9696 134.463 76.2146 129.979 75.3387 127.48C74.7634 125.645 73.0999 123.971 71.1362 124.363C70.1616 124.608 68.568 125.451 68.3595 128.818C68.279 129.639 68.2131 130.559 68.1473 131.478C67.891 133.841 67.7631 136.388 68.1846 138.549C67.2759 137.875 66.2683 137.216 65.345 136.443C65.9348 135.648 66.2681 134.486 66.4182 133.453C67.3519 128.159 66.1569 121.462 63.2546 115.523C61.6533 112.222 59.6858 111.907 58.583 111.97C57.3814 112.047 56.2823 112.816 55.3702 114.165C52.5349 118.224 53.6931 123.309 54.7852 126.585C52.7588 123.145 49.8166 120.346 46.1161 118.569C43.621 117.423 40.4225 116.987 38.426 119.204C37.1328 120.71 36.9902 123.157 38.1884 125.103C39.1448 126.78 40.8192 127.846 42.1383 128.561C45.2159 130.227 48.5024 131.257 51.3492 132.048C52.397 132.297 53.628 132.417 54.9727 132.622L55.0716 132.608C55.4819 132.648 55.8923 132.688 56.3173 132.828C60.5382 136.751 65.1658 140.008 69.6945 143.279C72.8602 145.539 76.1394 147.883 79.2355 150.356C88.5531 157.972 93.771 165.893 94.7757 174.033C94.8783 174.726 95.3473 175.162 96.0691 175.257C96.168 175.242 96.2669 175.227 96.3658 175.213C96.7615 175.154 97.1279 174.898 97.2964 174.67C97.6627 174.414 97.9155 174.073 97.9558 173.663C98.8415 164.635 97.9979 154.853 95.4652 143.906C96.189 128.332 103.394 113.515 115.582 102.307C119.059 99.1628 123.074 96.2424 128.291 93.245C136.215 88.7342 144.78 85.1392 153.72 82.702C152.405 85.4242 152.856 90.5131 153.732 95.7411L153.849 96.5325C154.025 97.7195 154.23 99.1044 155.029 100.401C155.572 101.332 156.466 101.907 157.286 101.987C157.385 101.973 157.598 102.042 157.697 102.028C158.404 102.024 159.957 101.591 160.466 98.8876C160.781 96.9201 161.096 94.9527 161.228 93.1135C161.213 93.0146 162.029 84.1996 159.003 81.5144C162.619 80.675 166.264 80.0335 169.939 79.5899C170.037 79.5752 170.136 79.5605 170.221 79.4469C170.462 79.7144 170.69 79.8829 171.016 80.0367C171.683 80.4433 172.419 80.6374 173.339 80.7033C178.475 81.256 186.956 77.7746 187.887 77.2323C190.792 75.6896 192.55 73.9125 193.246 71.7875C193.609 70.8239 193.576 69.919 193.36 69.1423C192.869 67.1933 190.615 66.3142 187.578 66.9666ZM112.842 68.139C113.81 77.3972 115.288 86.6809 116.736 95.7667C113.24 92.6456 111.331 87.2675 111.48 80.7753C111.594 78.1301 111.89 75.3567 112.216 72.781C112.505 71.3228 112.78 69.7657 112.842 68.139ZM117.761 89.0437C117.735 89.553 117.809 90.0476 117.798 90.6558C117.82 92.1689 117.988 94.6712 117.457 95.8619L117.428 95.6641C116.009 86.7761 114.646 77.5766 113.578 68.3332C116.371 74.8946 117.822 81.9581 117.761 89.0437ZM110.122 88.6598C109.037 84.0693 110.213 79.0425 111.179 74.6533L111.648 72.3598C111.663 72.4587 111.593 72.6712 111.608 72.7701C111.297 75.4447 110.887 78.1339 110.788 80.878C110.583 87.6815 112.636 93.3418 116.443 96.5178C116.344 96.5325 116.131 96.4629 116.032 96.4776C113.284 95.6718 110.903 91.8801 110.122 88.6598ZM114.031 46.8344C115.361 46.9405 116.705 47.1456 117.738 47.2957C119.592 47.5263 121.105 47.5042 121.886 47.995C122.666 48.4859 122.787 49.9844 122.212 50.8784C121.483 52.0984 119.875 52.8423 118.702 53.1172C115.596 53.9822 112.13 53.7883 109.294 52.3891C107.11 51.2975 104.454 49.0629 104.49 47.9455C104.476 47.8465 104.446 47.6487 105.011 47.3629C106.689 46.4065 110.55 46.5417 114.031 46.8344ZM130.889 28.2614C131.497 28.2723 132.303 28.2539 132.659 28.6056C133.128 29.0415 132.71 30.3165 132.036 31.2252C130.337 33.398 127.728 34.8967 125.318 36.3661C122.892 37.7365 120.482 39.2059 117.87 39.9975C115.455 40.7598 111.051 39.6941 107.78 38.7639C109.018 37.5694 109.959 36.4189 110.915 35.3673C116.352 31.1242 124.456 28.5075 130.889 28.2614ZM107.859 27.0253L107.91 26.0068C108.023 20.6321 109.232 16.5103 111.664 13.8246C111.749 13.711 111.749 13.711 111.833 13.5974C111.862 13.7952 111.891 13.9931 111.935 14.2898C112.438 18.3602 112.786 22.7566 112.017 27.1165C111.673 28.8861 110.666 30.9562 108.783 33.2572C108.332 33.6273 107.966 33.8838 107.515 34.2539C107.816 32.1875 107.859 29.7548 107.859 27.0253ZM94.662 23.9271C94.2882 22.7694 94.0133 21.597 94.277 20.6481C94.4711 19.9117 95.0755 19.2155 95.6837 19.2265C95.6837 19.2265 95.6837 19.2265 95.7826 19.2118C96.4055 19.3216 97.1163 20.025 97.8308 21.4355C100.403 26.5131 103.87 34.8954 103.731 38.0498C103.563 38.277 103.379 38.4053 103.28 38.4199C103.097 38.5482 102.247 38.2698 100.91 36.7495C98.5356 34.372 96.4908 30.1259 94.662 23.9271ZM88.8751 42.173C87.9224 41.2022 87.197 40.3999 86.5997 39.7808C86.0171 39.2606 85.5335 38.7258 85.2623 38.2605C85.1047 37.8795 85.0461 37.4838 85.2146 37.2566C85.3831 37.0295 85.863 36.8572 86.5848 36.9524C86.7826 36.9231 86.9951 36.9927 87.2076 37.0623C89.8272 37.6848 92.3407 39.6373 94.2791 42.4839C95.9757 45.063 97.4488 48.1806 97.5258 49.3823C95.3459 48.9978 91.3777 44.7337 88.8751 42.173ZM33.7237 64.2999C33.7602 63.1825 33.8701 62.5597 34.2218 62.2042C34.8555 61.7059 36.1599 62.3213 36.9843 63.1089C38.8896 65.0505 40.022 67.9154 40.3081 71.2091C40.5502 74.2059 39.9863 77.2212 39.14 77.65C39.0411 77.6646 38.8432 77.694 38.7296 77.6097C38.6161 77.5255 38.4036 77.4559 38.29 77.3716C38.1764 77.2874 38.0775 77.302 37.9786 77.3167C37.865 77.2324 37.7661 77.2471 37.7514 77.1482C34.9705 75.4375 33.7314 68.4436 33.7237 64.2999ZM47.9366 77.6601C47.9656 75.1285 48.1963 73.2746 48.8666 71.6588C49.6065 69.8306 50.8007 68.3393 52.409 67.5954C52.4383 67.7933 52.4676 67.9911 52.497 68.1889C52.7575 71.9919 51.3547 76.8501 49.1495 79.7043C48.7282 80.2723 48.4608 80.5141 48.2776 80.6423C48.2189 80.2467 47.9734 79.2721 47.9366 77.6601ZM71.005 131.661C71.0708 130.741 71.122 129.723 71.2025 128.902C71.2097 127.587 71.5468 127.133 71.7446 127.103C71.9424 127.074 72.4114 127.51 72.6277 128.287C73.2031 130.122 73.0092 133.588 71.7051 135.702C71.4671 136.142 71.1007 136.398 70.8333 136.64C70.7122 135.142 70.8586 133.401 71.005 131.661ZM52.2685 129.384C49.6342 128.663 46.4614 127.718 43.6951 126.106C42.7022 125.545 41.4821 124.816 40.8115 123.703C40.3974 122.955 40.2215 121.768 40.8259 121.072C41.2618 120.603 42.0385 120.387 42.8592 120.467C43.581 120.563 44.4163 120.742 45.0831 121.149C48.769 122.826 51.6417 125.838 53.3017 129.534C52.8914 129.494 52.5799 129.439 52.2685 129.384ZM57.8397 115.82C58.261 115.252 58.6126 114.897 59.0083 114.838C59.5029 114.765 60.2284 115.567 60.8147 116.795C63.4458 122.268 64.5382 128.273 63.7143 132.944C63.6191 133.666 63.4799 134.091 63.3261 134.417C62.8718 134.08 62.2599 133.362 61.7909 132.926C61.6626 132.743 61.4354 132.574 61.3072 132.391C61.0214 131.827 60.4937 130.995 60.065 130.149C59.2662 128.852 58.1668 126.892 57.8957 126.427C56.9209 123.943 55.5099 119.199 57.8397 115.82ZM56.3133 129.391C56.2986 129.292 56.1997 129.307 56.185 129.208C56.2986 129.292 56.3133 129.391 56.3133 129.391ZM158.538 92.7034C158.308 94.5573 158.077 96.4112 157.748 98.2797C157.693 98.5911 157.623 98.8036 157.539 98.9172C157.539 98.9172 157.539 98.9172 157.524 98.8183C157.11 98.0709 156.963 97.0817 156.817 96.0925L156.699 95.3012C155.017 84.6326 156.467 83.5077 156.863 83.449C157.061 83.4197 157.16 83.405 157.16 83.405C157.259 83.3904 157.259 83.3904 157.273 83.4893C158.523 84.4161 158.849 90.0289 158.538 92.7034ZM190.781 70.8389C190.279 72.2275 188.956 73.5355 186.714 74.7778C184.373 76.0346 175.013 79.0398 172.671 77.5672C172.459 77.4976 172.331 77.3145 172.371 76.9041C172.374 74.8817 182.127 71.1108 188.285 69.6924C188.879 69.6044 189.472 69.5164 189.982 69.542C190.491 69.5676 190.817 69.7214 190.96 70.0035C190.876 70.1171 190.905 70.3149 190.781 70.8389Z" fill="white"/>
<path d="M174.347 82.0687C173.922 81.9295 173.497 81.7904 173.072 81.6512C170.309 80.7465 166.158 79.3401 164.264 82.2492C162.301 85.3709 165.763 90.3166 167.445 92.7968C169.882 96.2771 172.784 99.4862 176.107 102.127C177.939 103.574 180.196 105.161 182.885 105.571C182.984 105.556 183.098 105.64 183.197 105.626C185.56 105.882 187.747 104.951 188.912 103.262C190.231 101.247 189.765 98.7884 189.19 96.9529C187.39 90.952 184.426 86.64 180.44 84.2993C178.582 83.3616 176.67 82.7353 174.347 82.0687ZM183.296 102.881C181.229 102.581 179.412 101.233 177.822 100.054C174.711 97.4819 171.952 94.5549 169.629 91.1589C166.793 87.0301 166.203 85.0958 166.466 84.1468C168.075 86.1324 169.782 88.1033 171.658 89.8471C172.725 90.9021 173.989 91.9278 175.04 92.8839C176.077 93.7412 177.228 94.6826 178.18 95.6534C178.876 96.2579 179.488 96.9759 180.185 97.5803C181.962 99.3387 183.739 101.097 185.853 102.401C185.204 102.801 184.116 102.962 183.296 102.881ZM186.472 101.804C184.372 100.599 182.482 98.7562 180.705 96.9977C179.994 96.2944 179.397 95.6753 178.7 95.0708C177.649 94.1147 176.597 93.1586 175.461 92.316C174.311 91.3746 173.146 90.3342 172.094 89.3781C170.204 87.5354 168.496 85.5645 166.789 83.5936C167.155 83.3371 167.664 83.3627 168.272 83.3736C169.503 83.4944 170.991 83.9815 172.053 84.3295C172.592 84.5529 173.116 84.6774 173.541 84.8166C175.651 85.4136 177.351 85.9703 178.897 86.8531C183.111 89.3623 185.244 94.2019 186.395 97.8728C186.985 99.8072 187.062 101.009 186.472 101.804Z" fill="white"/>
<path d="M28.1557 94.9476C28.6209 94.6764 29.1851 94.3906 29.9471 94.0755C34.8563 91.7302 42.8831 87.9118 40.6808 83.2848C40.0798 81.9586 39.0282 81.0024 37.6396 80.5006C33.7999 79.1491 28.2826 81.4834 23.9523 83.6418C20.6514 85.2432 16.7608 87.6396 15.3397 91.6918C14.6144 93.619 14.7979 96.2202 16.6006 97.4694C17.2674 97.876 17.9049 98.0848 18.5277 98.1946C19.6598 98.3301 20.6344 98.0845 21.0154 97.9269C23.6569 97.3331 26.0968 96.0616 28.1557 94.9476ZM17.9044 92.6258C19.0618 89.5225 22.304 87.5255 25.1396 86.1953C27.2131 85.1802 33.4192 82.0362 36.6214 83.1789C37.2589 83.3877 37.7279 83.8236 38.0284 84.4867C39.1423 86.5456 31.2987 90.2358 28.7598 91.522C28.0125 91.936 27.2505 92.2512 26.7852 92.5224C24.8106 93.5227 22.5538 94.6661 20.2238 95.3148C19.2346 95.4614 18.5275 95.4651 18.1867 95.2124C17.6188 94.7911 17.6407 93.5748 17.9044 92.6258Z" fill="white"/>
<path d="M11.4177 77.5136C15.6384 78.7076 19.2765 79.3813 22.05 79.6778C25.6441 80.0548 28.1318 79.7871 29.3993 78.7905C30.2163 78.1639 30.5935 77.2992 30.6594 76.3796C30.7106 75.3611 30.2818 74.5148 29.4428 73.6283C25.8886 70.1115 14.6958 68.9402 12.6881 69.0356C11.4718 69.0138 10.2848 69.1898 9.15639 69.7614C7.64701 70.4906 6.76421 72.0368 6.87059 73.4363C6.97698 74.8359 7.83446 76.5284 11.4177 77.5136ZM9.66965 73.2236C9.62566 72.9268 9.96267 72.4725 10.4279 72.2013C11.091 71.9008 11.8824 71.7835 12.6884 71.7651C15.5168 71.7502 25.0279 73.1708 27.4023 75.5483C27.5305 75.7315 27.7724 75.9989 27.6332 76.4239C26.5488 77.2923 21.797 77.2891 11.912 74.7108C10.6516 74.3922 9.75764 73.8171 9.66965 73.2236Z" fill="white"/>
<path d="M36.0666 95.7973C35.4549 97.8087 36.0743 99.941 37.5509 101.036C38.1188 101.458 38.7563 101.666 39.4781 101.762C40.2988 101.842 41.189 101.71 42.05 101.38C43.3762 100.779 44.347 99.8266 45.1199 98.9033C45.2042 98.7897 51.5123 90.8791 49.1343 87.7945C47.6393 85.8931 44.5363 87.4652 43.4079 88.0368C41.5322 89.0226 40.0265 90.4589 38.6198 91.8805C37.6637 92.9321 36.539 94.2109 36.0666 95.7973ZM44.793 90.561C45.9214 89.9894 46.5992 89.7878 46.8959 89.7438C46.8045 91.1726 44.7458 95.0161 43.0168 96.991C42.4123 97.6872 41.8079 98.3833 40.9469 98.7132C40.2838 99.0136 39.5767 99.0174 39.2213 98.6657C38.6534 98.2444 38.6057 97.2406 38.8144 96.6031C39.1624 95.5405 39.95 94.7161 40.723 93.7928C41.8623 92.613 43.1994 91.4038 44.793 90.561Z" fill="white"/>
<path d="M38.4334 152.665C39.353 152.731 40.3422 152.584 41.2325 152.452C47.9846 150.946 59.492 147.42 61.5101 141.258C62.3598 138.807 61.4474 137.425 60.5241 136.653C56.5889 133.293 44.2792 137.544 42.4035 138.53C37.6079 140.96 34.8129 144.609 34.8609 148.342C34.8537 149.658 35.2275 150.815 35.953 151.618C36.6638 152.321 37.5138 152.599 38.4334 152.665ZM37.6893 148.327C37.7255 144.48 41.8983 141.941 43.6751 140.97C45.8329 139.841 53.2187 137.837 56.9118 138.199C57.6336 138.294 58.2711 138.503 58.6118 138.756C58.7254 138.84 59.0808 139.192 58.7475 140.353C57.6488 143.852 50.7796 147.297 40.624 149.712C39.2538 150.016 38.4332 149.936 38.0778 149.584C37.737 149.331 37.6783 148.936 37.6893 148.327Z" fill="white"/>
<path d="M55.287 155.221C54.8585 157.104 55.6133 158.104 56.0677 158.441C56.522 158.778 56.947 158.917 57.3574 158.957C57.6688 159.012 57.9655 158.968 58.1634 158.939C60.7499 158.657 62.8198 156.935 64.1569 155.725C66.0985 153.82 68.9119 150.977 69.659 147.833C69.7835 147.309 69.5966 146.73 69.1423 146.393C67.8929 145.467 65.8374 144.558 63.8591 144.852C62.5878 145.141 61.573 145.797 60.855 146.409C58.1367 148.53 56.1733 151.652 55.287 155.221ZM64.4675 147.592C64.6653 147.563 64.9621 147.519 65.1746 147.588C65.6839 147.614 66.1089 147.753 66.6475 147.976C65.6841 150.343 63.193 152.633 62.3212 153.571C60.8155 155.008 59.5186 155.806 58.0349 156.026C58.0202 155.928 58.0202 155.928 58.1044 155.814C58.7966 152.982 60.4377 150.413 62.7896 148.548C63.4234 148.05 63.9729 147.665 64.4675 147.592Z" fill="white"/>
<path d="M150.274 124.257C150.67 124.198 151.021 123.843 151.274 123.502C151.413 123.077 151.454 122.667 151.296 122.286C147.61 115.149 141.582 109.269 134.379 105.687C130.891 103.98 119.196 98.7383 114.851 103.527C113.712 104.707 113.21 106.096 113.43 107.579C113.859 111.155 117.919 113.99 121.623 116.474L122.29 116.881C129.13 121.427 135.791 124.079 141.961 124.781C144.819 124.964 147.534 124.865 150.274 124.257ZM116.364 106.235C118.193 106.974 120.303 107.571 122.329 108.282C124.879 109.117 127.642 110.022 129.796 110.915C132.815 112.186 136.032 113.428 138.729 115.252C141.085 116.824 142.99 118.766 144.925 120.905C145.28 121.257 145.635 121.608 145.892 121.975C136.131 118.872 126.972 114.367 118.625 108.528C117.731 107.953 116.921 107.264 116.211 106.561C116.196 106.462 116.28 106.348 116.364 106.235ZM121.461 104.468C124.842 104.776 129.22 106.351 133.035 108.211C139.146 111.248 144.305 116.043 147.687 121.81C147.39 121.854 147.094 121.898 146.797 121.942C146.313 121.407 145.844 120.971 145.361 120.436C143.426 118.297 141.506 116.256 139.036 114.6C136.226 112.692 133.009 111.45 129.891 110.194C127.638 109.315 124.974 108.395 122.325 107.575C120.314 106.963 118.288 106.253 116.474 105.612C116.559 105.498 116.559 105.498 116.643 105.385C117.713 104.417 119.394 104.168 121.461 104.468ZM123.762 114.539L123.096 114.133C121.293 112.884 117.149 110.162 116.288 107.762C116.87 108.283 117.552 108.788 118.12 109.209C125.997 114.613 134.519 118.909 143.573 122.015C136.146 121.701 128.914 117.921 123.762 114.539Z" fill="white"/>
<path d="M68.8233 91.0413C69.4315 91.0523 69.9261 90.9789 70.3071 90.8214C73.7069 89.2053 74.2519 79.9251 73.7461 77.8771C73.0056 74.2464 71.3054 70.9602 69.7187 67.7583C69.4475 67.2931 68.9932 66.956 68.385 66.9451C67.7768 66.9342 67.3262 67.3042 67.1028 67.8428C65.7622 71.0744 61.814 83.993 65.9142 89.1475C67.1233 90.4846 68.1016 90.9461 68.8233 91.0413Z" fill="white"/>
<path d="M44.3288 40.3863C43.5667 40.7015 42.9476 41.2987 42.1453 42.0242C40.669 43.6584 40.0427 45.5709 40.5888 47.2085C40.805 47.9852 41.318 48.7179 42.0288 49.4213C43.2087 50.5606 44.6266 51.2602 46.0701 51.4506C46.2826 51.5202 46.5794 51.4762 46.7772 51.4469C48.686 51.3661 50.4335 50.1972 51.5837 48.4092C52.3969 47.0755 52.5873 45.632 52.2135 44.4743C52.0119 43.7965 51.5282 43.2617 51.2717 42.8953C49.5643 40.9244 46.8823 39.199 44.3288 40.3863Z" fill="white"/>
<path d="M62.7673 39.2694C62.8771 38.6465 62.6902 38.0677 62.5473 37.7856C62.3897 37.4046 62.3164 36.91 62.0306 36.3458C61.1878 34.7522 59.6269 33.7705 57.9013 33.723C56.1904 33.7745 54.8092 34.6869 53.9411 36.332C53.1719 37.9624 53.3663 39.9554 54.308 41.5344C55.0921 42.7324 56.3269 43.5602 57.5579 43.681C57.7704 43.7506 57.9683 43.7213 58.1661 43.6919C60.0602 43.5122 61.1555 42.0357 61.9138 41.0134C62.3498 40.5444 62.6721 39.9912 62.7673 39.2694ZM59.8216 38.493C59.8362 38.5919 59.9792 38.874 59.8949 38.9876C59.9096 39.0865 59.8253 39.2001 59.6568 39.4272C59.0817 40.3212 58.5468 40.8049 58.0522 40.8782C57.6566 40.9369 57.1033 40.6145 56.8175 40.0503C56.3045 39.3177 56.2568 38.3138 56.6487 37.548C56.9564 36.8959 57.5059 36.5111 58.0152 36.5367C58.6234 36.5477 59.1913 36.9689 59.5907 37.6174C59.6347 37.9141 59.6787 38.2109 59.8216 38.493Z" fill="white"/>
<path d="M47.585 35.0517C47.7828 35.0224 47.8964 35.1066 48.1089 35.1762C48.7317 35.2861 49.5378 35.2677 50.3694 34.74C51.4831 34.0694 52.0838 32.6662 51.7649 31.1971C51.5303 29.6144 50.1929 28.094 48.7053 27.6069C47.5292 27.1747 46.2433 27.3654 45.2578 28.2191C44.4556 28.9446 43.994 29.9229 43.8733 31.1539C43.7781 31.8756 43.8807 32.5681 44.1665 33.1323C44.9947 34.627 46.7643 34.9712 47.585 35.0517ZM46.7456 31.4357C46.7859 31.0254 46.9251 30.6004 47.1925 30.3585C47.3757 30.2303 47.5588 30.102 47.6724 30.1863C47.7713 30.1716 47.7714 30.1716 47.8849 30.2559C48.4235 30.4793 48.9219 31.1131 49.1088 31.6919C49.1528 31.9887 49.0978 32.3001 48.9989 32.3148C48.9 32.3294 48.6032 32.3734 48.0793 32.2489C47.0461 32.0988 46.8043 31.8314 46.8043 31.8314C46.7054 31.846 46.6907 31.7471 46.7456 31.4357Z" fill="white"/>
<path d="M114.228 130.005C113.579 130.404 112.975 131.1 112.499 131.98C111.546 133.738 111.316 135.592 111.847 137.131C112.507 138.853 114.141 140.329 116.138 140.842C116.449 140.897 116.761 140.952 117.072 141.007C118.204 141.142 119.277 140.882 120.109 140.354C120.758 139.955 121.08 139.402 121.333 139.061C122.736 136.932 123.596 133.873 121.761 131.719C121.262 131.085 120.482 130.594 119.504 130.133C117.631 129.096 115.609 129.092 114.228 130.005Z" fill="white"/>
<path d="M139.635 62.0428C137.58 61.1344 135.656 61.1163 134.275 62.0287C133.627 62.4281 133.022 63.1243 132.546 64.0036C131.594 65.7623 131.363 67.6161 131.895 69.1549C132.554 70.8767 134.188 72.353 136.185 72.8658C136.497 72.9207 136.808 72.9756 137.119 73.0306C138.252 73.166 139.325 72.9058 140.157 72.3781C140.805 71.9787 141.127 71.4254 141.38 71.0847C142.783 68.9559 143.644 65.8967 141.808 63.7426C141.394 62.9952 140.614 62.5043 139.635 62.0428ZM139.109 69.3996C138.955 69.7257 138.771 69.8539 138.588 69.9822C138.222 70.2387 137.614 70.2278 136.991 70.1179C135.83 69.7846 134.921 69.1106 134.69 68.235C134.375 67.473 134.525 66.4398 135.071 65.3479C135.309 64.9083 135.562 64.5675 135.844 64.4246C136.126 64.2817 136.507 64.1241 137.031 64.2486C137.441 64.2889 137.965 64.4134 138.504 64.6368C139.156 64.9445 139.496 65.1973 139.852 65.549C140.577 66.3513 139.936 68.1649 139.109 69.3996Z" fill="white"/>
<path d="M127.253 149C127.565 149.055 127.861 149.011 128.158 148.967C128.752 148.879 129.217 148.608 129.583 148.352C130.049 148.08 130.415 147.824 130.767 147.468C132.089 146.16 132.631 144.361 132.1 142.823C131.554 141.185 130.176 140.075 128.421 139.83C126.666 139.585 124.746 140.273 123.538 141.666C122.413 142.945 122.054 144.615 122.556 145.956C123.216 147.678 124.945 148.433 126.205 148.751C126.531 148.905 126.843 148.96 127.253 149ZM125.641 143.578C126.245 142.882 127.106 142.552 127.828 142.647L127.927 142.633C128.649 142.728 129.118 143.164 129.29 143.644C129.477 144.223 129.268 144.86 128.748 145.443C128.48 145.684 128.297 145.813 128.015 145.956C127.931 146.069 127.649 146.212 127.55 146.227C127.451 146.241 127.337 146.157 127.026 146.102C125.963 145.754 125.311 145.447 125.139 144.967C125.08 144.571 125.304 144.032 125.641 143.578Z" fill="white"/>
<path d="M132.845 136.242C134.256 135.527 135.322 133.853 135.399 132.325C135.505 130.995 134.834 129.881 133.713 129.138C132.819 128.562 131.687 128.427 130.5 128.603C129.709 128.72 129.144 129.006 128.708 129.475C127.47 130.67 127.734 132.45 127.753 133.256C127.855 133.949 128.017 135.037 128.841 135.824C129.31 136.26 129.948 136.469 130.57 136.579C131.391 136.659 132.182 136.542 132.845 136.242ZM130.735 132.915C130.574 131.827 130.742 131.6 130.742 131.6C130.742 131.6 130.826 131.486 131.123 131.442C131.321 131.413 131.618 131.369 131.731 131.453C131.929 131.424 132.043 131.508 132.156 131.592C132.383 131.761 132.512 131.944 132.457 132.256C132.446 132.864 131.94 133.545 131.475 133.816C131.193 133.959 130.896 134.003 130.783 133.919C130.852 133.706 130.709 133.424 130.735 132.915Z" fill="white"/>
<path d="M137.877 47.4447C139.287 46.7301 140.368 45.1546 140.43 43.5279C140.536 42.198 139.866 41.0843 138.744 40.3407C137.85 39.7656 136.718 39.6301 135.531 39.8061C134.74 39.9234 134.176 40.2092 133.74 40.6782C132.502 41.8727 132.765 43.6533 132.784 44.4593C132.887 45.1517 133.048 46.2398 133.872 47.0274C134.341 47.4634 134.979 47.6721 135.602 47.782C136.437 47.9614 137.228 47.8441 137.877 47.4447ZM136.012 45.0928C135.898 45.0085 135.854 44.7118 135.781 44.2172C135.619 43.1291 135.788 42.9019 135.788 42.9019C135.788 42.9019 135.872 42.7883 136.169 42.7443C136.367 42.715 136.664 42.671 136.777 42.7553C136.975 42.7259 137.089 42.8102 137.202 42.8944C137.429 43.0629 137.558 43.2461 137.503 43.5575C137.492 44.1657 136.986 44.8472 136.521 45.1184C136.323 45.1477 136.012 45.0928 136.012 45.0928Z" fill="white"/>
<path d="M104.975 205.178C105.934 205.499 106.573 206.141 106.254 207.105C104.336 214.813 105.295 222.843 109.13 229.908C111.047 233.441 113.923 236.974 116.48 240.186L124.469 250.143C126.067 252.07 127.984 254.318 129.902 255.924C131.5 257.209 133.097 258.172 135.015 259.136L157.704 272.625C158.343 272.946 158.663 273.91 158.343 274.873C158.024 275.516 157.065 275.837 156.106 275.516L133.417 262.026C131.5 261.063 129.902 259.778 127.984 258.493C125.747 256.566 123.83 254.318 122.232 252.07L114.243 242.113C111.367 238.901 108.81 235.368 106.573 231.514C102.419 224.127 101.46 214.813 103.377 206.784C103.377 205.82 104.336 205.178 104.975 205.178Z" fill="white"/>
<path d="M105.611 204.857C114.559 206.784 121.909 214.171 123.507 223.164C123.507 223.485 123.507 224.128 123.826 224.449C124.146 225.733 124.146 227.018 124.785 227.982C125.744 229.588 127.661 230.872 129.259 231.836C143.32 240.186 155.464 242.756 166.009 239.223C170.483 237.938 174.318 235.369 178.473 232.799C180.07 231.836 181.668 230.872 183.266 229.909C196.688 222.201 212.347 218.668 228.006 219.952C228.964 219.952 229.604 220.916 229.284 221.558C229.284 222.522 228.325 223.164 227.686 222.843C227.686 222.843 227.686 222.843 227.367 222.843C212.666 221.558 197.647 225.091 184.544 232.478C182.947 233.442 181.349 234.405 179.751 235.369C175.596 237.938 171.442 240.508 166.329 242.114C155.144 245.646 142.042 243.077 127.342 234.405C125.105 233.121 122.868 231.515 121.589 229.266C120.95 227.661 120.631 226.055 120.311 224.77C120.311 224.449 120.311 223.806 119.991 223.485C118.394 215.777 112.322 209.353 104.652 207.748C103.693 207.426 103.374 206.784 103.374 205.82C104.013 205.178 104.652 204.536 105.611 204.857Z" fill="white"/>
<path d="M80.0451 207.426C85.7973 207.747 91.5496 210.316 96.6627 214.813C101.137 218.346 104.332 223.485 107.528 228.624C108.487 230.229 109.445 231.514 110.404 232.799C110.724 233.441 110.724 234.405 110.085 235.047C109.445 235.368 108.487 235.368 107.848 234.726C106.889 233.441 105.93 231.835 104.971 230.551C101.776 225.733 98.5801 220.915 94.7453 217.382C91.23 214.492 84.519 209.674 76.2102 210.638C75.2515 210.638 74.932 210.959 74.932 210.959C74.932 210.959 74.6124 211.28 75.5711 212.886C86.756 230.551 100.178 246.609 115.517 260.42C117.115 262.026 118.713 263.311 120.63 263.953C121.909 264.595 123.506 264.595 125.104 264.917L146.835 267.486C147.794 267.486 148.113 268.45 148.113 269.092C148.113 270.055 147.474 270.698 146.515 270.377L124.785 267.807C123.187 267.486 121.269 267.486 119.672 266.844C117.435 265.88 115.517 264.274 113.6 262.668C97.9409 248.537 84.1995 232.478 73.0145 214.492C72.3754 213.849 71.0971 211.28 72.3754 209.353C73.3341 208.068 74.932 207.747 75.8907 207.747C77.4885 207.426 78.7668 207.426 80.0451 207.426Z" fill="white"/>
<path d="M62.7915 223.163C64.7089 223.163 66.3068 223.805 68.2242 224.127C73.6569 225.733 78.1308 229.265 82.6048 232.477C83.8831 233.441 84.8418 234.083 85.8005 234.725C88.6766 236.974 91.2332 238.901 95.068 239.864C96.0267 240.186 96.3463 240.828 96.0267 241.791C95.7071 242.755 95.068 243.076 94.1093 242.755C89.6353 241.47 87.0788 239.543 83.8831 236.974C82.9244 236.331 82.2852 235.689 81.3265 235.047C76.8526 231.835 72.3786 228.623 67.5851 227.017C62.7915 225.411 58.3176 225.733 54.8023 227.66L73.0177 245.646C75.2547 247.894 77.8113 250.463 80.6874 251.748C83.2439 253.033 86.4396 253.675 89.6353 254.317C92.5115 254.96 95.3876 254.96 98.5832 254.96C102.418 255.281 106.572 255.281 111.046 256.566C112.005 256.887 112.325 257.529 112.005 258.493C111.686 259.456 111.046 259.777 110.088 259.456C105.933 258.493 102.099 258.171 98.2637 257.85C95.3876 257.85 92.1919 257.529 88.9962 256.887C85.4809 256.244 82.2852 255.602 79.4091 253.996C76.2134 252.39 73.3373 249.821 71.1003 247.251L51.6066 227.66C51.287 227.338 50.9675 227.017 51.287 226.375C51.287 226.054 51.6066 225.411 51.9262 225.411C54.1632 223.805 58.3176 222.842 62.7915 223.163Z" fill="white"/>
<path d="M58.6357 234.084C58.9553 234.084 59.2749 234.084 59.2749 234.084C60.2336 234.084 60.5532 235.048 60.5532 236.011C60.5532 236.975 59.5944 237.296 58.6357 237.296C55.7596 236.653 52.8835 238.902 50.6465 241.15C45.853 245.646 43.616 249.501 43.9356 253.033C43.9356 253.676 44.2551 253.997 44.2551 253.997C44.2551 253.997 44.5747 254.318 45.2138 254.318C49.6878 254.639 54.4813 253.676 59.5945 252.712C65.9858 251.428 72.6968 250.464 78.7686 251.749C79.7273 252.07 80.0469 252.712 80.0469 253.676C79.7273 254.639 79.0882 254.961 78.1295 254.961C72.6968 253.676 66.3054 254.961 60.2336 255.924C55.1205 256.888 50.0074 257.851 45.2138 257.53C44.2551 257.53 43.2964 257.209 42.3377 256.566C41.379 255.603 41.379 254.639 41.0594 253.676C40.4203 247.573 45.2138 242.435 48.7291 239.223C51.2857 236.332 54.8009 234.084 58.6357 234.084Z" fill="white"/>
<path d="M195.092 196.828C195.412 196.828 196.051 197.149 196.37 197.47C197.01 198.113 196.69 199.076 196.051 199.719C189.02 204.536 181.351 206.463 174.32 208.391C167.929 209.996 161.218 211.602 154.507 215.456C151.311 217.384 147.796 218.989 144.281 220.595L143.322 220.916C137.25 223.807 130.859 225.734 124.148 226.376C123.189 226.376 122.55 225.734 122.55 225.092C122.55 224.128 123.189 223.486 123.828 223.486C130.22 222.844 136.291 221.238 142.044 218.347L143.002 218.026C146.198 216.42 149.713 214.814 152.909 212.887C159.939 208.712 166.65 207.106 173.361 205.5C180.711 203.573 187.742 201.967 194.133 197.149C194.453 197.149 194.773 196.828 195.092 196.828Z" fill="white"/>
<path d="M183.268 171.454C190.298 172.097 197.329 173.702 204.04 175.308L221.616 179.484C225.77 180.447 230.564 181.411 234.399 184.301C240.151 187.834 243.347 194.258 246.223 199.076L254.851 216.098C255.171 216.74 254.851 217.704 254.212 218.025C253.573 218.346 252.614 218.025 252.295 217.383L243.347 200.681C240.79 195.543 237.914 189.761 232.801 186.55C229.286 184.301 225.131 183.338 220.977 182.374L203.401 178.199C196.37 176.593 189.02 174.666 181.67 174.345C176.876 174.024 172.083 174.345 167.289 174.666L127.663 176.914C126.384 176.914 125.426 177.557 125.426 177.557C125.426 177.878 125.745 178.199 125.745 178.199C130.858 186.228 139.487 191.367 149.074 192.331C151.95 192.652 154.826 192.652 157.702 192.652C159.939 192.652 161.857 192.652 164.094 192.652C166.331 192.652 169.207 192.973 171.444 194.579C173.361 195.864 174.32 197.791 175.279 199.718C176.237 201.324 176.876 203.251 178.474 203.893C179.113 204.214 179.433 205.178 178.794 206.141C178.474 206.784 177.515 207.105 176.557 206.463C174.639 205.178 173.361 202.93 172.402 201.003C171.444 199.397 170.805 197.791 169.526 196.827C167.928 195.543 166.011 195.543 164.094 195.221C161.857 195.221 159.939 195.221 157.702 195.221C154.826 195.221 151.63 195.221 148.754 194.9C138.528 193.937 128.941 187.834 123.508 179.162C123.189 178.841 122.869 177.878 122.55 176.914C122.55 174.666 124.467 173.06 127.663 173.06L166.97 171.454C171.763 171.133 176.876 170.812 181.67 171.133C182.309 171.133 182.948 171.454 183.268 171.454Z" fill="white"/>
<path d="M257.089 242.113C257.408 242.113 257.408 242.113 257.728 242.113C258.367 242.434 258.686 243.398 258.367 244.04C253.893 253.997 248.78 264.275 238.873 268.129C235.677 269.413 232.162 269.735 228.966 270.056L188.062 274.552C177.516 275.837 166.65 276.8 155.785 275.195C154.826 275.195 154.507 274.231 154.507 273.589C154.507 272.625 155.466 272.304 156.105 272.304C166.651 273.91 177.196 272.946 187.742 271.662L228.647 267.165C231.843 266.844 235.038 266.523 237.914 265.559C246.862 262.347 251.656 252.712 255.81 243.077C255.81 242.434 256.449 242.113 257.089 242.113Z" fill="white"/>
<path d="M245.904 199.075C269.871 205.819 293.2 214.17 315.889 224.126C322.281 227.017 328.992 229.908 335.383 233.119C336.981 233.762 335.702 236.331 334.105 235.689C312.054 225.09 289.045 215.776 265.717 208.389C259.006 206.141 251.975 204.213 245.264 202.286C243.667 201.323 244.306 198.432 245.904 199.075Z" fill="white"/>
<path d="M248.141 258.493C257.408 262.989 267.315 265.88 276.902 269.413C286.489 272.946 295.757 277.442 304.385 283.223C305.983 284.187 304.065 286.435 302.787 285.472C294.159 280.012 284.891 275.515 275.304 271.982C265.717 268.449 256.13 265.88 247.182 261.383C245.584 260.099 246.543 257.529 248.141 258.493Z" fill="white"/>
</svg>
