<svg width="379" height="385" viewBox="0 0 379 385" fill="none" xmlns="http://www.w3.org/2000/svg">
<path d="M221.947 52.4665C207.86 48.2019 193.514 45.3992 179.726 43.7011C157.846 40.8153 137.315 37.4154 116.282 46.7446C97.4169 55.2026 85.9565 75.7853 89.8938 96.0901C92.0196 106.773 97.9066 116.114 97.9513 127.181C97.866 138.979 93.7917 150.57 91.7553 162.021C90.9754 166.407 86.3525 168.349 82.6186 170.953C75.4814 175.716 68.5447 180.766 61.608 185.815C58.4918 187.775 55.3484 188.472 55.3435 192.744C54.9598 201.976 64.1412 204.111 68.597 210.182C71.8494 214.53 71.2267 219.446 68.409 223.972C66.3823 226.879 64.2257 230.517 65.1258 233.945C66.0692 237.129 69.7116 239.284 70.1239 242.625C70.5795 245.722 68.0651 248.542 68.2768 251.596C68.8736 256.729 75.7027 257.944 77.7356 262.075C79.9258 266.738 80.1759 273.82 79.5099 278.979C77.8424 294.015 84.6778 302.268 99.1703 302.835C106.904 303.205 114.785 301.339 122.491 300.447C137.417 298.577 152.067 299.675 148.286 318.104C145.025 333.61 142.984 349.333 139.967 364.882C137.037 379.944 124.487 399.579 147.657 403.7C160.827 406.042 223.21 414.623 228.157 405.198C229.235 403.379 229.138 401.099 228.753 399.02C227.325 380.167 225.854 361.557 224.182 342.661C223.715 336.797 220.126 325.854 226.559 322.222C232.13 319.192 237.448 324.661 242.109 326.747C247.903 329.537 254.445 330.952 260.786 332.079C303.956 339.757 319.714 324.714 336.305 285.188C342.866 269.515 336.513 254.31 325.319 242.265C321.091 237.743 315.384 234.466 310.582 230.345C304.89 225.563 304.364 221.447 305.42 214.095C307.185 201.339 314.761 189.868 318.147 177.903C321.202 166.382 321.862 154.184 319.909 142.526C316.177 118.236 302.571 95.7092 282.771 81.1288C265.236 67.9568 243.751 58.6063 221.947 52.4665Z" fill="white" fill-opacity="0.2"/>
<path d="M117.463 393.807C124.447 372.931 129.853 351.02 131.944 342.092C138.548 314.865 132.298 308.978 104.972 312.664C96.4899 313.669 92.6421 315.498 84.1764 314.998C68.2205 314.171 60.7401 305.301 62.6675 288.803C63.4363 281.651 62.6215 266.426 56.529 261.07C54.5506 259.461 52.285 258.053 50.3065 256.444C49.6615 255.827 49.2604 255.253 48.8593 254.679C48.7454 253.904 48.5881 253.374 48.7181 252.643C49.1675 248.701 51.1235 244.776 49.779 241.018C48.3911 237.504 44.4615 235.549 43.8486 231.921C43.5775 230.616 44.1247 228.954 44.5852 227.779C46.0535 223.767 49.5435 221.121 50.2801 216.979C50.8 214.055 50.5883 211.001 49.0704 208.218C46.7936 204.043 42.7774 202.575 39.7961 199.531C37.2594 196.818 33.7631 192.426 33.7246 188.398C33.6862 184.369 37.534 182.54 40.1624 180.494C47.9174 175.087 55.4719 169.393 63.1836 164.23C67.2048 161.426 72.3587 159.327 73.2253 154.454C75.5811 139.792 85.7081 118.219 77.0998 104.372C69.3371 91.4297 66.9129 78.1802 70.6182 63.0046C74.4101 47.3418 85.5461 34.2417 100.032 27.7697C154.704 3.31018 239.044 22.8334 265.64 79.8424C275.073 100.371 275.878 124.14 270.715 146.094C266.447 164.437 257.127 182.887 240.657 192.022C220.541 203.274 194.216 197.084 175.879 182.764C164.41 173.686 155.254 161.502 152.228 147.391C147.446 126.182 152.9 99.7559 175.998 91.5479C203.215 82.8158 227.19 110.706 226.402 134.946C225.296 173.707 191.925 205.725 189.599 244.269C188.809 257.198 192.626 269.69 197.017 281.781" stroke="white" stroke-width="3" stroke-miterlimit="10" stroke-linecap="round" stroke-linejoin="round"/>
<path d="M168.752 217.187C162.269 214.023 154.535 213.653 147.744 216.467C145.864 217.138 151.881 225.748 161.117 230.407C166.667 233.153 175.577 233.984 181.262 231.727C179.863 225.446 174.302 219.933 168.752 217.187Z" stroke="white" stroke-width="3" stroke-miterlimit="10" stroke-linecap="round" stroke-linejoin="round"/>
<path d="M163.035 249.346C155.789 249.063 148.467 252.034 143.525 257.187C142.002 258.675 151.108 264.065 161.325 264.625C167.552 264.979 175.893 261.938 180.418 257.716C176.32 252.463 169.263 249.7 163.035 249.346Z" stroke="white" stroke-width="3" stroke-miterlimit="10" stroke-linecap="round" stroke-linejoin="round"/>
<path d="M214.333 224.037C220.722 220.649 228.543 220.532 235.356 223.251C237.221 224.086 231.141 232.807 222.052 237.223C216.524 240.01 207.842 240.728 201.918 238.669C203.288 232.378 208.805 226.824 214.333 224.037Z" stroke="white" stroke-width="3" stroke-miterlimit="10" stroke-linecap="round" stroke-linejoin="round"/>
<path d="M220.424 256.285C227.557 255.794 235.101 258.644 239.974 263.783C241.465 265.305 232.447 270.739 222.258 271.44C216.144 271.861 207.581 269.081 203.066 264.76C207.032 259.433 214.311 256.706 220.424 256.285Z" stroke="white" stroke-width="3" stroke-miterlimit="10" stroke-linecap="round" stroke-linejoin="round"/>
</svg>
