<svg width="380" height="296" viewBox="0 0 380 296" fill="none" xmlns="http://www.w3.org/2000/svg">
<rect x="117.006" y="1" width="152.435" height="294" rx="19" fill="white" fill-opacity="0.2" stroke="white" stroke-width="2"/>
<path d="M58.2522 153.704H216.016C221.482 153.704 225.936 149.283 225.936 143.796V80.7041C225.936 75.2445 221.509 70.7969 216.016 70.7969H58.2522C52.7855 70.7969 48.332 75.2179 48.332 80.7041V143.823C48.332 149.283 52.7855 153.704 58.2522 153.704Z" fill="#C3D6EA"/>
<path d="M217.12 60.3039H155.385C150.799 60.3039 147.092 56.602 147.092 52.0212V40.3296C147.092 35.7488 150.799 32.0469 155.385 32.0469H217.12C221.707 32.0469 225.413 35.7488 225.413 40.3296V52.0212C225.413 56.602 221.707 60.3039 217.12 60.3039Z" fill="#E5AA7E"/>
<path d="M214.419 267.529H143.217C137.724 267.529 133.297 263.081 133.297 257.621V242.601C133.297 237.114 137.75 232.693 143.217 232.693H214.419C219.912 232.693 224.339 237.141 224.339 242.601V257.621C224.339 263.081 219.885 267.529 214.419 267.529Z" fill="#E5AA7E"/>
<path d="M242.066 218.206H174.812C168.251 218.206 162.918 212.88 162.918 206.328V180.042C162.918 173.491 168.251 168.164 174.812 168.164H242.066C248.626 168.164 253.96 173.491 253.96 180.042V206.328C253.96 212.88 248.653 218.206 242.066 218.206Z" fill="#C3D6EA"/>
<path d="M331.223 214.371L379.677 230.191L350.663 201.934L347.703 208.858L335.249 208.911L331.223 214.371Z" fill="#C3D6EA"/>
<path d="M379.677 230.191L342.076 201.641L301.889 192.453L379.677 230.191Z" fill="white"/>
<path d="M350.66 201.934L379.674 230.191L360.34 190.615L350.66 201.934Z" fill="white"/>
<path d="M45.4873 34.0965L0.179688 40.5416L30.2337 20.0879L31.7804 26.6395L42.7939 28.6369L45.4873 34.0965Z" fill="#C3D6EA"/>
<path d="M0.179688 40.543L37.8872 21.1279L74.8213 19.2637L0.179688 40.543Z" fill="white"/>
<path d="M30.2337 20.0885L0.179688 40.5422L23.4602 8.55664L30.2337 20.0885Z" fill="white"/>
<path d="M116.601 109.146C116.601 115.059 114.601 120.492 111.268 124.833C110.148 126.271 108.894 127.603 107.508 128.774C103.028 132.583 97.2142 134.873 90.8674 134.873C85.1073 134.873 79.8005 132.982 75.507 129.786C73.6137 128.375 71.9336 126.724 70.4936 124.859C67.1335 120.518 65.1602 115.085 65.1602 109.173C65.1602 94.9779 76.6804 83.4727 90.894 83.4727C105.081 83.4461 116.601 94.9513 116.601 109.146Z" fill="white"/>
<path d="M101.19 121.291C101.11 121.211 101.057 121.131 100.977 121.078C100.683 120.838 100.39 120.705 99.19 120.519C98.5766 120.412 97.7499 120.306 96.5499 120.146C96.5499 120.146 96.2832 120.119 96.1499 120.119C96.0699 120.119 95.9632 120.093 95.8565 120.093C95.5099 119.906 95.4299 118.495 95.4299 117.003C95.4299 116.897 95.4299 116.79 95.4299 116.657C95.4299 116.098 95.4565 115.538 95.4832 115.032C95.4832 115.006 95.4832 114.979 95.4832 114.953C96.2299 115.006 96.7099 115.006 96.7099 115.006C98.0699 114.899 98.9233 111.224 99.2433 108.268C99.2433 108.268 99.91 106.643 99.91 104.885C99.91 103.9 99.6966 102.861 99.0299 102.062C98.6833 101.636 98.3633 101.37 98.0699 101.21C97.9899 101.13 97.9099 101.05 97.8033 100.971C96.5232 99.559 91.3498 94.2591 87.9364 97.3219C87.8564 97.0289 86.7363 93.5667 81.3762 94.7119C81.7229 94.6853 84.0963 94.4456 84.7896 95.4043C84.683 95.3511 82.6296 94.4456 81.2962 95.2445C80.6829 95.6174 80.3095 96.3897 80.0962 97.1887C80.0962 97.1887 80.0962 97.1887 80.0962 97.2153C80.0962 97.2153 80.0962 97.2153 80.0962 97.242V97.2686C80.0695 97.3751 80.0429 97.4817 80.0162 97.5882C80.0162 97.6148 80.0162 97.6148 80.0162 97.6415C80.0162 97.6415 80.0162 97.6415 80.0162 97.6681C79.8562 98.4937 79.8562 99.2927 79.9629 99.6921C80.1762 100.518 81.6429 103.021 82.6296 103.021C83.0029 103.021 83.4029 102.888 83.7496 102.755C83.5896 103.208 83.4563 103.687 83.3496 104.22C82.3096 109.12 85.563 112.849 87.243 111.916C88.3364 111.331 89.1364 113.221 89.1364 113.221C88.9764 116.817 87.9897 119.134 87.2697 119.72C87.003 119.746 86.443 119.826 85.723 119.933C85.723 119.933 83.2429 120.199 81.3496 121.025C81.3229 121.025 81.3229 121.025 81.2962 121.051C80.8695 121.238 80.4962 121.424 80.2295 121.637C80.0962 121.744 79.9629 121.877 79.8829 122.01C79.8295 122.063 79.8028 122.117 79.7762 122.17C79.1362 123.368 78.4962 125.179 77.8828 127.31C81.5096 130.026 86.043 131.624 90.9231 131.624C96.3099 131.624 101.217 129.68 105.03 126.458C103.67 123.448 102.07 121.93 101.19 121.291Z" fill="#3677B8"/>
<path d="M163.433 96.1772H134.205C133.192 96.1772 132.365 95.3516 132.365 94.3396V93.4607C132.365 92.4487 133.192 91.623 134.205 91.623H163.433C164.446 91.623 165.273 92.4487 165.273 93.4607V94.3396C165.273 95.3516 164.446 96.1772 163.433 96.1772Z" fill="#3677B8"/>
<path d="M163.804 112.584H133.857C133.03 112.584 132.363 111.919 132.363 111.093C132.363 110.267 133.03 109.602 133.857 109.602H163.804C164.631 109.602 165.297 110.267 165.297 111.093C165.271 111.919 164.604 112.584 163.804 112.584Z" fill="#3677B8"/>
<path d="M150.55 119.616H133.51C132.87 119.616 132.363 119.11 132.363 118.47V117.778C132.363 117.139 132.87 116.633 133.51 116.633H150.55C151.19 116.633 151.697 117.139 151.697 117.778V118.47C151.67 119.11 151.164 119.616 150.55 119.616Z" fill="#3677B8"/>
<path d="M185.24 119.616H157.719C156.946 119.616 156.279 118.976 156.279 118.177V118.071C156.279 117.299 156.919 116.633 157.719 116.633H185.24C186.013 116.633 186.68 117.272 186.68 118.071V118.177C186.68 118.976 186.04 119.616 185.24 119.616Z" fill="#3677B8"/>
<path d="M210.982 112.584H171.728C170.901 112.584 170.234 111.919 170.234 111.093C170.234 110.267 170.901 109.602 171.728 109.602H210.982C211.809 109.602 212.475 110.267 212.475 111.093C212.475 111.919 211.782 112.584 210.982 112.584Z" fill="#3677B8"/>
<path d="M163.804 126.647H133.857C133.03 126.647 132.363 125.981 132.363 125.155C132.363 124.33 133.03 123.664 133.857 123.664H163.804C164.631 123.664 165.297 124.33 165.297 125.155C165.271 125.981 164.604 126.647 163.804 126.647Z" fill="#3677B8"/>
<path d="M210.982 126.647H171.728C170.901 126.647 170.234 125.981 170.234 125.155C170.234 124.33 170.901 123.664 171.728 123.664H210.982C211.809 123.664 212.475 124.33 212.475 125.155C212.475 125.981 211.782 126.647 210.982 126.647Z" fill="#3677B8"/>
<path d="M191.939 96.1779H170.952C170.072 96.1779 169.379 95.4588 169.379 94.6066V93.2217C169.379 92.3428 170.099 91.6504 170.952 91.6504H191.939C192.819 91.6504 193.513 92.3695 193.513 93.2217V94.6332C193.513 95.4855 192.793 96.1779 191.939 96.1779Z" fill="#3677B8"/>
<path d="M165.455 242.572H144.682C143.962 242.572 143.375 241.986 143.375 241.267V240.655C143.375 239.936 143.962 239.35 144.682 239.35H165.455C166.176 239.35 166.762 239.936 166.762 240.655V241.267C166.762 241.986 166.176 242.572 165.455 242.572Z" fill="white"/>
<path d="M165.72 250.855H144.44C143.853 250.855 143.373 250.376 143.373 249.79C143.373 249.204 143.853 248.725 144.44 248.725H165.72C166.307 248.725 166.787 249.204 166.787 249.79C166.76 250.376 166.28 250.855 165.72 250.855Z" fill="white"/>
<path d="M156.28 255.864H144.173C143.72 255.864 143.373 255.491 143.373 255.065V254.559C143.373 254.106 143.746 253.76 144.173 253.76H156.28C156.733 253.76 157.08 254.133 157.08 254.559V255.065C157.107 255.491 156.733 255.864 156.28 255.864Z" fill="white"/>
<path d="M180.974 255.864H161.4C160.84 255.864 160.387 255.411 160.387 254.852V254.772C160.387 254.213 160.84 253.76 161.4 253.76H180.974C181.534 253.76 181.987 254.213 181.987 254.772V254.852C181.987 255.411 181.534 255.864 180.974 255.864Z" fill="white"/>
<path d="M199.242 250.855H171.348C170.761 250.855 170.281 250.376 170.281 249.79C170.281 249.204 170.761 248.725 171.348 248.725H199.269C199.855 248.725 200.335 249.204 200.335 249.79C200.309 250.376 199.829 250.855 199.242 250.855Z" fill="white"/>
<path d="M165.72 260.869H144.44C143.853 260.869 143.373 260.389 143.373 259.804C143.373 259.218 143.853 258.738 144.44 258.738H165.72C166.307 258.738 166.787 259.218 166.787 259.804C166.76 260.389 166.28 260.869 165.72 260.869Z" fill="white"/>
<path d="M199.242 260.869H171.348C170.761 260.869 170.281 260.389 170.281 259.804C170.281 259.218 170.761 258.738 171.348 258.738H199.269C199.855 258.738 200.335 259.218 200.335 259.804C200.309 260.389 199.829 260.869 199.242 260.869Z" fill="white"/>
<path d="M185.724 242.573H170.79C170.177 242.573 169.67 242.067 169.67 241.455V240.443C169.67 239.83 170.177 239.324 170.79 239.324H185.724C186.337 239.324 186.844 239.83 186.844 240.443V241.455C186.844 242.067 186.337 242.573 185.724 242.573Z" fill="white"/>
<path d="M179.248 40.7538H158.475C157.755 40.7538 157.168 40.1679 157.168 39.4488V38.8362C157.168 38.1172 157.755 37.5312 158.475 37.5312H179.248C179.968 37.5312 180.555 38.1172 180.555 38.8362V39.4488C180.555 40.1412 179.968 40.7538 179.248 40.7538Z" fill="white"/>
<path d="M179.517 49.0368H158.237C157.65 49.0368 157.17 48.5575 157.17 47.9715C157.17 47.3856 157.65 46.9062 158.237 46.9062H179.517C180.104 46.9062 180.584 47.3856 180.584 47.9715C180.557 48.5575 180.077 49.0368 179.517 49.0368Z" fill="white"/>
<path d="M170.077 54.0454H157.97C157.517 54.0454 157.17 53.6725 157.17 53.2464V52.7404C157.17 52.2876 157.543 51.9414 157.97 51.9414H170.077C170.53 51.9414 170.877 52.3143 170.877 52.7404V53.2464C170.904 53.6725 170.53 54.0454 170.077 54.0454Z" fill="white"/>
<path d="M194.771 54.0454H175.197C174.637 54.0454 174.184 53.5926 174.184 53.0333V52.9534C174.184 52.3942 174.637 51.9414 175.197 51.9414H194.771C195.331 51.9414 195.784 52.3942 195.784 52.9534V53.0333C195.784 53.5926 195.331 54.0454 194.771 54.0454Z" fill="white"/>
<path d="M213.039 49.0368H185.145C184.558 49.0368 184.078 48.5575 184.078 47.9715C184.078 47.3856 184.558 46.9062 185.145 46.9062H213.065C213.652 46.9062 214.132 47.3856 214.132 47.9715C214.105 48.5575 213.625 49.0368 213.039 49.0368Z" fill="white"/>
<path d="M199.519 40.755H184.585C183.972 40.755 183.465 40.249 183.465 39.6365V38.6244C183.465 38.0119 183.972 37.5059 184.585 37.5059H199.519C200.132 37.5059 200.639 38.0119 200.639 38.6244V39.6365C200.639 40.249 200.132 40.755 199.519 40.755Z" fill="white"/>
<path d="M197.611 180.897H174.864C174.064 180.897 173.424 180.258 173.424 179.459V178.766C173.424 177.967 174.064 177.328 174.864 177.328H197.611C198.411 177.328 199.051 177.967 199.051 178.766V179.459C199.051 180.231 198.411 180.897 197.611 180.897Z" fill="#3677B8"/>
<path d="M197.876 189.978H174.569C173.929 189.978 173.422 189.445 173.422 188.833C173.422 188.194 173.955 187.688 174.569 187.688H197.876C198.516 187.688 199.022 188.22 199.022 188.833C199.049 189.445 198.516 189.978 197.876 189.978Z" fill="#3677B8"/>
<path d="M187.556 195.437H174.302C173.822 195.437 173.422 195.037 173.422 194.558V194.025C173.422 193.546 173.822 193.146 174.302 193.146H187.556C188.036 193.146 188.436 193.546 188.436 194.025V194.558C188.462 195.037 188.062 195.437 187.556 195.437Z" fill="#3677B8"/>
<path d="M214.598 195.438H193.184C192.571 195.438 192.064 194.932 192.064 194.32V194.24C192.064 193.627 192.571 193.121 193.184 193.121H214.598C215.212 193.121 215.718 193.627 215.718 194.24V194.32C215.692 194.932 215.212 195.438 214.598 195.438Z" fill="#3677B8"/>
<path d="M234.596 189.978H204.035C203.395 189.978 202.889 189.445 202.889 188.833C202.889 188.194 203.422 187.688 204.035 187.688H234.596C235.236 187.688 235.743 188.22 235.743 188.833C235.769 189.445 235.236 189.978 234.596 189.978Z" fill="#3677B8"/>
<path d="M197.876 200.925H174.569C173.929 200.925 173.422 200.393 173.422 199.78C173.422 199.141 173.955 198.635 174.569 198.635H197.876C198.516 198.635 199.022 199.167 199.022 199.78C199.049 200.393 198.516 200.925 197.876 200.925Z" fill="#3677B8"/>
<path d="M234.596 200.925H204.035C203.395 200.925 202.889 200.393 202.889 199.78C202.889 199.141 203.422 198.635 204.035 198.635H234.596C235.236 198.635 235.743 199.167 235.743 199.78C235.769 200.393 235.236 200.925 234.596 200.925Z" fill="#3677B8"/>
<path d="M197.876 206.622H174.569C173.929 206.622 173.422 206.09 173.422 205.477C173.422 204.838 173.955 204.332 174.569 204.332H197.876C198.516 204.332 199.022 204.865 199.022 205.477C199.049 206.09 198.516 206.622 197.876 206.622Z" fill="#3677B8"/>
<path d="M234.596 206.622H204.035C203.395 206.622 202.889 206.09 202.889 205.477C202.889 204.838 203.422 204.332 204.035 204.332H234.596C235.236 204.332 235.743 204.865 235.743 205.477C235.769 206.09 235.236 206.622 234.596 206.622Z" fill="#3677B8"/>
<path d="M219.802 180.896H203.455C202.789 180.896 202.229 180.336 202.229 179.671V178.579C202.229 177.913 202.789 177.354 203.455 177.354H219.802C220.469 177.354 221.029 177.913 221.029 178.579V179.671C221.029 180.336 220.469 180.896 219.802 180.896Z" fill="#3677B8"/>
<path d="M143.724 23.8693L142.151 25.0145L140.551 23.8959C140.897 23.3899 141.484 23.0703 142.151 23.0703C142.791 23.0703 143.378 23.3899 143.724 23.8693Z" fill="white"/>
<path d="M142.155 20.3008C140.555 20.3008 139.168 21.0998 138.314 22.2982L139.328 22.9907C139.968 22.1118 141.008 21.5259 142.181 21.5259C143.355 21.5259 144.368 22.0852 145.008 22.9907L146.021 22.2716C145.115 21.0731 143.728 20.3008 142.155 20.3008Z" fill="white"/>
<path d="M142.149 15.0527C138.789 15.0527 135.802 16.7306 134.016 19.2873L135.029 19.9797C136.602 17.7426 139.216 16.2778 142.176 16.2778C145.083 16.2778 147.696 17.716 149.269 19.9265L150.256 19.2074C148.443 16.7039 145.483 15.0527 142.149 15.0527Z" fill="white"/>
<path d="M142.155 17.9316C139.755 17.9316 137.648 19.1035 136.342 20.9145L137.355 21.6069C138.422 20.1155 140.182 19.1301 142.155 19.1301C144.129 19.1301 145.862 20.0889 146.929 21.5537L147.915 20.8346C146.635 19.1035 144.529 17.9316 142.155 17.9316Z" fill="white"/>
<path d="M133.266 191.146C133.266 193.463 134.039 195.594 135.372 197.299C135.799 197.858 136.306 198.39 136.839 198.843C137.372 199.296 137.959 199.695 138.599 200.042C140.012 200.814 141.639 201.24 143.373 201.24C145.533 201.24 147.533 200.574 149.159 199.429C149.239 199.376 149.319 199.323 149.399 199.243C150.146 198.683 150.813 198.044 151.373 197.299C152.679 195.594 153.479 193.463 153.479 191.146C153.479 185.58 148.946 181.053 143.373 181.053C137.772 181.053 133.266 185.58 133.266 191.146Z" fill="white"/>
<path d="M146.094 197.621L145.161 196.795C145.081 196.822 145.001 196.822 144.921 196.849C144.761 196.742 144.574 196.609 144.387 196.502C144.441 196.13 144.494 195.783 144.547 195.464C144.681 194.372 144.707 193.733 144.707 193.626C145.187 193.6 145.534 193.546 145.534 193.546C146.467 193.333 146.521 190.137 146.307 188.486C146.494 188.486 146.654 188.459 146.814 188.38C147.507 188.06 147.561 186.995 147.561 186.995C147.561 186.995 147.347 187.368 147.054 187.501C147.054 187.501 148.227 185.876 146.867 184.784C145.507 183.666 144.121 184.411 143.321 184.438C141.587 184.545 140.441 184.651 139.881 185.796C139.321 186.915 139.534 190.031 140.627 191.176C140.654 191.283 140.654 191.389 140.681 191.496C140.734 191.895 140.894 192.241 141.107 192.508C140.867 193.839 140.307 194.851 139.827 195.517C139.481 195.783 139.187 196.103 138.894 196.529L138.867 196.556C138.334 197.301 137.907 198.287 137.561 199.405C137.561 199.405 137.561 199.405 137.561 199.432C138.121 199.832 138.761 200.178 139.401 200.444C139.454 200.471 139.481 200.471 139.534 200.497H139.561C139.641 200.524 139.694 200.551 139.774 200.577C139.934 200.657 140.121 200.71 140.281 200.764C140.467 200.817 140.654 200.87 140.841 200.923C140.921 200.95 141.001 200.977 141.107 200.977C141.187 201.003 141.267 201.003 141.347 201.03H141.374C141.427 201.03 141.481 201.057 141.534 201.057C141.641 201.083 141.774 201.11 141.881 201.11C141.907 201.11 141.934 201.11 141.961 201.11C142.041 201.11 142.094 201.137 142.147 201.137C142.254 201.137 142.334 201.163 142.414 201.163C142.521 201.163 142.627 201.19 142.734 201.19C142.841 201.19 142.947 201.19 143.027 201.216C143.134 201.216 143.241 201.216 143.347 201.216C143.454 201.216 143.561 201.216 143.694 201.216H143.721C143.747 201.216 143.774 201.216 143.801 201.216C143.854 201.216 143.907 201.216 143.961 201.216C143.961 201.216 143.961 201.216 143.987 201.216C144.094 201.216 144.201 201.216 144.307 201.19C145.667 201.057 146.974 200.657 148.121 200.045C147.534 199.033 146.787 198.26 146.094 197.621Z" fill="#699DEE"/>
<path d="M232.502 249.821C232.502 252.165 233.302 254.296 234.609 256.027C235.035 256.586 235.542 257.119 236.102 257.571C237.862 259.063 240.182 259.968 242.689 259.968C244.956 259.968 247.062 259.223 248.769 257.944C249.516 257.385 250.182 256.719 250.742 256C252.076 254.296 252.849 252.138 252.849 249.795C252.849 244.175 248.289 239.621 242.662 239.621C237.035 239.621 232.502 244.202 232.502 249.821Z" fill="white"/>
<path d="M247.86 255.571C247.86 255.545 247.834 255.518 247.807 255.491C247.754 255.438 247.7 255.385 247.647 255.331C247.514 255.225 247.354 255.145 247.14 255.065C247.14 255.065 247.14 255.065 247.114 255.065C246.234 254.692 245.06 254.559 245.06 254.559C244.74 254.506 244.474 254.479 244.34 254.453C243.994 254.186 243.54 253.094 243.46 251.417C243.46 251.417 243.834 250.538 244.34 250.804C245.14 251.23 246.634 249.499 246.154 247.209C246.1 246.969 246.047 246.729 245.967 246.543C246.127 246.623 246.314 246.676 246.5 246.676C246.954 246.676 247.647 245.504 247.754 245.131C247.86 244.732 247.754 243.453 247.114 243.081C246.5 242.708 245.54 243.134 245.487 243.16C245.807 242.734 246.874 242.814 247.06 242.841C244.58 242.335 244.047 243.933 244.02 244.066C242.447 242.628 240.02 245.105 239.434 245.77C239.38 245.797 239.354 245.85 239.3 245.877C239.167 245.957 239.007 246.09 238.847 246.276C238.527 246.649 238.447 247.129 238.447 247.608C238.447 248.434 238.767 249.179 238.767 249.179C238.9 250.564 239.3 252.269 239.94 252.322C239.94 252.322 240.154 252.322 240.5 252.295C240.5 252.322 240.5 252.322 240.5 252.349C240.5 252.588 240.527 252.855 240.527 253.094V253.254C240.527 253.947 240.474 254.612 240.34 254.692C240.287 254.692 240.234 254.692 240.207 254.692C240.154 254.692 240.02 254.719 240.02 254.719C239.46 254.799 239.06 254.852 238.794 254.905C238.234 254.985 238.1 255.065 237.967 255.172C237.94 255.198 237.914 255.225 237.86 255.278C237.46 255.598 236.714 256.29 236.047 257.649C237.834 259.14 240.127 260.045 242.634 260.045C244.9 260.045 247.007 259.3 248.714 258.021C248.447 256.983 248.154 256.13 247.86 255.571Z" fill="#DD8E53"/>
<path d="M232.502 45.5752C232.502 47.9189 233.302 50.0495 234.609 51.7806C235.035 52.3399 235.542 52.8725 236.102 53.3253C237.862 54.8167 240.182 55.7222 242.689 55.7222C244.956 55.7222 247.062 54.9765 248.769 53.6981C249.516 53.1388 250.182 52.473 250.742 51.7539C252.076 50.0495 252.849 47.8922 252.849 45.5486C252.849 39.9291 248.289 35.375 242.662 35.375C237.035 35.375 232.502 39.9558 232.502 45.5752Z" fill="white"/>
<path d="M247.86 51.327C247.86 51.3004 247.834 51.2738 247.807 51.2471C247.754 51.1939 247.7 51.1406 247.647 51.0873C247.514 50.9808 247.354 50.9009 247.14 50.821C247.14 50.821 247.14 50.821 247.114 50.821C246.234 50.4482 245.06 50.315 245.06 50.315C244.74 50.2617 244.474 50.2351 244.34 50.2085C244.26 50.1286 244.18 50.022 244.074 49.8623C243.78 49.3562 243.514 48.4241 243.46 47.1724C243.46 47.1724 243.834 46.2935 244.34 46.5598C245.14 46.986 246.634 45.2548 246.154 42.9645C246.1 42.7248 246.047 42.4851 245.967 42.2986C246.127 42.3785 246.314 42.4318 246.5 42.4318C246.954 42.4318 247.647 41.26 247.754 40.8871C247.86 40.4876 247.754 39.2093 247.114 38.8364C246.5 38.4636 245.54 38.8897 245.487 38.9163C245.807 38.4902 246.874 38.5701 247.06 38.5967C244.58 38.0907 244.047 39.6887 244.02 39.8218C242.447 38.3837 240.02 40.8605 239.434 41.5263C239.38 41.5529 239.354 41.6062 239.3 41.6328C239.167 41.7127 239.007 41.8459 238.847 42.0323C238.527 42.4052 238.447 42.8846 238.447 43.3639C238.447 44.1895 238.767 44.9353 238.767 44.9353C238.9 46.3201 239.3 48.0246 239.94 48.0779C239.94 48.0779 240.154 48.0779 240.5 48.0512C240.5 48.0779 240.5 48.0779 240.5 48.1045C240.5 48.3442 240.527 48.6105 240.527 48.8502V49.01C240.527 49.7025 240.474 50.3683 240.34 50.4482C240.287 50.4482 240.234 50.4482 240.207 50.4482C240.154 50.4482 240.02 50.4748 240.02 50.4748C239.46 50.5547 239.06 50.608 238.794 50.6612C238.234 50.7678 238.1 50.821 237.967 50.9276C237.94 50.9542 237.914 51.0075 237.86 51.0341C237.46 51.327 236.714 52.0461 236.047 53.4044C236.154 53.4843 236.234 53.5642 236.34 53.6441C236.367 53.6441 236.367 53.6707 236.394 53.6707C236.474 53.724 236.554 53.7772 236.634 53.8305C236.687 53.8838 236.74 53.9104 236.794 53.9637C236.847 53.9903 236.9 54.0435 236.954 54.0702C237.034 54.1234 237.114 54.1767 237.194 54.23C237.247 54.2566 237.3 54.3099 237.354 54.3365C237.434 54.3898 237.487 54.4164 237.567 54.4697C237.647 54.5229 237.727 54.5496 237.807 54.6028C237.807 54.6028 237.807 54.6028 237.834 54.6028L237.86 54.6295C237.914 54.6561 237.994 54.7094 238.047 54.736C238.074 54.736 238.1 54.7626 238.1 54.7626C238.127 54.7893 238.18 54.7893 238.207 54.8159C238.234 54.8425 238.287 54.8425 238.314 54.8692C238.394 54.8958 238.474 54.949 238.554 54.9757C238.634 55.0023 238.714 55.0556 238.794 55.0822C238.82 55.1088 238.874 55.1088 238.9 55.1355C238.927 55.1355 238.98 55.1621 239.007 55.1887C239.087 55.2154 239.167 55.242 239.247 55.2686C239.327 55.2953 239.407 55.3219 239.487 55.3485C239.567 55.3752 239.62 55.4018 239.7 55.4018H239.727C239.78 55.4018 239.807 55.4284 239.86 55.4284C240.1 55.5083 240.34 55.5616 240.607 55.5882C240.714 55.6149 240.82 55.6415 240.927 55.6415C240.954 55.6415 240.98 55.6415 241.007 55.6415H241.034C241.114 55.6415 241.167 55.6681 241.247 55.6681C241.274 55.6681 241.274 55.6681 241.3 55.6681H241.327C241.407 55.6681 241.46 55.6948 241.514 55.6948H241.54C241.567 55.6948 241.594 55.6948 241.594 55.6948C241.7 55.6948 241.834 55.7214 241.94 55.7214H241.967C241.994 55.7214 242.047 55.7214 242.074 55.7214C242.1 55.7214 242.127 55.7214 242.154 55.7214C242.26 55.7214 242.394 55.7214 242.5 55.7214C244.767 55.7214 246.874 54.9757 248.58 53.6973C248.447 52.7386 248.154 51.8863 247.86 51.327Z" fill="#DD8E53"/>
</svg>
