<svg width="24" height="24" viewBox="0 0 24 24" fill="none" xmlns="http://www.w3.org/2000/svg">
<g id="checkbox-picked">
<path id="Subtract" fill-rule="evenodd" clip-rule="evenodd" d="M4 2C2.89543 2 2 2.89543 2 4V20C2 21.1046 2.89543 22 4 22H20C21.1046 22 22 21.1046 22 20V4C22 2.89543 21.1046 2 20 2H4ZM18.1805 9.73279C18.5852 9.35699 18.6086 8.72426 18.2328 8.31955C17.857 7.91484 17.2243 7.8914 16.8195 8.26721L10.5257 14.1115L8.20711 11.7929C7.81658 11.4024 7.18342 11.4024 6.79289 11.7929C6.40237 12.1834 6.40237 12.8166 6.79289 13.2071L9.79289 16.2071C10.1732 16.5874 10.7863 16.5988 11.1805 16.2328L18.1805 9.73279Z" fill="#DD8E53"/>
</g>
</svg>
