<svg width="24" height="25" viewBox="0 0 24 25" fill="none" xmlns="http://www.w3.org/2000/svg">
<g id="cross">
<path id="Union" fill-rule="evenodd" clip-rule="evenodd" d="M17.9712 7.62285C18.3618 8.01335 18.3618 8.64652 17.9713 9.03706L13.7291 13.2796L17.9714 17.5223C18.3619 17.9129 18.3619 18.546 17.9714 18.9366C17.5808 19.3271 16.9477 19.327 16.5572 18.9365L12.3146 14.6935L8.07187 18.9366C7.68137 19.3272 7.0482 19.3272 6.65766 18.9367C6.26712 18.5462 6.26709 17.913 6.65759 17.5225L10.8998 13.2799L6.65748 9.03718C6.26697 8.64664 6.267 8.01347 6.65754 7.62297C7.04808 7.23246 7.68125 7.23249 8.07175 7.62303L12.3143 11.866L16.557 7.62291C16.9475 7.23237 17.5807 7.23234 17.9712 7.62285Z" fill="white"/>
</g>
</svg>
