<svg width="24" height="24" viewBox="0 0 24 24" fill="none" xmlns="http://www.w3.org/2000/svg">
<g id="cross" clip-path="url(#clip0_4208_22917)">
<path id="Union" fill-rule="evenodd" clip-rule="evenodd" d="M18.8033 7.45683C19.1938 7.84734 19.1938 8.4805 18.8033 8.87104L14.5611 13.1136L18.8035 17.3563C19.194 17.7469 19.1939 18.38 18.8034 18.7705C18.4129 19.161 17.7797 19.161 17.3892 18.7705L13.1466 14.5275L8.9039 18.7706C8.5134 19.1611 7.88023 19.1612 7.48969 18.7707C7.09915 18.3802 7.09912 17.747 7.48963 17.3564L11.7318 13.1139L7.48951 8.87116C7.099 8.48062 7.09903 7.84746 7.48957 7.45695C7.88011 7.06644 8.51328 7.06647 8.90379 7.45701L13.1464 11.7L17.3891 7.45689C17.7796 7.06635 18.4127 7.06632 18.8033 7.45683Z" fill="white"/>
</g>
<defs>
<clipPath id="clip0_4208_22917">
<rect width="22.4" height="22.4" fill="white" transform="translate(0.833008 0.800781)"/>
</clipPath>
</defs>
</svg>
