<svg width="24" height="24" viewBox="0 0 24 24" fill="none" xmlns="http://www.w3.org/2000/svg">
<g id="ic24-filter 1">
<path id="Vector" fill-rule="evenodd" clip-rule="evenodd" d="M8.99967 14.2912L2.15601 3.53688C1.73237 2.87115 2.21058 2 2.99967 2H20.9997C21.7888 2 22.267 2.87115 21.8433 3.53688L14.9997 14.2912V19C14.9997 19.3788 14.7857 19.725 14.4469 19.8944L10.4469 21.8944C9.78199 22.2269 8.99967 21.7434 8.99967 21V14.2912ZM4.82135 4L10.8433 13.4631C10.9454 13.6236 10.9997 13.8098 10.9997 14V19.382L12.9997 18.382V14C12.9997 13.8098 13.0539 13.6236 13.156 13.4631L19.178 4H4.82135Z" fill="#041F0F"/>
</g>
</svg>
