<svg width="18" height="24" viewBox="0 0 18 24" fill="none" xmlns="http://www.w3.org/2000/svg">
<g id="Frame 1695">
<g id="Group 1786">
<path id="Vector" d="M9 22.7279L2.636 16.3639C1.37734 15.1052 0.520187 13.5016 0.172928 11.7558C-0.17433 10.0099 0.00390685 8.20035 0.685099 6.55582C1.36629 4.91129 2.51984 3.50569 3.99988 2.51677C5.47992 1.52784 7.21998 1 9 1C10.78 1 12.5201 1.52784 14.0001 2.51677C15.4802 3.50569 16.6337 4.91129 17.3149 6.55582C17.9961 8.20035 18.1743 10.0099 17.8271 11.7558C17.4798 13.5016 16.6227 15.1052 15.364 16.3639L9 22.7279ZM13.95 14.9499C14.9289 13.9709 15.5955 12.7236 15.8656 11.3658C16.1356 10.0079 15.9969 8.60052 15.4671 7.32148C14.9373 6.04244 14.04 4.94923 12.8889 4.18009C11.7378 3.41095 10.3844 3.00043 9 3.00043C7.61557 3.00043 6.26222 3.41095 5.11109 4.18009C3.95996 4.94923 3.06275 6.04244 2.53292 7.32148C2.00308 8.60052 1.86442 10.0079 2.13445 11.3658C2.40449 12.7236 3.07111 13.9709 4.05 14.9499L9 19.8999L13.95 14.9499ZM9 11.9999C8.46957 11.9999 7.96086 11.7892 7.58579 11.4141C7.21072 11.0391 7 10.5304 7 9.99992C7 9.46949 7.21072 8.96078 7.58579 8.58571C7.96086 8.21064 8.46957 7.99992 9 7.99992C9.53044 7.99992 10.0391 8.21064 10.4142 8.58571C10.7893 8.96078 11 9.46949 11 9.99992C11 10.5304 10.7893 11.0391 10.4142 11.4141C10.0391 11.7892 9.53044 11.9999 9 11.9999Z" fill="#7C7C7C"/>
</g>
</g>
</svg>
