<svg width="40" height="40" viewBox="0 0 40 40" fill="none" xmlns="http://www.w3.org/2000/svg">
<g id="whataapp" clip-path="url(#clip0_3784_25697)">
<path id="Vector" d="M0 40L2.82569 29.7292C1.08001 26.7162 0.163066 23.2983 0.167284 19.82C0.171885 8.8911 9.10559 0 20.0838 0C25.4111 0.00269476 30.4115 2.06661 34.1721 5.81315C37.9328 9.55968 40.0019 14.5396 40 19.8359C39.9951 30.764 31.0601 39.6567 20.0835 39.6567H20.0748C16.7419 39.6553 13.4669 38.8229 10.5578 37.2438L0 40Z" fill="#E5AA7E"/>
<path id="Vector_2" fill-rule="evenodd" clip-rule="evenodd" d="M15.1034 11.5335C14.7304 10.7086 14.3379 10.6919 13.9836 10.6776L13.0297 10.666C12.6978 10.666 12.1586 10.79 11.7028 11.2858C11.247 11.7816 9.96094 12.98 9.96094 15.4174C9.96094 17.8548 11.7442 20.2101 11.9927 20.541C12.2412 20.8719 15.4353 26.0332 20.4936 28.0189C24.697 29.6692 25.5524 29.341 26.4652 29.2585C27.3779 29.1761 29.4094 28.0602 29.8238 26.9033C30.2382 25.7465 30.2385 24.7553 30.1143 24.5481C29.99 24.3409 29.6582 24.2177 29.1601 23.9698C28.662 23.7219 26.2159 22.5235 25.7598 22.3581C25.3037 22.1926 24.9721 22.1104 24.6399 22.6062C24.3078 23.1021 23.3553 24.2174 23.0648 24.5481C22.7744 24.8787 22.4845 24.9202 21.9864 24.6726C21.4883 24.4249 19.8859 23.9016 17.9846 22.2139C16.5053 20.9007 15.5067 19.279 15.216 18.7835C14.9253 18.2879 15.1852 18.0195 15.4347 17.7726C15.6581 17.5506 15.9323 17.1941 16.1816 16.9049C16.4309 16.6158 16.5129 16.4091 16.6785 16.079C16.8442 15.7489 16.7616 15.4589 16.6371 15.2113C16.5126 14.9636 15.5457 12.5135 15.1034 11.5337" fill="white"/>
</g>
<defs>
<clipPath id="clip0_3784_25697">
<rect width="40" height="40" fill="white"/>
</clipPath>
</defs>
</svg>
