<svg width="48" height="30" viewBox="0 0 48 30" fill="none" xmlns="http://www.w3.org/2000/svg">
<g id="Group 3055">
<path id="Vector" d="M15.6376 8.58307e-05C15.5229 8.58307e-05 15.4083 0.0105686 15.2936 0.0350266C3.73565 2.37604 0 12.0266 0 16.3313V19.0322C0 24.9756 5.13609 30 11.2104 30C17.4029 30 22.6363 24.9756 22.6363 19.0322C22.6363 15.877 20.9891 11.5933 17.3751 10.5416V1.74362C17.3751 1.22301 17.1458 0.723354 16.7392 0.39142C16.4264 0.136354 16.0338 8.58307e-05 15.6376 8.58307e-05Z" fill="#E5AA7E"/>
<path id="Vector_2" d="M39.9618 8.58307e-05C39.8472 8.58307e-05 39.7325 0.0105686 39.6178 0.0350266C28.0599 2.37604 24.3242 12.0266 24.3242 16.3313V19.0322C24.3242 24.8742 29.8043 30 36.0524 30C42.4152 30 47.9996 24.8742 47.9996 19.0322C47.9996 15.8002 45.8207 11.4641 41.6993 10.4962V1.74711C41.6993 1.2265 41.4665 0.726847 41.0634 0.394913C40.7507 0.136353 40.358 8.58307e-05 39.9618 8.58307e-05Z" fill="#E5AA7E"/>
</g>
</svg>
