<svg width="33" height="32" viewBox="0 0 33 32" fill="none" xmlns="http://www.w3.org/2000/svg">
<path id="Vector" d="M16.5 0C7.66353 0 0.5 7.16353 0.5 16C0.5 24.8365 7.66353 32 16.5 32C25.3365 32 32.5 24.8365 32.5 16C32.5 7.16353 25.3365 0 16.5 0ZM23.4384 18.1149C23.5642 18.2706 23.8637 18.574 24.3374 19.0256H24.3485L24.3595 19.0363L24.3705 19.0477L24.3929 19.0698C25.4364 20.0393 26.1431 20.8572 26.5133 21.5234C26.5357 21.56 26.5597 21.6068 26.5857 21.6622C26.6113 21.7177 26.6372 21.8157 26.6632 21.9562C26.6888 22.0973 26.6869 22.2226 26.6577 22.3335C26.6282 22.4442 26.5357 22.5467 26.3803 22.6389C26.2249 22.7317 26.0065 22.7777 25.7252 22.7777L22.8832 22.8225C22.7057 22.8595 22.4984 22.841 22.2615 22.767C22.0243 22.6927 21.8323 22.6113 21.6843 22.5227L21.462 22.389C21.2398 22.2336 20.9809 21.9968 20.6849 21.6788C20.3887 21.3605 20.1353 21.0737 19.9244 20.8183C19.7135 20.5629 19.4877 20.3488 19.2469 20.1742C19.0062 20.0003 18.7972 19.9429 18.6197 20.0023C18.5977 20.0101 18.5678 20.023 18.5308 20.0412C18.4935 20.0597 18.4309 20.1129 18.342 20.2021C18.2531 20.291 18.1736 20.4004 18.1032 20.5295C18.0328 20.6593 17.9698 20.8517 17.9143 21.1071C17.8589 21.3621 17.8345 21.6493 17.8423 21.9676C17.8423 22.0782 17.829 22.1804 17.8034 22.2729C17.7774 22.3653 17.7495 22.4338 17.72 22.4779L17.6755 22.5334C17.5422 22.6746 17.3462 22.7557 17.0873 22.7777H15.8105C15.2849 22.8076 14.7446 22.7466 14.1898 22.5947C13.635 22.4426 13.148 22.2469 12.73 22.0062C12.3115 21.7661 11.9306 21.5217 11.5866 21.2738C11.2424 21.0256 10.9815 20.8131 10.804 20.6356L10.5266 20.3689C10.4526 20.2953 10.3507 20.184 10.2213 20.0357C10.0918 19.8877 9.82738 19.5513 9.42764 19.0256C9.0279 18.5 8.63563 17.9416 8.25081 17.3491C7.866 16.757 7.41272 15.976 6.89066 15.0065C6.36892 14.0373 5.88611 13.0308 5.44192 11.987C5.39747 11.8689 5.37508 11.769 5.37508 11.6875C5.37508 11.6064 5.38611 11.547 5.4085 11.5097L5.45295 11.4432C5.56392 11.3024 5.77482 11.232 6.08566 11.232L9.12751 11.2099C9.21642 11.2249 9.30143 11.2489 9.38287 11.2823C9.46431 11.3154 9.52369 11.3469 9.56067 11.3764L9.61616 11.4098C9.73459 11.4916 9.82317 11.6097 9.88254 11.7651C10.0305 12.1356 10.2008 12.5185 10.3933 12.9143C10.5857 13.3102 10.7375 13.6119 10.8485 13.8189L11.026 14.1411C11.2404 14.585 11.4478 14.9701 11.6476 15.2956C11.8478 15.6214 12.0269 15.8751 12.1862 16.0561C12.3452 16.2375 12.4987 16.3803 12.647 16.4835C12.7949 16.5873 12.9208 16.6392 13.0247 16.6392C13.1282 16.6392 13.2281 16.6207 13.3245 16.5837C13.3391 16.5762 13.3576 16.5578 13.3799 16.5282C13.4023 16.4987 13.4465 16.4173 13.5133 16.2836C13.5798 16.1506 13.6298 15.9766 13.6632 15.7618C13.6966 15.5477 13.7317 15.2479 13.7687 14.8631C13.8056 14.4779 13.8056 14.0156 13.7687 13.4753C13.7537 13.1791 13.7203 12.9092 13.6687 12.6648C13.6168 12.4208 13.5649 12.2505 13.5133 12.1541L13.4465 12.0211C13.2615 11.7696 12.9471 11.6103 12.5029 11.5435C12.4066 11.5292 12.425 11.4403 12.5584 11.2774C12.6843 11.1366 12.8248 11.026 12.9802 10.9442C13.3725 10.7521 14.257 10.6632 15.6337 10.6775C16.2404 10.6853 16.7401 10.733 17.1324 10.8219C17.2803 10.8592 17.4043 10.9088 17.5042 10.9718C17.6042 11.0344 17.6801 11.1236 17.732 11.2378C17.7836 11.3527 17.8225 11.4711 17.8485 11.5931C17.8744 11.7154 17.8874 11.8842 17.8874 12.0983C17.8874 12.3131 17.8838 12.5169 17.8764 12.709C17.8689 12.9014 17.8598 13.1626 17.8488 13.4916C17.8378 13.8209 17.8319 14.1265 17.8319 14.4075C17.8319 14.4893 17.8284 14.6444 17.8209 14.8738C17.8134 15.1035 17.8112 15.281 17.8154 15.4066C17.8189 15.5324 17.8319 15.6827 17.854 15.8563C17.8764 16.0302 17.9189 16.1749 17.9818 16.2891C18.0445 16.404 18.1278 16.4945 18.2317 16.561C18.2907 16.5763 18.3537 16.5909 18.4205 16.6058C18.487 16.6204 18.5831 16.5801 18.709 16.4835C18.8345 16.3874 18.9753 16.2596 19.1308 16.1006C19.2862 15.9419 19.4786 15.694 19.708 15.3569C19.9371 15.0208 20.1888 14.6226 20.4627 14.1635C20.9069 13.3939 21.3027 12.561 21.6506 11.6655C21.6801 11.5912 21.7171 11.5266 21.7615 11.4711C21.806 11.4153 21.8465 11.3764 21.8835 11.3543L21.928 11.3209C21.9426 11.3134 21.9611 11.3043 21.9835 11.2933C22.0058 11.2826 22.0539 11.2713 22.1278 11.2599C22.2018 11.2492 22.2758 11.2472 22.3501 11.2547L25.5474 11.232C25.8358 11.1953 26.0727 11.2044 26.2576 11.2596C26.4426 11.3151 26.5574 11.3764 26.6019 11.4429L26.6687 11.5539C26.8387 12.0279 26.2839 13.1152 25.0036 14.8176C24.8258 15.0548 24.585 15.3696 24.282 15.7615C23.7047 16.5019 23.3718 16.9867 23.2836 17.2167C23.157 17.5195 23.209 17.8193 23.4384 18.1149Z" fill="#E5AA7E"/>
</svg>
