<svg width="33" height="32" viewBox="0 0 33 32" fill="none" xmlns="http://www.w3.org/2000/svg">
<g id="Group 1755">
<circle id="Ellipse 159" cx="16.5" cy="16" r="16" fill="#E5AA7E"/>
<g id="Group">
<path id="Vector" d="M25.1236 11.4974C24.9162 10.6923 24.3072 10.0596 23.5322 9.84413C22.1291 9.45313 16.5 9.45312 16.5 9.45312C16.5 9.45312 10.8709 9.45313 9.46773 9.84413C8.69279 10.0596 8.0838 10.6923 7.87636 11.4974C7.5 12.9552 7.5 15.9986 7.5 15.9986C7.5 15.9986 7.5 19.042 7.87636 20.4998C8.0838 21.3048 8.69279 21.9375 9.46773 22.153C10.8709 22.544 16.5 22.544 16.5 22.544C16.5 22.544 22.1291 22.544 23.5322 22.153C24.3072 21.9375 24.9162 21.3048 25.1236 20.4998C25.5 19.042 25.5 15.9986 25.5 15.9986C25.5 15.9986 25.4985 12.9552 25.1236 11.4974Z" fill="white"/>
<path id="Vector_2" d="M14.6973 18.8048L19.3736 16.0001L14.6973 13.1953V18.8048Z" fill="#E5AA7E"/>
</g>
</g>
</svg>
