<svg width="64" height="64" viewBox="0 0 64 64" fill="none" xmlns="http://www.w3.org/2000/svg">
<g id="029-badge 1">
<g id="Group">
<path id="Vector" d="M31.9994 40.668L33.9985 53.7212L31.9994 59.0884L20.3643 63.7597C18.2163 64.623 15.8691 63.0375 15.8691 60.7212V42.542C15.8691 41.5075 16.7087 40.668 17.7432 40.668H31.9994Z" fill="#4E855C"/>
<path id="Vector_2" d="M48.1303 42.542V60.7213C48.1303 63.0459 45.7724 64.623 43.6352 63.7598L32 59.0885V40.668H46.2563C47.2907 40.668 48.1303 41.5075 48.1303 42.542Z" fill="#4E855C"/>
<path id="Vector_3" d="M31.9997 0L34.9981 24.4873L31.9997 50.3588C25.8678 50.3588 20.2408 48.1562 15.8694 44.4994C10.341 39.8767 6.82031 32.9316 6.82031 25.1793C6.82019 11.2954 18.1156 0 31.9997 0V0Z" fill="#EDF3EF"/>
<path id="Vector_4" d="M57.1793 25.1795C57.1793 32.9317 53.6586 39.8769 48.1303 44.4995C43.7588 48.1563 38.1318 50.3589 32 50.3589V0C45.8839 0 57.1793 11.2954 57.1793 25.1795Z" fill="#CADACE"/>
<path id="Vector_5" d="M31.9989 8.20117L33.9979 24.2379L31.9989 42.1573C29.5251 42.1573 27.1726 41.6251 25.05 40.6694C19.143 38.0095 15.0215 32.0663 15.0215 25.1799C15.0215 15.8185 22.6375 8.20117 31.9989 8.20117Z" fill="#4E855C"/>
<path id="Vector_6" d="M48.9774 25.1799C48.9774 34.5417 41.361 42.1573 32 42.1573V8.20117C41.3614 8.20117 48.9774 15.8185 48.9774 25.1799Z" fill="#4E855C"/>
<path id="Vector_7" d="M32.0004 15.6582L33.7495 24.4874L32.0004 32.9767L31.9879 32.9729L29.2306 33.8063C27.1348 34.4395 24.9907 32.9401 24.8778 30.7466L24.7167 27.6893L23.1312 25.3281C21.9414 23.5538 22.6733 21.1365 24.6454 20.3195L27.4939 19.14L29.4142 16.86C30.0589 16.0956 31.001 15.6582 32.0004 15.6582Z" fill="#FFCC66"/>
<path id="Vector_8" d="M40.8554 25.347L39.26 27.6895L39.1251 30.7192C39.0256 32.9167 36.8927 34.4401 34.7774 33.8088L32 32.9767V15.6582C33.0162 15.6582 33.961 16.1079 34.5999 16.8775L36.4814 19.1401L39.3449 20.3158C41.335 21.1312 42.0661 23.5729 40.8554 25.347Z" fill="#FFA64D"/>
</g>
</g>
</svg>
