<svg width="64" height="64" viewBox="0 0 64 64" fill="none" xmlns="http://www.w3.org/2000/svg">
<g id="030-feedback 1">
<g id="Group">
<path id="Vector" d="M32.1378 3L35 21.7105L32.1378 61C30.9145 61 29.8332 60.1889 29.3159 58.8816L24.4353 46.545H8.71025C6.66431 46.545 5 44.5816 5 42.1707V7.37425C5 4.96341 6.66431 3 8.71025 3H32.1378Z" fill="#4E855C"/>
<path id="Vector_2" d="M59 7.37425V42.1707C59 44.5816 57.3441 46.545 55.3086 46.545H39.6634L34.8076 58.8816C34.2929 60.1889 33.2171 61 32 61V3H55.3086C57.3441 3 59 4.96341 59 7.37425Z" fill="#4E855C"/>
<g id="Group_2">
<path id="Vector_3" d="M29.7208 12.6667L28.3896 14.2455L26.4121 15.0655C24.6706 15.7852 24.0291 17.9191 25.0771 19.4805L26.1633 21.0992L26.2746 23.2055C26.3742 25.1351 28.2599 26.4621 30.1133 25.903L31.9933 25.3355L32.0008 25.338L34.2508 18.458L32.0008 11.6055C31.1196 11.6055 30.2896 11.9917 29.7208 12.6667Z" fill="#EDF3EF"/>
</g>
<g id="Group_3">
<path id="Vector_4" d="M37.58 15.0617L35.5937 14.2455L34.2925 12.6805C33.7262 12.0005 32.895 11.6092 32.01 11.6055H32V25.338C34.0096 25.9385 34.1946 26.0317 34.755 26.0317C36.3039 26.0317 37.6546 24.8131 37.7275 23.1817L37.82 21.1005L38.9125 19.498C39.9799 17.9322 39.3327 15.7796 37.58 15.0617Z" fill="#CADACE"/>
</g>
<g id="Group_4">
<path id="Vector_5" d="M46.9471 39.4062L45.364 38.9322L43.8002 39.4043C42.2609 39.8689 40.6916 38.7689 40.607 37.1606L40.5149 35.4089L39.6112 34.0625C38.7375 32.7607 39.276 30.9875 40.7218 30.3891L42.3671 29.7078L43.4744 28.3937C44.47 27.2117 46.2911 27.2197 47.2775 28.406C47.2775 28.4061 47.2776 28.4061 47.2776 28.4061L48.36 29.708L50.0125 30.386C51.4725 30.9853 52.0074 32.7753 51.1204 34.0767L50.2124 35.4093L50.1353 37.1405C50.0636 38.7531 48.4958 39.8692 46.9471 39.4062ZM48.462 29.8304H48.463H48.462Z" fill="#FFA64D"/>
</g>
<g id="Group_5">
<path id="Vector_6" d="M20.4795 39.0576L18.9428 38.5974L17.4248 39.0557C15.9304 39.5071 14.4072 38.4385 14.3253 36.8775L14.2358 35.1775L13.3585 33.8704C12.5106 32.6069 13.0332 30.8857 14.4366 30.3047L16.0338 29.6434L17.1085 28.3678C17.5562 27.8362 18.2186 27.5117 18.957 27.5117C20.1613 27.5156 20.8003 28.3799 20.8003 28.3799L21.8509 29.6436L23.4551 30.3018C24.8718 30.8831 25.3915 32.6209 24.5306 33.8841L23.6492 35.1777L23.5743 36.8584C23.5044 38.427 21.9791 39.5058 20.4795 39.0576ZM21.95 29.7624H21.951H21.95Z" fill="#FFCC66"/>
</g>
</g>
</g>
</svg>
