<svg width="21" height="20" viewBox="0 0 21 20" fill="none" xmlns="http://www.w3.org/2000/svg">
<g id="heart 1" clip-path="url(#clip0_3791_29146)">
<path id="Vector" d="M18.9134 3.83508C17.8781 2.71219 16.4575 2.09375 14.913 2.09375C13.7585 2.09375 12.7012 2.45874 11.7704 3.1785C11.3008 3.54181 10.8752 3.9863 10.5 4.5051C10.1249 3.98645 9.69922 3.54181 9.2294 3.1785C8.29877 2.45874 7.24149 2.09375 6.08701 2.09375C4.54251 2.09375 3.12177 2.71219 2.08646 3.83508C1.06351 4.94485 0.5 6.46097 0.5 8.10434C0.5 9.79578 1.13034 11.3441 2.48364 12.9771C3.69427 14.4378 5.43423 15.9207 7.44916 17.6377C8.13718 18.2241 8.91705 18.8888 9.72684 19.5968C9.94077 19.7842 10.2153 19.8873 10.5 19.8873C10.7846 19.8873 11.0592 19.7842 11.2729 19.5971C12.0826 18.8889 12.863 18.224 13.5513 17.6373C15.5659 15.9205 17.3059 14.4378 18.5165 12.9769C19.8698 11.3441 20.5 9.79578 20.5 8.10419C20.5 6.46097 19.9365 4.94485 18.9134 3.83508Z" fill="#4E855C"/>
</g>
<defs>
<clipPath id="clip0_3791_29146">
<rect width="20" height="20" fill="white" transform="translate(0.5)"/>
</clipPath>
</defs>
</svg>
