<svg width="98" height="40" viewBox="0 0 98 40" fill="none" xmlns="http://www.w3.org/2000/svg">
<g id="Logo 142x58 4" clip-path="url(#clip0_68_2452)">
<g id="Group">
<g id="Group_2">
<path id="Vector" d="M20.0141 39.3121C30.6864 39.3121 39.3381 30.6666 39.3381 20.0018C39.3381 9.33694 30.6864 0.691406 20.0141 0.691406C9.34181 0.691406 0.690186 9.33694 0.690186 20.0018C0.690186 30.6666 9.34181 39.3121 20.0141 39.3121Z" fill="#4E855C"/>
<g id="Group_3">
<path id="Vector_2" d="M12.8712 15.6445V17.2859H10.5248V24.3342H8.81321V17.2859H6.47363V15.6445H12.8712Z" fill="white"/>
<path id="Vector_3" d="M17.9437 21.1556C18.5234 21.4383 18.8133 21.9073 18.8133 22.5694C18.8133 23.0935 18.6339 23.5142 18.275 23.8383C17.9161 24.1625 17.4054 24.328 16.7429 24.328H13.4785V18.1211H16.4944C17.1501 18.1211 17.6539 18.2797 18.0196 18.6039C18.3785 18.928 18.558 19.3487 18.558 19.8728C18.551 20.4245 18.344 20.8521 17.9437 21.1556ZM16.3357 19.4452H14.9692V20.5625H16.3357C16.7912 20.5625 17.0189 20.3763 17.0189 20.0039C17.0189 19.6314 16.7912 19.4452 16.3357 19.4452ZM16.5496 22.9832C17.012 22.9832 17.2467 22.7832 17.2467 22.3901C17.2467 22.2176 17.1846 22.0797 17.0603 21.9832C16.9361 21.8866 16.7636 21.8314 16.5496 21.8314H14.9692V22.9832H16.5496Z" fill="white"/>
<path id="Vector_4" d="M25.6043 23.563C24.9694 24.1975 24.1895 24.5147 23.2716 24.5147C22.3538 24.5147 21.5739 24.1975 20.939 23.563C20.304 22.9285 19.9866 22.1561 19.9866 21.232C19.9866 20.3078 20.304 19.5354 20.939 18.9009C21.5739 18.2665 22.3469 17.9492 23.2716 17.9492C24.1964 17.9492 24.9694 18.2665 25.6043 18.9009C26.2392 19.5354 26.5636 20.3078 26.5636 21.232C26.5636 22.1561 26.2392 22.9285 25.6043 23.563ZM22.0708 22.4596C22.3883 22.7837 22.7885 22.9423 23.2716 22.9423C23.7547 22.9423 24.155 22.7837 24.4794 22.4596C24.8038 22.1354 24.9625 21.7285 24.9625 21.232C24.9625 20.7354 24.8038 20.3285 24.4794 20.0044C24.155 19.6803 23.7547 19.5216 23.2716 19.5216C22.7885 19.5216 22.3883 19.6803 22.0708 20.0044C21.7533 20.3285 21.5946 20.7354 21.5946 21.232C21.5946 21.7285 21.7533 22.1423 22.0708 22.4596Z" fill="white"/>
<path id="Vector_5" d="M32.6715 18.1276H33.8654V24.3345H32.2988V20.8104L29.3795 24.3345H28.1855V18.1276H29.7522V21.6518L32.6715 18.1276ZM29.2346 17.3345V15.9414H32.8371V17.3345H29.2346Z" fill="white"/>
</g>
<g id="Group_4">
<path id="Vector_6" d="M49.4278 18.125V24.3319H47.8267V19.6284H45.356V24.3319H43.7549V18.125H49.4278Z" fill="#041F0F"/>
<path id="Vector_7" d="M53.9759 24.5127C53.0373 24.5127 52.2575 24.1954 51.6363 23.5678C51.0083 22.9402 50.6978 22.1609 50.6978 21.2368C50.6978 20.3127 51.0083 19.5334 51.6363 18.9058C52.2644 18.2782 53.0442 17.9609 53.9759 17.9609C54.5832 17.9609 55.1285 18.1058 55.6254 18.3954C56.1223 18.6851 56.5018 19.0713 56.7572 19.5609L55.3769 20.3678C55.2527 20.1127 55.0663 19.9058 54.811 19.7609C54.5556 19.6092 54.2727 19.5402 53.9621 19.5402C53.479 19.5402 53.0856 19.6989 52.7682 20.0161C52.4507 20.3334 52.2989 20.7402 52.2989 21.2368C52.2989 21.7265 52.4576 22.1265 52.7682 22.4437C53.0787 22.7609 53.479 22.9196 53.9621 22.9196C54.2865 22.9196 54.5694 22.8437 54.8248 22.6989C55.0802 22.554 55.2665 22.354 55.3907 22.0989L56.7848 22.892C56.5087 23.3816 56.1292 23.7678 55.6323 24.0644C55.1285 24.3609 54.5763 24.5127 53.9759 24.5127Z" fill="#041F0F"/>
<path id="Vector_8" d="M62.2852 18.125H63.4792V24.3319H61.9126V20.8078L58.9933 24.3319H57.7993V18.125H59.3659V21.6491L62.2852 18.125Z" fill="#041F0F"/>
<path id="Vector_9" d="M70.7945 24.3319H68.9449L67.6061 22.4422L66.2534 24.3319H64.4038L66.6744 21.1664L64.5004 18.125H66.35L67.6061 19.8767L68.8621 18.125H70.6979L68.524 21.1526L70.7945 24.3319Z" fill="#041F0F"/>
<path id="Vector_10" d="M76.5711 23.5591C75.9362 24.1936 75.1563 24.5108 74.2384 24.5108C73.3206 24.5108 72.5407 24.1936 71.9058 23.5591C71.2708 22.9246 70.9534 22.1522 70.9534 21.2281C70.9534 20.3039 71.2708 19.5315 71.9058 18.897C72.5407 18.2626 73.3137 17.9453 74.2384 17.9453C75.1632 17.9453 75.9362 18.2626 76.5711 18.897C77.206 19.5315 77.5304 20.3039 77.5304 21.2281C77.5304 22.1522 77.206 22.9246 76.5711 23.5591ZM73.0376 22.4626C73.3551 22.7867 73.7553 22.9453 74.2384 22.9453C74.7215 22.9453 75.1218 22.7867 75.4462 22.4626C75.7706 22.1384 75.9293 21.7315 75.9293 21.235C75.9293 20.7384 75.7706 20.3315 75.4462 20.0074C75.1218 19.6832 74.7215 19.5246 74.2384 19.5246C73.7553 19.5246 73.3551 19.6832 73.0376 20.0074C72.7201 20.3315 72.5614 20.7384 72.5614 21.235C72.5545 21.7246 72.7201 22.1384 73.0376 22.4626Z" fill="#041F0F"/>
<path id="Vector_11" d="M83.9486 18.125V24.3319H82.3475V19.6629H80.636V21.7388C80.636 23.656 79.7595 24.525 78.0134 24.3319V22.8284C78.3447 22.9112 78.6 22.856 78.7726 22.6629C78.9451 22.4698 79.0348 22.1319 79.0348 21.6491V18.125H83.9486Z" fill="#041F0F"/>
<path id="Vector_12" d="M90.8157 23.5591C90.1807 24.1936 89.4009 24.5108 88.483 24.5108C87.5651 24.5108 86.7853 24.1936 86.1572 23.5591C85.5292 22.9246 85.2048 22.1522 85.2048 21.2281C85.2048 20.3039 85.5223 19.5315 86.1572 18.897C86.7922 18.2626 87.5651 17.9453 88.483 17.9453C89.4009 17.9453 90.1807 18.2626 90.8157 18.897C91.4506 19.5315 91.775 20.3039 91.775 21.2281C91.775 22.1522 91.4575 22.9246 90.8157 23.5591ZM87.2822 22.4626C87.5996 22.7867 87.9999 22.9453 88.483 22.9453C88.9661 22.9453 89.3664 22.7867 89.6908 22.4626C90.0151 22.1384 90.1739 21.7315 90.1739 21.235C90.1739 20.7384 90.0151 20.3315 89.6908 20.0074C89.3664 19.6832 88.9661 19.5246 88.483 19.5246C87.9999 19.5246 87.6065 19.6832 87.2822 20.0074C86.9647 20.3315 86.806 20.7384 86.806 21.235C86.806 21.7246 86.9647 22.1384 87.2822 22.4626Z" fill="#041F0F"/>
<path id="Vector_13" d="M97.2754 18.125V19.6629H94.6321V24.3319H93.031V18.125H97.2754Z" fill="#041F0F"/>
</g>
</g>
</g>
</g>
<defs>
<clipPath id="clip0_68_2452">
<rect width="98" height="40" fill="white"/>
</clipPath>
</defs>
</svg>
