<svg width="200" height="56" viewBox="0 0 200 56" fill="none" xmlns="http://www.w3.org/2000/svg">
<path d="M28 56C43.464 56 56 43.464 56 28C56 12.536 43.464 0 28 0C12.536 0 0 12.536 0 28C0 43.464 12.536 56 28 56Z" fill="#4E855C"/>
<path d="M17.6499 21.6797V24.0597H14.2499V34.2797H11.7699V24.0597H8.37988V21.6797H17.6499Z" fill="white"/>
<path d="M24.9998 29.6695C25.8398 30.0795 26.2598 30.7595 26.2598 31.7195C26.2598 32.4795 25.9998 33.0895 25.4798 33.5595C24.9598 34.0295 24.2198 34.2695 23.2598 34.2695H18.5298V25.2695H22.8998C23.8498 25.2695 24.5798 25.4995 25.1098 25.9695C25.6298 26.4395 25.8898 27.0495 25.8898 27.8095C25.8798 28.6095 25.5798 29.2295 24.9998 29.6695ZM22.6698 27.1895H20.6898V28.8095H22.6698C23.3298 28.8095 23.6598 28.5395 23.6598 27.9995C23.6598 27.4595 23.3298 27.1895 22.6698 27.1895ZM22.9798 32.3195C23.6498 32.3195 23.9898 32.0295 23.9898 31.4595C23.9898 31.2095 23.8998 31.0095 23.7198 30.8695C23.5398 30.7295 23.2898 30.6495 22.9798 30.6495H20.6898V32.3195H22.9798Z" fill="white"/>
<path d="M36.1 33.1595C35.18 34.0795 34.05 34.5395 32.72 34.5395C31.39 34.5395 30.26 34.0795 29.34 33.1595C28.42 32.2395 27.96 31.1195 27.96 29.7795C27.96 28.4395 28.42 27.3195 29.34 26.3995C30.26 25.4795 31.38 25.0195 32.72 25.0195C34.06 25.0195 35.18 25.4795 36.1 26.3995C37.02 27.3195 37.49 28.4395 37.49 29.7795C37.49 31.1195 37.02 32.2395 36.1 33.1595ZM30.98 31.5595C31.44 32.0295 32.02 32.2595 32.72 32.2595C33.42 32.2595 34 32.0295 34.47 31.5595C34.94 31.0895 35.17 30.4995 35.17 29.7795C35.17 29.0595 34.94 28.4695 34.47 27.9995C34 27.5295 33.42 27.2995 32.72 27.2995C32.02 27.2995 31.44 27.5295 30.98 27.9995C30.52 28.4695 30.29 29.0595 30.29 29.7795C30.29 30.4995 30.52 31.0995 30.98 31.5595Z" fill="white"/>
<path d="M46.3398 25.2794H48.0698V34.2794H45.7998V29.1694L41.5698 34.2794H39.8398V25.2794H42.1098V30.3894L46.3398 25.2794ZM41.3598 24.1294V22.1094H46.5798V24.1294H41.3598Z" fill="white"/>
<path d="M74.6199 24.2812V33.2812H72.2999V26.4612H68.7199V33.2812H66.3999V24.2812H74.6199Z" fill="#041F0F"/>
<path d="M81.21 33.5391C79.85 33.5391 78.72 33.0791 77.82 32.1691C76.91 31.2591 76.46 30.1291 76.46 28.7891C76.46 27.4491 76.91 26.3191 77.82 25.4091C78.73 24.4991 79.86 24.0391 81.21 24.0391C82.09 24.0391 82.88 24.2491 83.6 24.6691C84.32 25.0891 84.87 25.6491 85.24 26.3591L83.24 27.5291C83.06 27.1591 82.79 26.8591 82.42 26.6491C82.05 26.4291 81.64 26.3291 81.19 26.3291C80.49 26.3291 79.92 26.5591 79.46 27.0191C79 27.4791 78.78 28.0691 78.78 28.7891C78.78 29.4991 79.01 30.0791 79.46 30.5391C79.91 30.9991 80.49 31.2291 81.19 31.2291C81.66 31.2291 82.07 31.1191 82.44 30.9091C82.81 30.6991 83.08 30.4091 83.26 30.0391L85.28 31.1891C84.88 31.8991 84.33 32.4591 83.61 32.8891C82.88 33.3191 82.08 33.5391 81.21 33.5391Z" fill="#041F0F"/>
<path d="M93.25 24.2812H94.98V33.2812H92.71V28.1712L88.48 33.2812H86.75V24.2812H89.02V29.3912L93.25 24.2812Z" fill="#041F0F"/>
<path d="M105.58 33.2812H102.9L100.96 30.5413L98.9998 33.2812H96.3198L99.6098 28.6912L96.4598 24.2812H99.1398L100.96 26.8212L102.78 24.2812H105.44L102.29 28.6712L105.58 33.2812Z" fill="#041F0F"/>
<path d="M113.95 32.1595C113.03 33.0795 111.9 33.5395 110.57 33.5395C109.24 33.5395 108.11 33.0795 107.19 32.1595C106.27 31.2395 105.81 30.1195 105.81 28.7795C105.81 27.4395 106.27 26.3195 107.19 25.3995C108.11 24.4795 109.23 24.0195 110.57 24.0195C111.91 24.0195 113.03 24.4795 113.95 25.3995C114.87 26.3195 115.34 27.4395 115.34 28.7795C115.34 30.1195 114.87 31.2395 113.95 32.1595ZM108.83 30.5695C109.29 31.0395 109.87 31.2695 110.57 31.2695C111.27 31.2695 111.85 31.0395 112.32 30.5695C112.79 30.0995 113.02 29.5095 113.02 28.7895C113.02 28.0695 112.79 27.4795 112.32 27.0095C111.85 26.5395 111.27 26.3095 110.57 26.3095C109.87 26.3095 109.29 26.5395 108.83 27.0095C108.37 27.4795 108.14 28.0695 108.14 28.7895C108.13 29.4995 108.37 30.0995 108.83 30.5695Z" fill="#041F0F"/>
<path d="M124.64 24.2812V33.2812H122.32V26.5112H119.84V29.5212C119.84 32.3012 118.57 33.5612 116.04 33.2812V31.1012C116.52 31.2212 116.89 31.1413 117.14 30.8612C117.39 30.5812 117.52 30.0912 117.52 29.3912V24.2812H124.64Z" fill="#041F0F"/>
<path d="M134.59 32.1595C133.67 33.0795 132.54 33.5395 131.21 33.5395C129.88 33.5395 128.75 33.0795 127.84 32.1595C126.93 31.2395 126.46 30.1195 126.46 28.7795C126.46 27.4395 126.92 26.3195 127.84 25.3995C128.76 24.4795 129.88 24.0195 131.21 24.0195C132.54 24.0195 133.67 24.4795 134.59 25.3995C135.51 26.3195 135.98 27.4395 135.98 28.7795C135.98 30.1195 135.52 31.2395 134.59 32.1595ZM129.47 30.5695C129.93 31.0395 130.51 31.2695 131.21 31.2695C131.91 31.2695 132.49 31.0395 132.96 30.5695C133.43 30.0995 133.66 29.5095 133.66 28.7895C133.66 28.0695 133.43 27.4795 132.96 27.0095C132.49 26.5395 131.91 26.3095 131.21 26.3095C130.51 26.3095 129.94 26.5395 129.47 27.0095C129.01 27.4795 128.78 28.0695 128.78 28.7895C128.78 29.4995 129.01 30.0995 129.47 30.5695Z" fill="#041F0F"/>
<path d="M143.95 24.2812V26.5112H140.12V33.2812H137.8V24.2812H143.95Z" fill="#041F0F"/>
<path d="M66.792 41H71.988V47H70.944V41.996H67.836V47H66.792V41ZM78.7612 46.244C78.1532 46.852 77.4052 47.156 76.5172 47.156C75.6292 47.156 74.8812 46.852 74.2732 46.244C73.6652 45.636 73.3612 44.888 73.3612 44C73.3612 43.112 73.6652 42.364 74.2732 41.756C74.8812 41.148 75.6292 40.844 76.5172 40.844C77.4052 40.844 78.1532 41.148 78.7612 41.756C79.3772 42.372 79.6852 43.12 79.6852 44C79.6852 44.88 79.3772 45.628 78.7612 46.244ZM76.5172 46.136C77.1172 46.136 77.6212 45.932 78.0292 45.524C78.4372 45.116 78.6412 44.608 78.6412 44C78.6412 43.392 78.4372 42.884 78.0292 42.476C77.6212 42.068 77.1172 41.864 76.5172 41.864C75.9252 41.864 75.4252 42.068 75.0172 42.476C74.6092 42.884 74.4052 43.392 74.4052 44C74.4052 44.608 74.6092 45.116 75.0172 45.524C75.4252 45.932 75.9252 46.136 76.5172 46.136ZM85.9199 41H87.0359V47H86.0159V42.644L84.1079 45.716H83.9759L82.0679 42.644V47H81.0359V41H82.1519L84.0359 44.036L85.9199 41ZM93.8137 46.244C93.2057 46.852 92.4577 47.156 91.5697 47.156C90.6817 47.156 89.9337 46.852 89.3257 46.244C88.7177 45.636 88.4137 44.888 88.4137 44C88.4137 43.112 88.7177 42.364 89.3257 41.756C89.9337 41.148 90.6817 40.844 91.5697 40.844C92.4577 40.844 93.2057 41.148 93.8137 41.756C94.4297 42.372 94.7377 43.12 94.7377 44C94.7377 44.88 94.4297 45.628 93.8137 46.244ZM91.5697 46.136C92.1697 46.136 92.6737 45.932 93.0817 45.524C93.4897 45.116 93.6937 44.608 93.6937 44C93.6937 43.392 93.4897 42.884 93.0817 42.476C92.6737 42.068 92.1697 41.864 91.5697 41.864C90.9777 41.864 90.4777 42.068 90.0697 42.476C89.6617 42.884 89.4577 43.392 89.4577 44C89.4577 44.608 89.6617 45.116 90.0697 45.524C90.4777 45.932 90.9777 46.136 91.5697 46.136ZM104.248 41V46.004H105.076V48.608H104.044V47H96.0884V41H97.1324V46.004H99.6524V41H100.696V46.004H103.204V41H104.248ZM107.366 43.16H108.854C109.454 43.16 109.95 43.34 110.342 43.7C110.742 44.052 110.942 44.512 110.942 45.08C110.942 45.648 110.742 46.112 110.342 46.472C109.942 46.824 109.446 47 108.854 47H106.322V41H107.366V43.16ZM107.366 46.028H108.854C109.158 46.028 109.41 45.94 109.61 45.764C109.81 45.588 109.91 45.36 109.91 45.08C109.91 44.8 109.806 44.572 109.598 44.396C109.398 44.212 109.15 44.12 108.854 44.12H107.366V46.028ZM120.368 46.244C119.76 46.852 119.012 47.156 118.124 47.156C117.236 47.156 116.488 46.852 115.88 46.244C115.272 45.636 114.968 44.888 114.968 44C114.968 43.112 115.272 42.364 115.88 41.756C116.488 41.148 117.236 40.844 118.124 40.844C119.012 40.844 119.76 41.148 120.368 41.756C120.984 42.372 121.292 43.12 121.292 44C121.292 44.88 120.984 45.628 120.368 46.244ZM118.124 46.136C118.724 46.136 119.228 45.932 119.636 45.524C120.044 45.116 120.248 44.608 120.248 44C120.248 43.392 120.044 42.884 119.636 42.476C119.228 42.068 118.724 41.864 118.124 41.864C117.532 41.864 117.032 42.068 116.624 42.476C116.216 42.884 116.012 43.392 116.012 44C116.012 44.608 116.216 45.116 116.624 45.524C117.032 45.932 117.532 46.136 118.124 46.136ZM126.294 43.868V41H127.338V47H126.294V44.84C125.806 45.048 125.266 45.152 124.674 45.152C123.898 45.152 123.302 44.968 122.886 44.6C122.47 44.232 122.262 43.696 122.262 42.992V41H123.306V42.932C123.306 43.372 123.422 43.692 123.654 43.892C123.894 44.084 124.258 44.18 124.746 44.18C125.298 44.18 125.814 44.076 126.294 43.868ZM133.196 43.496V41H134.24V47H133.196V44.492H130.088V47H129.044V41H130.088V43.496H133.196ZM141.013 46.244C140.405 46.852 139.657 47.156 138.769 47.156C137.881 47.156 137.133 46.852 136.525 46.244C135.917 45.636 135.613 44.888 135.613 44C135.613 43.112 135.917 42.364 136.525 41.756C137.133 41.148 137.881 40.844 138.769 40.844C139.657 40.844 140.405 41.148 141.013 41.756C141.629 42.372 141.937 43.12 141.937 44C141.937 44.88 141.629 45.628 141.013 46.244ZM138.769 46.136C139.369 46.136 139.873 45.932 140.281 45.524C140.689 45.116 140.893 44.608 140.893 44C140.893 43.392 140.689 42.884 140.281 42.476C139.873 42.068 139.369 41.864 138.769 41.864C138.177 41.864 137.677 42.068 137.269 42.476C136.861 42.884 136.657 43.392 136.657 44C136.657 44.608 136.861 45.116 137.269 45.524C137.677 45.932 138.177 46.136 138.769 46.136ZM147.44 45.212L150.764 41H151.604V47H150.572V42.788L147.248 47H146.408V41H147.44V45.212ZM161.497 46.244C160.889 46.852 160.141 47.156 159.253 47.156C158.365 47.156 157.617 46.852 157.009 46.244C156.401 45.636 156.097 44.888 156.097 44C156.097 43.112 156.401 42.364 157.009 41.756C157.617 41.148 158.365 40.844 159.253 40.844C160.141 40.844 160.889 41.148 161.497 41.756C162.113 42.372 162.421 43.12 162.421 44C162.421 44.88 162.113 45.628 161.497 46.244ZM159.253 46.136C159.853 46.136 160.357 45.932 160.765 45.524C161.173 45.116 161.377 44.608 161.377 44C161.377 43.392 161.173 42.884 160.765 42.476C160.357 42.068 159.853 41.864 159.253 41.864C158.661 41.864 158.161 42.068 157.753 42.476C157.345 42.884 157.141 43.392 157.141 44C157.141 44.608 157.345 45.116 157.753 45.524C158.161 45.932 158.661 46.136 159.253 46.136ZM167.924 43.496V41H168.968V47H167.924V44.492H164.816V47H163.772V41H164.816V43.496H167.924ZM171.229 41H175.681V47H174.637V42.008H172.273V44.456C172.273 45.416 172.081 46.1 171.697 46.508C171.313 46.908 170.749 47.072 170.005 47V46.016C170.421 46.072 170.729 45.98 170.929 45.74C171.129 45.492 171.229 45.056 171.229 44.432V41ZM182.351 42.032V41H183.395V47H182.351V45.968C181.839 46.76 181.083 47.156 180.083 47.156C179.235 47.156 178.519 46.852 177.935 46.244C177.343 45.628 177.047 44.88 177.047 44C177.047 43.128 177.343 42.384 177.935 41.768C178.527 41.152 179.243 40.844 180.083 40.844C181.083 40.844 181.839 41.24 182.351 42.032ZM180.215 46.148C180.823 46.148 181.331 45.944 181.739 45.536C182.147 45.112 182.351 44.6 182.351 44C182.351 43.392 182.147 42.884 181.739 42.476C181.331 42.06 180.823 41.852 180.215 41.852C179.615 41.852 179.111 42.06 178.703 42.476C178.295 42.884 178.091 43.392 178.091 44C178.091 44.6 178.295 45.112 178.703 45.536C179.111 45.944 179.615 46.148 180.215 46.148ZM189.321 40.1H186.081V39.188H189.321V40.1ZM186.129 45.212L189.453 41H190.293V47H189.261V42.788L185.937 47H185.097V41H186.129V45.212ZM196.154 43.496V41H197.198V47H196.154V44.492H193.046V47H192.002V41H193.046V43.496H196.154Z" fill="#7C7C7C"/>
</svg>
