<svg width="98" height="40" viewBox="0 0 98 40" fill="none" xmlns="http://www.w3.org/2000/svg">
<g id="Logo 142x58 4" clip-path="url(#clip0_3605_62340)">
<g id="Group">
<g id="Group_2">
<path id="Vector" d="M20.0154 39.3121C30.6877 39.3121 39.3393 30.6666 39.3393 20.0018C39.3393 9.33694 30.6877 0.691406 20.0154 0.691406C9.34303 0.691406 0.691406 9.33694 0.691406 20.0018C0.691406 30.6666 9.34303 39.3121 20.0154 39.3121Z" fill="white"/>
<g id="Group_3">
<path id="Vector_2" d="M12.8742 15.6445V17.2859H10.5277V24.3342H8.81614V17.2859H6.47656V15.6445H12.8742Z" fill="#4E855C"/>
<path id="Vector_3" d="M17.9457 21.1556C18.5254 21.4383 18.8153 21.9073 18.8153 22.5694C18.8153 23.0935 18.6358 23.5142 18.2769 23.8383C17.9181 24.1625 17.4074 24.328 16.7448 24.328H13.4805V18.1211H16.4964C17.152 18.1211 17.6558 18.2797 18.0216 18.6039C18.3805 18.928 18.5599 19.3487 18.5599 19.8728C18.553 20.4245 18.346 20.8521 17.9457 21.1556ZM16.3377 19.4452H14.9712V20.5625H16.3377C16.7931 20.5625 17.0209 20.3763 17.0209 20.0039C17.0209 19.6314 16.7931 19.4452 16.3377 19.4452ZM16.5516 22.9832C17.014 22.9832 17.2486 22.7832 17.2486 22.3901C17.2486 22.2176 17.1865 22.0797 17.0623 21.9832C16.9381 21.8866 16.7655 21.8314 16.5516 21.8314H14.9712V22.9832H16.5516Z" fill="#4E855C"/>
<path id="Vector_4" d="M25.606 23.563C24.9711 24.1975 24.1912 24.5147 23.2734 24.5147C22.3555 24.5147 21.5756 24.1975 20.9407 23.563C20.3057 22.9285 19.9883 22.1561 19.9883 21.232C19.9883 20.3078 20.3057 19.5354 20.9407 18.9009C21.5756 18.2665 22.3486 17.9492 23.2734 17.9492C24.1981 17.9492 24.9711 18.2665 25.606 18.9009C26.241 19.5354 26.5653 20.3078 26.5653 21.232C26.5653 22.1561 26.241 22.9285 25.606 23.563ZM22.0725 22.4596C22.39 22.7837 22.7903 22.9423 23.2734 22.9423C23.7565 22.9423 24.1567 22.7837 24.4811 22.4596C24.8055 22.1354 24.9642 21.7285 24.9642 21.232C24.9642 20.7354 24.8055 20.3285 24.4811 20.0044C24.1567 19.6803 23.7565 19.5216 23.2734 19.5216C22.7903 19.5216 22.39 19.6803 22.0725 20.0044C21.755 20.3285 21.5963 20.7354 21.5963 21.232C21.5963 21.7285 21.755 22.1423 22.0725 22.4596Z" fill="#4E855C"/>
<path id="Vector_5" d="M32.6734 18.1276H33.8674V24.3345H32.3007V20.8104L29.3814 24.3345H28.1875V18.1276H29.7541V21.6518L32.6734 18.1276ZM29.2365 17.3345V15.9414H32.8391V17.3345H29.2365Z" fill="#4E855C"/>
</g>
<g id="Group_4">
<path id="Vector_6" d="M49.4308 18.125V24.3319H47.8296V19.6284H45.3589V24.3319H43.7578V18.125H49.4308Z" fill="white"/>
<path id="Vector_7" d="M53.9774 24.5127C53.0388 24.5127 52.2589 24.1954 51.6378 23.5678C51.0098 22.9402 50.6992 22.1609 50.6992 21.2368C50.6992 20.3127 51.0098 19.5334 51.6378 18.9058C52.2658 18.2782 53.0457 17.9609 53.9774 17.9609C54.5847 17.9609 55.1299 18.1058 55.6268 18.3954C56.1237 18.6851 56.5033 19.0713 56.7587 19.5609L55.3784 20.3678C55.2541 20.1127 55.0678 19.9058 54.8125 19.7609C54.5571 19.6092 54.2742 19.5402 53.9636 19.5402C53.4805 19.5402 53.0871 19.6989 52.7696 20.0161C52.4522 20.3334 52.3003 20.7402 52.3003 21.2368C52.3003 21.7265 52.4591 22.1265 52.7696 22.4437C53.0802 22.7609 53.4805 22.9196 53.9636 22.9196C54.288 22.9196 54.5709 22.8437 54.8263 22.6989C55.0816 22.554 55.268 22.354 55.3922 22.0989L56.7863 22.892C56.5102 23.3816 56.1306 23.7678 55.6337 24.0644C55.1299 24.3609 54.5778 24.5127 53.9774 24.5127Z" fill="white"/>
<path id="Vector_8" d="M62.2867 18.125H63.4806V24.3319H61.914V20.8078L58.9947 24.3319H57.8008V18.125H59.3674V21.6491L62.2867 18.125Z" fill="white"/>
<path id="Vector_9" d="M70.797 24.3319H68.9474L67.6085 22.4422L66.2558 24.3319H64.4062L66.6768 21.1664L64.5029 18.125H66.3524L67.6085 19.8767L68.8646 18.125H70.7003L68.5264 21.1526L70.797 24.3319Z" fill="white"/>
<path id="Vector_10" d="M76.5748 23.5591C75.9398 24.1936 75.16 24.5108 74.2421 24.5108C73.3242 24.5108 72.5444 24.1936 71.9094 23.5591C71.2745 22.9246 70.957 22.1522 70.957 21.2281C70.957 20.3039 71.2745 19.5315 71.9094 18.897C72.5444 18.2626 73.3173 17.9453 74.2421 17.9453C75.1669 17.9453 75.9398 18.2626 76.5748 18.897C77.2097 19.5315 77.5341 20.3039 77.5341 21.2281C77.5341 22.1522 77.2097 22.9246 76.5748 23.5591ZM73.0413 22.4626C73.3587 22.7867 73.759 22.9453 74.2421 22.9453C74.7252 22.9453 75.1255 22.7867 75.4498 22.4626C75.7742 22.1384 75.9329 21.7315 75.9329 21.235C75.9329 20.7384 75.7742 20.3315 75.4498 20.0074C75.1255 19.6832 74.7252 19.5246 74.2421 19.5246C73.759 19.5246 73.3587 19.6832 73.0413 20.0074C72.7238 20.3315 72.5651 20.7384 72.5651 21.235C72.5582 21.7246 72.7238 22.1384 73.0413 22.4626Z" fill="white"/>
<path id="Vector_11" d="M83.9508 18.125V24.3319H82.3497V19.6629H80.6382V21.7388C80.6382 23.656 79.7617 24.525 78.0156 24.3319V22.8284C78.3469 22.9112 78.6022 22.856 78.7748 22.6629C78.9473 22.4698 79.037 22.1319 79.037 21.6491V18.125H83.9508Z" fill="white"/>
<path id="Vector_12" d="M90.8179 23.5591C90.1829 24.1936 89.4031 24.5108 88.4852 24.5108C87.5673 24.5108 86.7875 24.1936 86.1594 23.5591C85.5314 22.9246 85.207 22.1522 85.207 21.2281C85.207 20.3039 85.5245 19.5315 86.1594 18.897C86.7944 18.2626 87.5673 17.9453 88.4852 17.9453C89.4031 17.9453 90.1829 18.2626 90.8179 18.897C91.4528 19.5315 91.7772 20.3039 91.7772 21.2281C91.7772 22.1522 91.4597 22.9246 90.8179 23.5591ZM87.2844 22.4626C87.6018 22.7867 88.0021 22.9453 88.4852 22.9453C88.9683 22.9453 89.3686 22.7867 89.693 22.4626C90.0173 22.1384 90.176 21.7315 90.176 21.235C90.176 20.7384 90.0173 20.3315 89.693 20.0074C89.3686 19.6832 88.9683 19.5246 88.4852 19.5246C88.0021 19.5246 87.6087 19.6832 87.2844 20.0074C86.9669 20.3315 86.8082 20.7384 86.8082 21.235C86.8082 21.7246 86.9669 22.1384 87.2844 22.4626Z" fill="white"/>
<path id="Vector_13" d="M97.2795 18.125V19.6629H94.6363V24.3319H93.0352V18.125H97.2795Z" fill="white"/>
</g>
</g>
</g>
</g>
<defs>
<clipPath id="clip0_3605_62340">
<rect width="98" height="40" fill="white"/>
</clipPath>
</defs>
</svg>
