<svg width="148" height="58" viewBox="0 0 148 58" fill="none" xmlns="http://www.w3.org/2000/svg">
<g id="logo">
<path id="Vector" d="M28.7878 58C44.6868 58 57.5756 45.0163 57.5756 29C57.5756 12.9837 44.6868 0 28.7878 0C12.8887 0 0 12.9837 0 29C0 45.0163 12.8887 58 28.7878 58Z" fill="#4E855C"/>
<g id="Group">
<path id="Vector_2" d="M18.146 22.4551V24.9201H14.6504V35.5051H12.1006V24.9201H8.61523V22.4551H18.146Z" fill="white"/>
<path id="Vector_3" d="M25.7028 30.731C26.5664 31.1556 26.9983 31.8599 26.9983 32.8542C26.9983 33.6413 26.7309 34.2731 26.1963 34.7599C25.6617 35.2467 24.9009 35.4953 23.9139 35.4953H19.0508V26.1738H23.5437C24.5205 26.1738 25.271 26.412 25.8159 26.8988C26.3505 27.3856 26.6179 28.0174 26.6179 28.8045C26.6076 29.6331 26.2991 30.2753 25.7028 30.731ZM23.3073 28.1624H21.2716V29.8403H23.3073C23.9858 29.8403 24.3251 29.5606 24.3251 29.0013C24.3251 28.442 23.9858 28.1624 23.3073 28.1624ZM23.626 33.4756C24.3148 33.4756 24.6644 33.1753 24.6644 32.5849C24.6644 32.326 24.5719 32.1188 24.3868 31.9738C24.2017 31.8288 23.9447 31.746 23.626 31.746H21.2716V33.4756H23.626Z" fill="white"/>
<path id="Vector_4" d="M37.1151 34.3448C36.1692 35.2976 35.0074 35.7741 33.64 35.7741C32.2726 35.7741 31.1108 35.2976 30.1649 34.3448C29.219 33.3919 28.7461 32.2319 28.7461 30.8441C28.7461 29.4562 29.219 28.2962 30.1649 27.3433C31.1108 26.3905 32.2623 25.9141 33.64 25.9141C35.0177 25.9141 36.1692 26.3905 37.1151 27.3433C38.061 28.2962 38.5442 29.4562 38.5442 30.8441C38.5442 32.2319 38.061 33.3919 37.1151 34.3448ZM31.8511 32.6876C32.324 33.1744 32.9203 33.4126 33.64 33.4126C34.3597 33.4126 34.956 33.1744 35.4393 32.6876C35.9225 32.2008 36.1589 31.5898 36.1589 30.8441C36.1589 30.0983 35.9225 29.4873 35.4393 29.0005C34.956 28.5137 34.3597 28.2755 33.64 28.2755C32.9203 28.2755 32.324 28.5137 31.8511 29.0005C31.3781 29.4873 31.1416 30.0983 31.1416 30.8441C31.1416 31.5898 31.3781 32.2112 31.8511 32.6876Z" fill="white"/>
<path id="Vector_5" d="M47.6438 26.1836H49.4225V35.505H47.0886V30.2125L42.7396 35.505H40.9609V26.1836H43.2948V31.4761L47.6438 26.1836ZM42.5237 24.9925V22.9004H47.8906V24.9925H42.5237Z" fill="white"/>
</g>
<g id="Group_2">
<path id="Vector_6" d="M76.7188 25.1465V34.4679H74.3336V27.4043H70.6529V34.4679H68.2676V25.1465H76.7188Z" fill="#041F0F"/>
<path id="Vector_7" d="M83.495 34.7358C82.0967 34.7358 80.9349 34.2593 80.0096 33.3168C79.074 32.3743 78.6113 31.204 78.6113 29.8161C78.6113 28.4283 79.074 27.2579 80.0096 26.3154C80.9452 25.3729 82.107 24.8965 83.495 24.8965C84.3997 24.8965 85.212 25.114 85.9522 25.549C86.6925 25.984 87.2579 26.564 87.6384 27.2993L85.5821 28.5111C85.397 28.1279 85.1194 27.8172 84.739 27.5997C84.3586 27.3718 83.9371 27.2683 83.4744 27.2683C82.7547 27.2683 82.1687 27.5065 81.6957 27.9829C81.2228 28.4593 80.9966 29.0704 80.9966 29.8161C80.9966 30.5515 81.2331 31.1522 81.6957 31.6286C82.1584 32.1051 82.7547 32.3433 83.4744 32.3433C83.9576 32.3433 84.3792 32.2293 84.7596 32.0118C85.14 31.7943 85.4176 31.494 85.6026 31.1108L87.6795 32.3018C87.2682 33.0372 86.7028 33.6172 85.9625 34.0626C85.212 34.5079 84.3894 34.7358 83.495 34.7358Z" fill="#041F0F"/>
<path id="Vector_8" d="M95.8723 25.1465H97.651V34.4679H95.3171V29.1754L90.9681 34.4679H89.1895V25.1465H91.5233V30.439L95.8723 25.1465Z" fill="#041F0F"/>
<path id="Vector_9" d="M108.55 34.4679H105.794L103.8 31.6301L101.785 34.4679H99.0293L102.412 29.714L99.1732 25.1465H101.929L103.8 27.7772L105.671 25.1465H108.406L105.167 29.6933L108.55 34.4679Z" fill="#041F0F"/>
<path id="Vector_10" d="M117.156 33.3077C116.21 34.2605 115.048 34.737 113.681 34.737C112.314 34.737 111.152 34.2605 110.206 33.3077C109.26 32.3548 108.787 31.1948 108.787 29.807C108.787 28.4191 109.26 27.2591 110.206 26.3062C111.152 25.3534 112.303 24.877 113.681 24.877C115.059 24.877 116.21 25.3534 117.156 26.3062C118.102 27.2591 118.585 28.4191 118.585 29.807C118.585 31.1948 118.102 32.3548 117.156 33.3077ZM111.892 31.6609C112.365 32.1477 112.961 32.3859 113.681 32.3859C114.401 32.3859 114.997 32.1477 115.48 31.6609C115.963 31.1741 116.2 30.563 116.2 29.8173C116.2 29.0716 115.963 28.4605 115.48 27.9737C114.997 27.487 114.401 27.2487 113.681 27.2487C112.961 27.2487 112.365 27.487 111.892 27.9737C111.419 28.4605 111.183 29.0716 111.183 29.8173C111.172 30.5527 111.419 31.1741 111.892 31.6609Z" fill="#041F0F"/>
<path id="Vector_11" d="M128.147 25.1465V34.4679H125.761V27.4561H123.212V30.5736C123.212 33.4529 121.906 34.7579 119.305 34.4679V32.2101C119.798 32.3343 120.179 32.2515 120.436 31.9615C120.693 31.6715 120.826 31.164 120.826 30.439V25.1465H128.147Z" fill="#041F0F"/>
<path id="Vector_12" d="M138.376 33.3077C137.43 34.2605 136.269 34.737 134.901 34.737C133.534 34.737 132.372 34.2605 131.436 33.3077C130.501 32.3548 130.018 31.1948 130.018 29.807C130.018 28.4191 130.491 27.2591 131.436 26.3062C132.382 25.3534 133.534 24.877 134.901 24.877C136.269 24.877 137.43 25.3534 138.376 26.3062C139.322 27.2591 139.805 28.4191 139.805 29.807C139.805 31.1948 139.332 32.3548 138.376 33.3077ZM133.112 31.6609C133.585 32.1477 134.182 32.3859 134.901 32.3859C135.621 32.3859 136.217 32.1477 136.7 31.6609C137.184 31.1741 137.42 30.563 137.42 29.8173C137.42 29.0716 137.184 28.4605 136.7 27.9737C136.217 27.487 135.621 27.2487 134.901 27.2487C134.182 27.2487 133.595 27.487 133.112 27.9737C132.639 28.4605 132.403 29.0716 132.403 29.8173C132.403 30.5527 132.639 31.1741 133.112 31.6609Z" fill="#041F0F"/>
<path id="Vector_13" d="M148.001 25.1465V27.4561H144.063V34.4679H141.678V25.1465H148.001Z" fill="#041F0F"/>
</g>
</g>
</svg>
