<svg width="24" height="24" viewBox="0 0 24 24" fill="none" xmlns="http://www.w3.org/2000/svg">
<g id="cross">
<path id="Union" fill-rule="evenodd" clip-rule="evenodd" d="M17.9703 6.65605C18.3608 7.04656 18.3608 7.67972 17.9703 8.07026L13.7281 12.3128L17.9705 16.5555C18.361 16.9461 18.3609 17.5793 17.9704 17.9698C17.5798 18.3603 16.9467 18.3602 16.5562 17.9697L12.3136 13.7267L8.0709 17.9698C7.68039 18.3604 7.04722 18.3604 6.65668 17.9699C6.26614 17.5794 6.26611 16.9462 6.65662 16.5557L10.8988 12.3131L6.6565 8.07038C6.26599 7.67984 6.26602 7.04668 6.65656 6.65617C7.04711 6.26566 7.68027 6.26569 8.07078 6.65623L12.3134 10.8992L16.5561 6.65611C16.9466 6.26557 17.5797 6.26554 17.9703 6.65605Z" fill="#7C7C7C"/>
</g>
</svg>
