<svg width="296" height="206" viewBox="0 0 296 206" fill="none" xmlns="http://www.w3.org/2000/svg">
<g clip-path="url(#clip0_3605_62593)">
<path d="M239.66 108.198C230.934 105.243 233.015 97.418 227.332 100.852C223.169 103.327 222.769 102.289 220.848 100.931C207.239 91.1897 215.564 87.836 205.558 99.0949C197.873 107.639 197.873 106.441 198.193 107.958C198.514 109.475 199.314 110.993 199.154 112.43C198.834 116.582 196.352 119.457 192.43 120.894C191.709 121.133 191.389 121.293 191.709 122.172C192.83 125.845 191.629 128.879 189.148 131.354C188.347 131.993 186.106 132.472 186.506 133.51C187.627 137.742 184.745 141.655 180.903 142.374C177.38 143.252 180.342 149.241 171.697 151.876L169.615 152.834C166.333 153.792 169.135 159.462 161.77 160.899C159.289 161.378 156.887 160.819 155.526 158.104C155.446 157.944 155.046 157.865 154.886 157.944C151.684 160.26 146.801 159.222 145.6 156.826C145.52 156.667 144.96 156.667 144.72 156.747C140.237 160.579 131.271 158.264 132.712 152.515C132.792 152.115 133.032 151.636 132.712 151.317C132.392 150.997 131.992 151.556 131.671 151.876C117.342 161.617 114.38 142.613 107.656 141.415C103.253 140.537 93.3272 137.583 82.2001 140.936C78.5178 142.054 78.758 142.134 78.9981 145.088C79.0782 145.887 79.5585 156.826 77.6373 157.306C67.1506 159.621 68.7517 157.385 68.0312 163.294C67.9511 163.694 67.9511 164.013 67.8711 164.332C76.4365 169.363 85.8024 173.036 95.4085 176.07C107.816 179.983 120.624 182.858 133.673 183.017C151.764 183.177 169.535 178.146 185.946 170.96C197.313 166.009 208.28 159.861 217.245 151.636C225.651 143.891 232.215 134.309 236.618 124.008C238.859 118.818 240.54 113.468 241.821 108.118C241.02 108.916 241.101 108.677 239.66 108.198Z" fill="#FFE8D4"/>
<path d="M63.9481 97.0976C68.9112 98.5349 94.1273 74.8992 111.338 72.0246C113.66 71.6254 123.506 71.5455 124.547 71.6254C132.552 72.0246 126.388 74.5798 136.154 64.918C152.324 48.8681 169.615 62.1232 191.069 54.1382C191.069 54.1382 193.951 51.3435 202.036 46.2331C219.727 34.9742 211.322 41.2824 228.933 28.5063C218.927 12.7759 202.836 -0.319538 182.263 -0.000137479C162.731 0.319263 147.681 15.1714 130.951 24.5937C105.575 38.807 73.1539 41.6816 51.8604 60.6859C39.9328 71.2261 32.9684 86.1581 31.8477 101.409C40.0929 99.9722 48.6583 98.6946 54.9824 98.0558C59.7854 97.3371 63.3077 96.9379 63.9481 97.0976Z" fill="#FFE8D4"/>
</g>
<path fill-rule="evenodd" clip-rule="evenodd" d="M273.61 81.8399C272.937 78.2387 269.565 69.3289 268.781 69.4044C268.358 69.3525 268.073 70.2616 268.572 71.0952C270.505 74.2502 273.506 82.6853 272.078 83.7975C263.797 89.5615 266.02 88.976 263.559 80.3496C263.367 79.8111 261.876 74.479 261.272 74.4908C258.858 74.5379 265.457 87.9629 263.553 89.4458C258.371 93.1012 257.176 93.7269 256.92 93.009C253.334 82.3565 252.991 80.2548 251.976 80.8168C250.356 81.3906 258 92.6265 254.849 95.1579C253.897 95.8993 248.61 100.4 248.343 99.08C247.444 93.1339 244.542 86.6847 243.462 87.0672C243.103 87.1948 243.062 88.2196 243.37 88.5148C246.033 92.0169 247.931 99.6302 246.579 101.524C245.523 103.111 243.672 104.171 242.308 105.463C241.716 106.077 242.012 105.77 241.821 105.231C239.192 97.2709 238.675 92.4016 229.807 77.1535C203.511 31.7044 190.733 57.857 230.676 28.3426C234.187 25.6837 235.986 25.0462 235.614 24.5715C235.243 24.0968 229.881 27.8159 229.405 28.1867C211.363 41.2496 219.992 34.7559 202.16 46.1281C194.047 51.2262 191.203 54.0527 191.203 54.0527C169.743 62.0621 152.461 48.7855 136.288 64.824C126.574 74.5315 132.743 71.9412 124.705 71.5561C123.678 71.5159 113.778 71.5888 111.491 71.9949C94.2789 74.8612 69.0764 98.5457 64.0972 97.0767C63.4299 96.909 59.9364 97.3387 55.1197 98.0352C42.6487 99.4233 21.2233 102.974 10.7138 105.89L10.6094 106.736C32.8587 102.084 23.2893 103.657 50.866 99.7447C55.9264 99.164 70.9292 141.34 66.3861 165.584C65.7247 168.85 66.6764 168.109 60.2234 171.608C57.8325 172.86 59.9274 171.915 58.2614 157.551C58.1743 156.167 56.7989 156.856 57.3329 159.496C58.1339 163.457 58.4474 167.185 57.7976 171.053C57.3044 173.653 56.3933 173.37 51.5999 175.271C49.8009 175.908 51.037 174.258 50.6247 168.543C49.928 157.472 48.4309 161.237 48.7617 162.736C50.6947 178.421 49.8009 175.908 42.6689 178.638C41.7694 178.957 41.4618 178.661 41.5663 177.816C42.5004 173.039 41.2642 168.425 41.235 163.787C41.1595 163.005 40.2484 162.722 40.2078 163.747C39.7901 167.128 40.8232 170.602 40.9162 175.419C40.9976 179.634 40.7539 179.519 34.0455 182.3C33.146 182.619 33.5753 179.84 33.2908 174.484C32.71 163.17 31.3057 165.487 31.4161 168.075C32.734 183.169 33.146 182.619 28.3526 184.52C27.2732 184.902 26.809 185.875 29.3914 185.162C29.9311 184.971 58.5231 174.232 58.5231 174.232C68.9745 168.305 67.0421 171.415 68.1502 163.14C68.8812 157.223 67.2332 159.424 77.7543 157.11C79.6171 156.652 79.1641 145.697 79.0886 144.915C78.8506 141.968 78.6069 141.852 82.2686 140.757C93.4339 137.406 103.392 140.344 107.756 141.223C114.482 142.477 117.385 161.456 131.747 151.718C132.043 151.411 132.455 150.861 132.763 151.156C133.07 151.451 132.838 151.937 132.786 152.36C131.388 158.11 140.307 160.406 144.822 156.583C145.002 156.519 145.605 156.507 145.669 156.687C146.923 159.072 151.774 160.182 154.989 157.83C155.169 157.766 155.593 157.818 155.657 157.998C157.038 160.742 159.464 161.297 161.93 160.827C169.329 159.417 166.503 153.75 169.805 152.782L171.9 151.837C180.482 149.2 177.528 143.173 181.074 142.321C184.864 141.584 187.748 137.733 186.639 133.477C186.256 132.4 188.543 131.994 189.314 131.317C191.862 128.797 193.011 125.763 191.914 122.109C191.595 121.212 191.954 121.085 192.674 120.83C196.632 119.427 199.052 116.548 199.394 112.385C199.487 110.938 198.732 109.386 198.401 107.887C198.07 106.387 198.094 107.592 205.777 99.0079C215.764 87.789 207.436 91.1444 221.028 100.879C222.925 102.227 223.309 103.304 227.487 100.813C233.156 97.3888 231.073 105.2 239.825 108.162C243.045 109.244 238.333 109.095 254.396 96.733C256.299 95.25 269.287 86.2014 282.988 79.7291C283.348 79.6016 283.824 79.2309 283.696 78.8719C283.069 77.6794 273.952 83.9416 273.61 81.8399ZM77.7078 154.701C77.6672 155.726 77.0637 155.738 76.2803 155.813C69.1772 156.916 68.3532 158.016 68.2022 156.453C65.5248 95.9645 43.5425 101.936 62.3854 99.098C63.1688 99.0225 64.3237 99.4216 64.6951 99.8963C66.4361 102.513 68.7109 101.505 73.743 121.346C78.572 140.046 77.6613 152.292 77.7078 154.701ZM127.598 152.582C124.128 154.216 121.435 152.341 119.154 149.916C110.583 140.625 110.67 142.009 122.259 144.976C123.35 145.195 136.331 138.978 134.596 146.06C133.587 150.055 130.169 151.267 127.598 152.582ZM145.071 153.867C143.661 159.015 133.407 156.384 134.597 152.325C136.976 144.206 139.703 135.358 146.858 140.098C148.692 141.267 148.124 143.085 145.071 153.867ZM156.19 154.373C154.229 159.11 141.874 160.255 149.673 145.163C150.549 143.64 151.002 142.065 153.045 141.543C162.846 139.484 157.972 149.699 156.19 154.373ZM164.35 157.948C164.054 158.255 163.578 158.626 163.218 158.753C161.303 159.634 160.688 159.044 159.11 158.593C157.287 158.026 157.032 157.308 158.013 154.94C161.523 146.016 162.504 143.647 167.251 145.603C170.663 147.223 166.462 154.774 164.35 157.948ZM169.961 151.513C169.242 151.768 169.659 148.387 169.828 147.721C171.441 143.714 164.46 141.742 161.436 144.632C159.956 146.167 161.57 142.16 158.709 140.95C148.971 136.924 165.87 142.859 176.977 142.762C177.157 142.698 177.761 142.687 177.592 143.353C176.49 148.796 170.797 151.015 169.961 151.513ZM157.146 113.211C156.903 113.095 156.659 112.979 156.479 113.043C150.902 115.019 178.973 121.037 187.73 121.167C189.72 121.068 190.579 121.774 190.689 124.362C190.864 127.13 188.896 128.433 186.72 131.428C185.072 133.628 183.227 131.857 180.441 131.43C172.572 130.379 172.085 130.147 156.915 126.227C146.904 123.712 154.071 129.053 181.439 133.097C182.954 133.369 184.933 132.667 185.339 134.948C187.678 146.649 159.509 138.646 151.988 136.865C150.474 136.593 149.586 137.514 150.921 137.85C153.346 138.405 155.401 138.485 155.296 139.33C155.244 139.753 154.461 139.829 154.281 139.892C151.803 139.76 150.039 142.204 150.039 142.204C150.039 142.204 150.085 138.348 146.452 137.816C142.396 137.233 139.146 137.778 136.993 141.977C136.877 142.22 136.337 142.411 136.157 142.475C131.99 139.304 125.804 144.123 122.711 143.4C105.667 139.336 95.6216 135.014 80.3304 140.433C79.4309 140.752 79.0711 140.879 78.8679 139.739C78.3862 136.676 75.5591 112.214 67.1092 99.8491C66.6101 99.0155 100.03 75.6524 110.679 73.6975C116.755 72.5547 127.038 73.5587 127.885 73.6626C129.516 73.691 128.669 73.587 122.581 80.3925C114.01 89.8971 126.505 102.243 126.111 119.359C126.001 123.036 129.518 123.81 132.152 122.674C141.379 119 139.272 106.813 138.796 100.919C138.57 98.5737 140.038 96.4367 141.762 95.0175C144.617 92.7931 145.423 93.9219 156.583 99.6676C163.472 103.087 195.714 109.445 195.778 109.625C197.717 109.948 206.358 129.116 157.146 113.211ZM215.706 84.7782C215.294 85.3284 202.678 101.117 196.208 106.845C195.436 107.523 164.992 100.527 155.074 96.5647C154.587 96.3332 154.883 96.0262 155.306 96.0782C163.28 96.2839 165.769 97.0184 179.331 89.585C180.347 89.023 180.028 88.1256 178.832 88.7514C169.164 94.6027 157.32 97.1834 146.352 91.9761C145.197 91.577 147.756 89.6596 150.547 87.2557C151.319 86.578 151 85.6806 149.868 86.4859C139.272 94.283 136.278 95.5463 137.113 101.313C138.1 108.643 139.25 118.138 131.206 120.584C129.407 121.222 127.817 120.169 127.539 118.247C120.631 79.4668 113.326 91.9586 135.603 66.8855C150.366 49.7301 165.35 62.8105 191.703 54.8863C192.422 54.6313 193.513 54.851 194.064 55.2619C208.561 68.1109 205.648 67.3245 213.918 79.753C215.851 82.9079 216.414 83.921 215.706 84.7782ZM240.741 105.614C241.647 108.729 228.879 97.894 234.195 98.0311C238.664 98.0643 236.969 91.5916 240.741 105.614ZM236.023 95.7666C229.228 97.1643 224.864 102.551 223.831 99.0769C220.795 88.8353 212.148 72.4986 203.065 61.7726C193.368 50.4563 189.172 55.1767 202.659 46.9617C203.674 46.3997 217.335 59.747 222.559 67.5965C231.891 81.8717 236.748 92.6802 237.184 93.3343C237.631 94.5906 237.886 95.3085 236.023 95.7666Z" fill="#DD8E53"/>
<defs>
<clipPath id="clip0_3605_62593">
<rect width="209.974" height="182.857" fill="white" transform="translate(31.8477)"/>
</clipPath>
</defs>
</svg>
