<svg width="40" height="40" viewBox="0 0 40 40" fill="none" xmlns="http://www.w3.org/2000/svg">
<g id="Group 1736">
<path id="Vector" d="M20 40C31.0457 40 40 31.0457 40 20C40 8.95431 31.0457 0 20 0C8.95431 0 0 8.95431 0 20C0 31.0457 8.95431 40 20 40Z" fill="#E5AA7E"/>
<path id="Vector_2" d="M11.3954 14C10.6225 14 10 14.5946 10 15.3334V24.6666C10 25.4052 10.6223 26 11.3954 26H28.6046C29.3775 26 30 25.4054 30 24.6666V15.3334C30 14.5948 29.3777 14 28.6046 14H11.3954ZM27.4273 16.2014C27.6343 16.1839 27.8284 16.2997 27.9027 16.4853C27.977 16.6708 27.9134 16.881 27.747 17.0001L24.1133 20.0556L27.7397 22.9929C27.8516 23.0625 27.9267 23.1746 27.9462 23.3008C27.9657 23.4271 27.9275 23.5552 27.8412 23.6525C27.7551 23.75 27.6294 23.8074 27.4959 23.81C27.3624 23.8126 27.2342 23.7604 27.1437 23.6666L23.4083 20.6458L21.3081 22.4096C20.5563 23.0416 19.4215 23.0429 18.6701 22.4096L16.5843 20.6528L12.8562 23.6666C12.7657 23.7604 12.6375 23.8126 12.504 23.81C12.3705 23.8074 12.2448 23.75 12.1586 23.6525C12.0723 23.5552 12.0342 23.4271 12.0537 23.3008C12.0732 23.1746 12.1483 23.0625 12.2602 22.9929L15.8793 20.0556L12.2529 17.0001C12.1069 16.8833 12.0498 16.6934 12.1092 16.5206C12.1684 16.3478 12.3319 16.2267 12.5218 16.2152C12.6477 16.2089 12.771 16.2514 12.8633 16.3334L19.2877 21.7428C19.6934 22.0846 20.2908 22.0848 20.6975 21.7428L27.1364 16.3334H27.1366C27.214 16.2577 27.317 16.2109 27.4273 16.2015L27.4273 16.2014Z" fill="white"/>
</g>
</svg>
