<svg width="40" height="40" viewBox="0 0 40 40" fill="none" xmlns="http://www.w3.org/2000/svg">
<g id="Group 1737">
<path id="Vector" d="M20 40C31.0457 40 40 31.0457 40 20C40 8.95431 31.0457 0 20 0C8.95431 0 0 8.95431 0 20C0 31.0457 8.95431 40 20 40Z" fill="#E5AA7E"/>
<path id="Vector_2" fill-rule="evenodd" clip-rule="evenodd" d="M25.1251 22.5152C26.2285 23.1283 27.3324 23.7415 28.4356 24.3547C28.9105 24.6184 29.1188 25.1779 28.9319 25.6881C27.9826 28.2814 25.2026 29.6502 22.5867 28.6955C17.2302 26.7404 13.2598 22.7698 11.3045 17.4133C10.3498 14.7975 11.7186 12.0173 14.3119 11.0681C14.8222 10.8812 15.3817 11.0895 15.646 11.5644C16.2585 12.6677 16.8717 13.7716 17.4848 14.8749C17.7722 15.3924 17.7047 16.0068 17.3113 16.4488C16.7961 17.0285 16.2811 17.6081 15.7659 18.1872C16.8656 20.8651 19.1349 23.1344 21.8128 24.2341C22.3919 23.7189 22.9715 23.2038 23.5512 22.6887C23.9938 22.2953 24.6077 22.2277 25.1251 22.5152L25.1251 22.5152Z" fill="white"/>
</g>
</svg>
