<svg width="64" height="64" viewBox="0 0 64 64" fill="none" xmlns="http://www.w3.org/2000/svg">
<g id="Group 2991">
<mask id="mask0_4208_23085" style="mask-type:alpha" maskUnits="userSpaceOnUse" x="0" y="0" width="64" height="64">
<rect id="Rectangle 508" width="64" height="64" rx="32" fill="#D9D9D9"/>
</mask>
<g mask="url(#mask0_4208_23085)">
<rect id="Rectangle 509" width="64" height="64" rx="32" fill="#E5AA7E"/>
<g id="Group 2982">
<path id="Vector 38" d="M21.9606 24.4365L23.706 22.2547L29.8152 18.0365L39.2697 16.4365L41.3061 23.8547L43.197 25.3093L43.9243 27.782V30.5456L46.2516 37.6729C46.8334 41.4547 48.5788 49.1056 50.9061 49.4547C53.2334 49.8038 55.2697 51.9274 55.997 52.9456L57.597 58.9092L40.7243 66.0365L15.2697 65.0183C12.3121 62.8365 6.68785 57.6292 7.85148 54.2547C9.01512 50.8802 13.2818 49.3577 15.2697 49.0183L23.706 34.4729L20.7969 31.7093L20.2151 27.2002L21.9606 24.4365Z" fill="white"/>
<path id="Vector" d="M35.3033 35.5176C33.6218 36.7161 31.3789 36.8238 29.5956 35.7794C29.4327 35.6834 29.2873 35.9365 29.4502 36.0296C31.3178 37.1234 33.6887 37.0245 35.4516 35.7678C35.6029 35.6601 35.4574 35.407 35.3062 35.5176H35.3033Z" fill="#041F0F"/>
<path id="Vector 37" d="M21.8173 46.5449C21.8173 46.5449 24.7264 53.0904 32.1446 53.0904C39.5628 53.0904 42.7628 46.5449 42.7628 46.5449C42.7628 46.5449 43.9264 47.7086 51.0537 49.454C55.7082 50.5939 56.4355 54.1086 56.4355 54.1086L56.2901 59.3449L51.9264 63.5631L46.8355 66.3267L31.8537 67.7813L15.8537 65.3086L5.67188 61.2358L8.1446 53.5267C9.01733 52.2176 10.4719 50.0358 14.5446 49.1631C18.4729 48.3213 19.8295 47.5146 21.8173 46.5449Z" fill="white"/>
<path id="Vector_2" d="M51.2917 49.7666C51.2122 49.9315 50.9677 49.7865 51.0473 49.6217C51.053 49.6074 51.0615 49.5904 51.0672 49.5762C50.4873 49.2749 49.842 49.1384 49.2081 48.9821C48.5174 48.8115 47.8266 48.6324 47.1444 48.4249C44.9073 47.7512 42.7072 46.7904 40.9533 45.2157C39.4752 43.8882 38.3722 42.103 38.0766 40.1303C38.0311 39.9313 37.997 39.7267 37.9743 39.5248C37.9231 39.0757 37.9487 38.6067 38.1107 38.1803C38.2728 37.7454 38.5513 37.3702 38.7873 36.9722C39.694 35.4457 40.291 33.7487 40.5639 31.9948C40.5013 31.9323 40.5013 31.8016 40.6037 31.7532C40.6207 31.6509 40.7174 31.6367 40.7913 31.6736C41.3626 31.4405 41.9141 31.1421 42.3803 30.7327C43.2558 29.9681 43.884 28.7316 43.5486 27.5547C43.3979 27.0346 43.0398 26.5797 42.494 26.4518C42.0107 26.341 41.4877 26.4916 41.1494 26.8555C41.0244 26.9891 40.8225 26.7873 40.9476 26.6537C40.8908 26.6394 40.8396 26.594 40.8368 26.5201C40.7998 25.8606 40.743 25.2039 40.6634 24.5473C40.4104 22.4239 39.9271 20.3289 39.2421 18.305C38.9521 18.9844 38.594 19.6325 38.1676 20.2351C37.2324 21.5512 36.0044 22.657 34.5888 23.433C34.2335 23.6263 33.8639 23.7997 33.4887 23.9504C33.0993 24.1067 32.6615 24.2431 32.2579 24.047C31.84 23.8452 31.8059 23.4216 31.8201 23.0066C31.8343 22.6314 31.8741 22.2533 31.9253 21.881C31.5415 22.2079 31.155 22.5319 30.7485 22.8361C29.8758 23.4899 28.8781 24.0811 27.7893 24.2744C27.5705 24.3114 27.3232 24.3171 27.1583 24.1437C27.002 23.9759 27.019 23.7286 27.0673 23.5211C27.1753 23.0606 27.3175 22.6087 27.4568 22.1539C27.218 22.4068 27.0332 22.7138 26.8342 22.9924C26.5528 23.3875 26.2515 23.7656 25.9331 24.1294C25.3135 24.8372 24.6227 25.4797 23.8751 26.0539C23.8609 26.2784 23.8325 26.5002 23.7898 26.7219C23.7842 26.7475 23.7699 26.7674 23.7529 26.7844C23.7785 26.9265 23.571 27.0317 23.4942 26.8839C23.2327 26.3751 22.5675 26.1988 22.053 26.412C21.5243 26.6309 21.2059 27.1852 21.1207 27.731C21.0126 28.399 21.2372 29.0869 21.5328 29.681C22.0274 30.6759 22.8717 31.6054 24.0229 31.7703C24.1622 31.7902 24.148 31.9579 24.0514 32.0204C24.2617 32.9301 24.5318 33.8226 24.87 34.6896C25.214 35.5765 25.6603 36.4008 26.081 37.2508C26.2629 37.6146 26.4135 37.9927 26.4675 38.3992C26.5216 38.8142 26.4931 39.2349 26.4476 39.6471C26.3652 40.3748 26.2146 41.0939 25.9701 41.7847C25.7313 42.4669 25.4073 43.1235 24.9809 43.7091C24.5261 44.343 23.9604 44.8632 23.3322 45.3237C21.982 46.3129 20.555 47.2595 18.9887 47.8649C18.1843 48.1748 17.3543 48.4164 16.5271 48.6637C16.3082 48.7291 16.0893 48.7945 15.8733 48.857C15.7198 48.9025 15.5236 49.002 15.3616 48.9508C15.211 48.9025 15.1541 48.7518 15.1086 48.6154C15.1058 48.6097 15.1058 48.6069 15.1058 48.6012C14.958 48.3055 14.8215 48.0071 14.6964 47.7001C13.5907 44.9655 13.4827 41.8785 14.3724 39.07C15.2905 36.1763 17.0416 33.6435 18.2923 30.8948C18.9489 29.4564 19.5089 27.9754 19.9694 26.4632C20.4214 24.9794 20.7426 23.4728 21.0496 21.952C21.3424 20.508 21.6863 19.0412 22.4425 17.7592C23.1673 16.5312 24.2191 15.525 25.3476 14.6694C27.4084 13.1031 29.9326 12.0258 32.5393 11.9917C32.3147 11.8723 32.0987 11.733 31.8997 11.5738C31.732 11.4402 31.4932 11.2583 31.5245 11.0138C31.5529 10.7807 31.8173 10.6898 32.0134 10.6471C32.5222 10.5306 33.1021 10.6073 33.6052 10.721C34.0601 10.8205 34.4978 10.9911 34.9072 11.2128C34.8531 10.8148 34.856 10.2918 35.2454 10.198C35.7201 10.0814 36.2119 10.6158 36.5018 10.9172C36.8799 11.3151 37.2352 11.75 37.5621 12.1906C37.8577 12.5943 38.1107 13.032 38.2216 13.5238H38.2244C38.4916 13.6858 38.7503 13.8564 39.0033 14.0383C41.05 15.5193 42.5992 17.6569 43.378 20.0589C43.8215 21.4318 43.9522 22.8531 43.9863 24.2886C44.0261 25.8691 43.992 27.4723 44.3672 29.0187C44.95 31.3979 46.4054 33.4218 47.8494 35.3491C49.3019 37.2906 50.8398 39.2377 51.684 41.5374C52.6619 44.198 52.5112 47.2083 51.2889 49.7666H51.2917Z" fill="#D95159"/>
<path id="Vector_3" d="M32.2116 33.0767C31.7597 33.0113 31.3447 32.8038 31.0377 32.4627C30.8614 32.2666 30.725 32.0363 30.796 31.7634C30.8643 31.5133 30.995 31.2717 31.0917 31.0329C31.4839 30.055 31.8052 29.0516 32.0553 28.0311C32.0979 27.8549 31.8251 27.7781 31.7824 27.9544C31.4953 29.117 31.1201 30.2569 30.6539 31.3569C30.5573 31.5843 30.4521 31.8118 30.5004 32.0647C30.5459 32.3007 30.6937 32.5082 30.8557 32.6816C31.1883 33.0426 31.6488 33.2785 32.1349 33.3496C32.314 33.3752 32.3907 33.1023 32.2116 33.0767Z" fill="#041F0F"/>
<path id="Vector_4" d="M23.9876 31.5512C23.7033 31.5512 23.4276 31.4205 23.1803 31.2897C22.9415 31.1646 22.7169 31.0111 22.5123 30.8377C22.1001 30.4853 21.7703 30.0447 21.56 29.5444C21.3326 29.0128 21.2388 28.4187 21.3042 27.8445C21.3639 27.2987 21.6112 26.6961 22.1598 26.4772C22.7937 26.2242 23.4503 26.662 23.5498 27.3101C23.5782 27.4892 23.8511 27.4124 23.8227 27.2334C23.7289 26.6137 23.203 26.1447 22.5748 26.1219C21.9437 26.0992 21.4321 26.5511 21.199 27.1083C20.676 28.3619 21.1819 29.9224 22.1086 30.8463C22.3559 31.0936 22.6373 31.3068 22.9415 31.4802C23.257 31.6593 23.6209 31.8355 23.9904 31.8355C24.1723 31.8355 24.1723 31.5512 23.9904 31.5512H23.9876Z" fill="#041F0F"/>
<path id="Vector_5" d="M23.5348 30.4625C23.0118 30.3743 23.0828 29.6722 23.117 29.2885C23.1624 28.8138 23.2847 28.2879 23.1226 27.8245C23.0004 27.4749 22.6735 27.1594 22.2784 27.2106C21.9401 27.256 21.6729 27.6114 21.7895 27.9468C21.8492 28.1173 22.1249 28.0434 22.0624 27.87C22.0112 27.7194 22.1022 27.5659 22.2471 27.509C22.412 27.4436 22.5939 27.5403 22.7048 27.6625C22.9862 27.9724 22.9151 28.4698 22.8753 28.8479C22.8128 29.4334 22.6053 30.5932 23.4524 30.7353C23.6315 30.7638 23.7082 30.4909 23.5291 30.4625H23.5348Z" fill="#041F0F"/>
<path id="Vector_6" d="M40.7057 31.5464C40.9899 31.5464 41.2657 31.4156 41.513 31.2848C41.7518 31.1598 41.9763 31.0063 42.181 30.8329C42.5932 30.4804 42.9229 30.0398 43.1332 29.5395C43.3607 29.0079 43.4545 28.4138 43.3891 27.8396C43.3294 27.2939 43.0821 26.6912 42.5335 26.4724C41.8996 26.2194 41.2429 26.6571 41.1434 27.3052C41.115 27.4843 40.8421 27.4076 40.8706 27.2285C40.9644 26.6088 41.4902 26.1398 42.1185 26.117C42.7495 26.0943 43.2612 26.5463 43.4943 27.1034C44.0173 28.357 43.5113 29.9176 42.5846 30.8414C42.3373 31.0887 42.0559 31.3019 41.7518 31.4753C41.4362 31.6544 41.0724 31.8306 40.7028 31.8306C40.5209 31.8306 40.5209 31.5464 40.7028 31.5464H40.7057Z" fill="#041F0F"/>
<path id="Vector_7" d="M41.1626 30.4605C41.6857 30.3724 41.6146 29.6703 41.5805 29.2865C41.535 28.8118 41.4128 28.2859 41.5748 27.8226C41.6971 27.473 42.0239 27.1574 42.4191 27.2086C42.7573 27.2541 43.0245 27.6094 42.908 27.9448C42.8483 28.1154 42.5726 28.0415 42.6351 27.8681C42.6863 27.7174 42.5953 27.5639 42.4503 27.5071C42.2855 27.4417 42.1035 27.5383 41.9927 27.6606C41.7113 27.9704 41.7823 28.4679 41.8221 28.8459C41.8847 29.4315 42.0922 30.5913 41.2451 30.7334C41.066 30.7618 40.9893 30.4889 41.1683 30.4605H41.1626Z" fill="#041F0F"/>
<path id="Vector_8" d="M27.7857 28.0968C28.2865 28.0968 28.6925 27.6412 28.6925 27.0792C28.6925 26.5171 28.2865 26.0615 27.7857 26.0615C27.2849 26.0615 26.8789 26.5171 26.8789 27.0792C26.8789 27.6412 27.2849 28.0968 27.7857 28.0968Z" fill="#041F0F"/>
<path id="Vector_9" d="M26.761 34.0634C27.7687 33.9816 28.5124 33.0134 28.4221 31.9009C28.3318 30.7883 27.4417 29.9527 26.434 30.0345C25.4263 30.1163 24.6826 31.0845 24.7729 32.1971C24.8632 33.3096 25.7533 34.1452 26.761 34.0634Z" fill="#F4CBCD"/>
<path id="Vector_10" d="M32.8532 40.6273C32.6883 40.6472 32.5064 40.6131 32.3415 40.6188C31.0624 40.6756 29.7775 40.3971 28.6405 39.8058C28.0435 39.4931 27.4892 39.0952 27.0003 38.629C26.8866 38.5238 26.7758 38.4129 26.6706 38.2964C26.6024 38.2253 26.537 38.1514 26.4773 38.0775C26.429 38.0263 26.3863 37.9752 26.3465 37.9212C26.2357 37.7904 26.1333 37.654 26.0367 37.5147C25.2862 36.443 24.857 35.161 24.496 33.916C23.7257 31.2781 23.4443 28.5037 23.6603 25.7663C23.6745 25.5844 23.9588 25.5844 23.9446 25.7663C23.828 27.2558 23.8564 28.7539 24.0327 30.2377C24.1919 31.5652 24.4704 32.8784 24.8655 34.1576C25.2322 35.3572 25.67 36.5653 26.4346 37.5772C27.6996 39.2515 29.6723 40.2464 31.7417 40.3374C31.9407 40.343 32.1397 40.343 32.3415 40.3374C32.5064 40.3288 32.6883 40.3601 32.8532 40.343C32.9015 40.3374 32.9356 40.3544 32.9612 40.38C33.0209 40.4567 32.9839 40.6131 32.8532 40.6273Z" fill="#041F0F"/>
<path id="Vector_11" d="M40.1863 33.9199C39.8224 35.1649 39.3932 36.4469 38.6427 37.5186C38.5148 37.7005 38.3812 37.8739 38.2306 38.0445C38.1197 38.1838 37.9975 38.3174 37.8696 38.4453C37.338 38.991 36.7183 39.4572 36.0389 39.8097C34.9048 40.401 33.6171 40.6795 32.3407 40.6227C32.1759 40.617 31.9911 40.6511 31.8262 40.6312C31.6955 40.617 31.6585 40.4635 31.7211 40.3867C31.741 40.3583 31.7751 40.3413 31.8262 40.347C31.9911 40.364 32.1759 40.3327 32.3407 40.3413C32.5397 40.347 32.7416 40.3469 32.9405 40.3384C34.8678 40.256 36.7126 39.3862 37.9804 37.9137C37.9833 37.908 37.9861 37.9052 37.9889 37.9023C38.0771 37.7972 38.1652 37.692 38.2476 37.5811C39.0123 36.5692 39.4472 35.3611 39.8167 34.1615C40.209 32.8824 40.4904 31.5691 40.6467 30.2416C40.8258 28.7578 40.8543 27.2597 40.7349 25.7702C40.7207 25.5883 41.0049 25.5883 41.0191 25.7702C41.2352 28.5076 40.9537 31.282 40.1863 33.9199Z" fill="#041F0F"/>
<path id="Vector_12" d="M29.2458 24.8008C29.1321 24.9486 28.9445 25.0168 28.7711 25.0765C28.5437 25.1532 28.3134 25.1987 28.0803 25.2414C27.6341 25.3238 27.1935 25.4005 26.7756 25.5739C26.5539 25.6649 26.3492 25.7871 26.1332 25.8895C25.9882 25.9577 25.7978 26.0486 25.6471 25.952C25.3458 25.7559 25.6045 25.2726 25.758 25.0736C25.9029 24.886 26.082 24.724 26.2753 24.5847C26.7045 24.2266 27.2304 23.9906 27.7819 23.8911C28.1628 23.8258 28.5778 23.7973 28.9331 23.9764C29.2287 24.1242 29.4846 24.4881 29.2401 24.8008H29.2458Z" fill="#041F0F"/>
<path id="Vector_13" d="M36.6607 28.2433C37.1615 28.2433 37.5675 27.7877 37.5675 27.2256C37.5675 26.6636 37.1615 26.208 36.6607 26.208C36.1599 26.208 35.7539 26.6636 35.7539 27.2256C35.7539 27.7877 36.1599 28.2433 36.6607 28.2433Z" fill="#041F0F"/>
<path id="Vector_14" d="M35.2015 24.9453C35.3152 25.0931 35.5028 25.1613 35.6762 25.221C35.9036 25.2978 36.1338 25.3432 36.3669 25.3859C36.8132 25.4683 37.2538 25.5451 37.6717 25.7185C37.8934 25.8094 38.0981 25.9317 38.3141 26.034C38.4591 26.1022 38.6495 26.1932 38.8002 26.0965C39.1015 25.9004 38.8428 25.4172 38.6893 25.2182C38.5443 25.0306 38.3653 24.8685 38.172 24.7292C37.7427 24.3711 37.2169 24.1352 36.6654 24.0357C36.2845 23.9703 35.8695 23.9419 35.5142 24.1209C35.2185 24.2688 34.9627 24.6326 35.2072 24.9453H35.2015Z" fill="#041F0F"/>
<path id="Vector_15" d="M39.3909 32.1958C39.4811 31.0832 38.7374 30.115 37.7297 30.0333C36.722 29.9515 35.8319 30.7871 35.7416 31.8996C35.6513 33.0122 36.395 33.9804 37.4027 34.0621C38.4105 34.1439 39.3006 33.3083 39.3909 32.1958Z" fill="#F4CBCD"/>
<path id="Vector_16" d="M58.0961 59.9268C57.9972 61.3115 57.7266 62.6904 57.4241 64.0373C57.3456 64.3835 57.267 64.7268 57.1856 65.0729C57.1739 65.1195 57.1477 65.1486 57.1157 65.1631H7.96083C7.92883 65.1486 7.90265 65.1195 7.89392 65.0729C7.81247 64.7268 7.73101 64.3835 7.65538 64.0373C7.34992 62.6904 7.07938 61.3115 6.98047 59.9268H58.0961Z" fill="#3677B8"/>
<path id="Vector_17" d="M57.2427 56.7114H7.32422C7.3697 56.2224 7.44645 55.7335 7.56299 55.2474C7.82451 54.1616 8.27648 53.1098 8.95586 52.2173C9.12357 51.9984 9.30549 51.7909 9.49879 51.5947H27.0545C29.465 52.8597 32.2706 53.2747 34.9512 52.6095C35.875 52.3793 36.7676 52.0382 37.609 51.5947H55.0709C55.2614 51.7909 55.4433 51.9984 55.611 52.2173C56.2932 53.1098 56.7424 54.1616 57.0039 55.2474C57.1204 55.7335 57.1972 56.2196 57.2427 56.7114Z" fill="#3677B8"/>
<path id="Vector_18" d="M57.2581 58.8688C57.1614 60.2219 56.8971 61.5693 56.6014 62.8854C56.5247 63.2237 56.4479 63.5591 56.3683 63.8974C56.357 63.9428 56.3314 63.9713 56.3001 63.9855C56.266 64.0054 56.2205 64.0025 56.1836 63.9855C56.175 63.9855 56.1665 63.9798 56.158 63.9741C56.1466 63.977 56.1381 63.9826 56.1267 63.9855H56.121C56.121 63.9855 56.104 63.9883 56.0926 63.9883H8.47097C8.47097 63.9883 8.45676 63.9883 8.45108 63.9855H8.43686C8.43686 63.9855 8.41696 63.9855 8.40844 63.977C8.40275 63.9798 8.39422 63.9826 8.38854 63.9855C8.34874 64.0025 8.3061 64.0054 8.26915 63.9855C8.23788 63.9713 8.2123 63.9428 8.20377 63.8974C8.12418 63.5591 8.04459 63.2237 7.97068 62.8854C7.67221 61.5693 7.40785 60.2219 7.3112 58.8688C7.26004 58.1497 7.25719 57.4277 7.32542 56.7113C7.3709 56.2224 7.44765 55.7335 7.56419 55.2474C7.82571 54.1615 8.27768 53.1098 8.95705 52.2172C9.12477 51.9983 9.30669 51.7908 9.49999 51.5947C10.0543 51.0319 10.7052 50.5685 11.4102 50.2018C13.3431 49.1984 15.5291 48.863 17.5985 48.249C19.0397 47.8226 20.4467 47.2086 21.7287 46.3985C21.7799 46.3672 21.8339 46.3359 21.8851 46.299C22.6412 45.8101 23.349 45.2501 23.9914 44.619C25.7169 42.9248 26.9079 40.4888 26.3337 38.0356C26.3223 37.9901 26.3309 37.9532 26.3508 37.9248C26.4133 37.8366 26.5753 37.8253 26.6066 37.9589C26.6123 37.9816 26.618 38.0072 26.6208 38.0299C26.6436 38.1181 26.6606 38.209 26.6748 38.3C26.7004 38.445 26.7231 38.5928 26.7374 38.7406C26.7402 38.7718 26.743 38.806 26.7459 38.8372C26.9392 41.2563 25.6458 43.4934 23.9175 45.0824C23.3376 45.6168 22.7123 46.0943 22.0556 46.5235C21.9732 46.5776 21.8965 46.6287 21.814 46.6799H21.8112C20.4865 47.5042 19.0368 48.1268 17.5416 48.5617C15.4665 49.1671 13.255 49.4997 11.3448 50.56C10.8246 50.8471 10.3414 51.1911 9.91216 51.5947C9.54262 51.9358 9.21004 52.3224 8.92863 52.7488C8.30042 53.6982 7.91667 54.7898 7.71769 55.9069C7.66937 56.1741 7.63241 56.4441 7.60967 56.7113C7.53577 57.4305 7.53861 58.1497 7.59262 58.8688C7.70632 60.5005 8.08154 62.1236 8.45108 63.7098C8.45676 63.7069 8.46245 63.7041 8.47097 63.7041H56.0926C56.0926 63.7041 56.1125 63.7098 56.121 63.7098C56.4906 62.1264 56.8658 60.5005 56.9795 58.8688C57.0335 58.1497 57.0364 57.4305 56.9624 56.7113C56.9397 56.4413 56.9027 56.1741 56.8544 55.9069C56.6554 54.7898 56.2717 53.6982 55.6435 52.7488C55.3621 52.3224 55.0295 51.9358 54.66 51.5947C54.2307 51.1911 53.7475 50.8471 53.2273 50.56C51.3143 49.4997 49.1056 49.1671 47.0276 48.5617C45.558 48.1324 44.1311 47.5241 42.8235 46.7168C42.7439 46.6685 42.6615 46.6174 42.5847 46.5662C42.2294 46.3388 41.8854 46.0972 41.5529 45.8385C41.4448 45.7561 41.3397 45.6708 41.2345 45.5827C41.0355 45.4235 40.8422 45.2558 40.6546 45.0824C38.9235 43.4934 37.6329 41.2563 37.8262 38.8372C37.8376 38.7065 37.8518 38.5757 37.8746 38.445C37.8973 38.2829 37.9286 38.1209 37.9655 37.9589C37.9712 37.9418 37.9769 37.9248 37.9854 37.9134C37.9883 37.9077 37.9911 37.9049 37.9939 37.902C38.0735 37.8025 38.2754 37.8793 38.2384 38.0356C38.2384 38.0385 38.2384 38.0413 38.2356 38.0441C37.6642 40.4944 38.8552 42.9277 40.5779 44.619C40.9161 44.9488 41.2714 45.2614 41.641 45.5514C43.2129 46.7907 45.0663 47.6833 46.9736 48.249C49.0402 48.863 51.229 49.1984 53.1619 50.2018C53.8669 50.5685 54.5178 51.0319 55.0721 51.5947C55.2626 51.7908 55.4445 51.9983 55.6122 52.2172C56.2944 53.1098 56.7436 54.1615 57.0051 55.2474C57.1216 55.7335 57.1984 56.2196 57.2439 56.7113C57.3121 57.4277 57.3092 58.1497 57.2581 58.8688Z" fill="#041F0F"/>
<path id="Vector_19" d="M42.8323 46.6978C42.8323 46.6978 42.8266 46.712 42.821 46.7177C41.9653 48.4346 40.6634 49.9042 39.1029 51.0072C38.8044 51.2175 38.5002 51.4136 38.1847 51.5956C35.544 53.1306 32.3688 53.6309 29.3898 52.8264C28.3665 52.5478 27.3773 52.1328 26.4619 51.5956C24.4835 50.4415 22.8291 48.7359 21.8115 46.6808H21.8086C21.7831 46.6268 21.7546 46.5699 21.7291 46.5159C21.7092 46.4733 21.712 46.4335 21.7262 46.3993C21.749 46.3368 21.82 46.2913 21.8826 46.2999C21.9195 46.3027 21.9536 46.3254 21.9764 46.3709C22.0019 46.4221 22.0247 46.4733 22.0531 46.5244C22.8547 48.1475 24.0543 49.5546 25.5097 50.6291C26.0014 50.9929 26.516 51.3142 27.0532 51.5956C29.4637 52.8605 32.2693 53.2755 34.9499 52.6104C35.8737 52.3801 36.7663 52.039 37.6077 51.5956C39.7254 50.4756 41.5077 48.7217 42.5822 46.5671C42.5822 46.5671 42.5879 46.5585 42.5879 46.5557C42.6703 46.3908 42.9148 46.5358 42.8323 46.6978Z" fill="#041F0F"/>
</g>
</g>
</g>
</svg>
