<svg width="170" height="164" viewBox="0 0 170 164" fill="none" xmlns="http://www.w3.org/2000/svg">
<g id="Group">
<path id="Vector" d="M32.5888 80.9201C23.1191 87.6916 13.8943 95.7328 10.0574 106.567C4.75114 121.464 11.2003 138.901 23.2824 149.228C35.2827 159.639 51.8547 163.786 67.7736 163.702C88.8355 163.617 111.04 155.661 122.959 138.393C127.694 131.537 130.551 123.581 132.347 115.455C134.633 105.128 135.286 94.0399 131.776 84.052C115.693 37.9211 60.0182 61.3674 32.5888 80.9201Z" fill="white" fill-opacity="0.1"/>
<g id="Group_2">
<path id="Vector_2" d="M128.206 63.7008C128.287 63.6888 128.287 63.6888 128.368 63.6768C128.865 63.6857 129.234 63.3828 129.417 62.9419C129.852 61.9673 130.38 61.0616 130.895 60.0749L131.411 59.0883C134.496 53.6661 134.714 46.7658 132.126 41.0264C132.009 40.7955 131.787 40.4147 131.403 40.0578C130.671 39.5871 129.769 39.6382 128.869 40.268C127.22 41.4227 126.119 43.489 125.637 46.3739C124.705 51.8078 125.353 58.4141 127.264 62.9302C127.417 63.404 127.777 63.5988 128.206 63.7008ZM127.85 46.7905C128.267 44.5774 128.953 43.0689 130.072 42.2411C132.297 47.2069 132.028 53.2046 129.345 57.9879L128.817 58.8936C128.679 59.0796 128.541 59.2655 128.496 59.5204C127.434 55.706 127.2 50.776 127.85 46.7905Z" fill="#FFE8D4"/>
<path id="Vector_3" d="M135.843 58.8434C136.182 59.4551 136.728 59.7879 137.412 59.9348C137.493 59.9228 137.574 59.9108 137.586 59.9917C140.018 60.2104 142.339 56.8875 144.473 53.4267C146.653 49.7109 147.546 45.6894 146.937 42.1389C146.745 40.8434 146.025 40.4537 145.504 40.2828C144.82 40.1359 144.277 40.3819 144.046 40.4988C140.49 42.1845 137.707 45.7414 136.4 50.3207C135.15 54.7261 134.967 57.401 135.843 58.8434ZM138.637 50.8992C139.66 47.1896 141.797 44.3076 144.706 42.7179C145.15 45.7137 144.404 49.0514 142.407 52.3263C139.229 57.6795 137.978 57.6166 137.897 57.6286C137.816 57.6406 136.944 56.7771 138.637 50.8992Z" fill="#FFE8D4"/>
<path id="Vector_4" d="M153.533 54.8151C153.371 54.8391 139.127 58.1092 138.747 62.7993C126.716 64.252 114.733 68.2625 104.046 74.3152C102.06 75.4369 100.318 76.5227 98.669 77.6774C98.8248 76.4958 98.8067 75.2573 98.7196 74.1118C98.7406 73.695 98.6806 73.2901 98.7015 72.8733C98.6948 65.0134 96.7208 57.2797 92.9926 50.5507C92.7586 50.0889 92.3178 49.906 91.832 49.9781C91.3462 50.0501 90.9894 50.434 90.8875 50.8628L88.7623 60.5282C87.926 64.3757 86.9188 68.7451 87.8908 73.0693C88.5418 75.7861 90.7524 80.0922 94.2881 81.0575C93.9193 81.3604 93.6314 81.6513 93.2626 81.9542C84.3809 90.1388 78.6362 100.506 76.7151 111.548C76.5261 110.831 76.3371 110.115 76.0671 109.41C75.5601 107.665 74.9602 105.851 74.3723 104.117C72.2665 97.727 70.0437 91.1059 69.6262 84.3826C68.9835 74.4656 72.3232 64.6202 75.3513 57.1378C77.7047 51.2449 80.3251 45.478 83.3054 39.9059C84.0374 42.6107 88.4248 44.8564 88.5178 44.9254C89.8523 45.555 91.3248 45.9987 92.8302 46.1065C94.5096 46.2713 96.2219 46.1002 97.8982 45.6862C99.8863 45.1432 101.305 44.1055 102.108 42.8279C103.107 41.1904 102.965 38.5635 101.13 37.3462C100.398 36.8754 99.5526 36.7525 98.626 36.6417C98.1162 36.5518 97.4444 36.4859 96.7727 36.42C92.1275 35.7847 87.6802 35.3683 85.2093 36.562C85.725 35.5754 86.2527 34.6697 86.8494 33.671C88.7507 34.2166 91.0808 34.8641 93.27 35.1188C94.6944 35.2386 96.0139 35.2085 97.1234 34.8785C99.4924 34.1136 101.627 32.8869 103.681 31.6722C105.736 30.4574 108.17 29.0208 109.85 26.9514C111.034 25.4519 111.681 23.1218 110.146 21.6945C109.273 20.8309 108.023 20.7681 107.039 20.8311C102.85 21.0385 97.8209 22.2805 93.4338 24.503C93.6617 23.8073 93.9015 23.1925 93.9794 22.6017C94.6538 18.7782 94.3085 14.7748 93.8974 11.4431C93.6423 9.16408 92.3437 8.77736 91.753 8.69945C90.5714 8.54363 89.8008 9.48533 89.5939 9.76424C87.2581 12.4274 86.086 16.242 85.9965 21.22L85.9666 22.1347C85.9967 23.4542 85.9098 24.5427 85.8919 25.5383C84.5391 21.4361 82.4335 17.28 82.0826 16.5873C81.4857 15.3518 80.412 13.6906 78.6516 13.5378C78.5707 13.5498 78.4897 13.5618 78.4777 13.4809C76.6484 13.4211 75.3021 14.9446 75.0204 16.393C74.7266 17.7605 74.9996 19.044 75.3536 20.3155C76.3676 23.806 78.0834 28.6819 80.9475 31.8153C81.4364 32.3221 82.636 33.7164 84.1535 33.9052C83.2929 35.3567 82.5254 36.8772 81.6649 38.3287C80.96 36.3645 79.6763 34.4034 79.1394 33.5728C77.2139 30.6312 74.6227 28.7812 71.8758 28.1127C70.1604 27.705 68.646 28.095 67.8185 29.2107C67.1978 30.0474 67.135 31.2979 67.7078 32.3714C68.0828 33.226 68.7576 33.8707 69.3274 34.3655C69.8043 34.7913 70.3981 35.4479 71.0849 36.1736C74.216 39.433 76.9511 42.2546 79.2573 42.7402C77.5393 46.222 75.9143 49.7727 74.3823 53.3924C73.9113 51.8901 72.8945 50.0549 71.227 47.737C68.6146 44.0697 64.491 41.3712 60.1216 40.364C59.6118 40.2741 59.0691 40.52 58.8052 40.9729C58.1066 42.4004 58.9135 43.9357 59.2524 44.5474C61.6609 49.0724 66.6815 55.0305 72.8622 57.0931C69.8582 64.7374 66.5994 74.5708 67.2782 84.7307C67.3172 85.5523 67.4613 86.524 67.5933 87.4146C60.3923 78.4698 50.7686 73.2769 40.5781 68.1679C41.3398 67.724 41.8915 66.9802 42.1794 66.6893C44.3292 63.8882 45.6483 59.3899 45.351 55.7104C45.2729 54.067 44.3641 52.9605 43.1256 52.9787C42.6278 52.9697 42.316 53.0987 42.0041 53.2277C40.2259 54.0705 38.7296 55.699 37.8842 57.8103C37.2096 59.3997 36.9879 61.253 36.9191 63.5801C36.9373 64.8186 37.0693 65.7092 37.2703 66.5069C36.2027 66.0032 35.123 65.4185 34.0554 64.9148C35.5156 63.0434 35.3923 59.4209 35.3053 58.2753C35.068 55.0007 33.8832 52.032 31.9398 50.0859C30.4852 48.6466 28.1311 47.8372 26.5179 49.2348C25.4114 50.1435 25.3036 51.6489 25.2857 52.6446C25.277 55.3765 26.0574 62.8734 29.5542 65.2511C30.0191 65.5959 30.4599 65.7788 30.8078 65.8927C33.048 67.0501 35.2882 68.2074 37.5285 69.3647C49.5993 75.4361 61.0433 81.1867 68.4785 92.8273C69.4265 96.9896 70.7794 101.092 72.1083 105.032C72.6962 106.765 73.2841 108.499 73.7911 110.244C76.7819 119.813 78.2041 128.29 78.2799 136.057C76.1232 130.998 72.1613 126.042 66.4181 121.349C63.8719 119.244 61.1878 117.325 58.5157 115.487C58.1438 115.211 57.7719 114.936 57.4 114.66C58.6955 114.468 59.826 113.721 60.6295 112.443C62.1797 110.062 62.3802 106.392 61.6633 104.346C61.1924 102.844 59.8308 101.474 58.2234 101.795C57.4258 101.996 56.1214 102.686 55.9507 105.442C55.8848 106.113 55.8309 106.866 55.777 107.619C55.5673 109.553 55.4625 111.637 55.8075 113.406C55.0638 112.855 54.2391 112.315 53.4833 111.682C53.966 111.032 54.2388 110.081 54.3617 109.235C55.126 104.902 54.1478 99.4201 51.7723 94.5593C50.4615 91.8575 48.8512 91.5998 47.9485 91.6508C46.9649 91.7139 46.0653 92.3437 45.3187 93.4474C42.998 96.7703 43.946 100.933 44.8399 103.613C43.1813 100.798 40.7731 98.5068 37.7441 97.0527C35.7018 96.1143 33.0838 95.7577 31.4497 97.5721C30.3912 98.8047 30.2744 100.808 31.2552 102.4C32.038 103.774 33.4086 104.646 34.4882 105.231C37.0073 106.595 39.6974 107.437 42.0275 108.085C42.8852 108.289 43.8928 108.388 44.9934 108.555L45.0743 108.543C45.4102 108.576 45.7461 108.609 46.0939 108.723C49.5489 111.935 53.3366 114.6 57.0434 117.278C59.6346 119.128 62.3187 121.047 64.8529 123.071C72.4795 129.304 76.7504 135.787 77.5728 142.451C77.6568 143.018 78.0407 143.374 78.6315 143.452C78.7124 143.44 78.7934 143.428 78.8743 143.416C79.1982 143.368 79.4981 143.158 79.636 142.972C79.9359 142.762 80.1428 142.483 80.1757 142.148C80.9007 134.758 80.2102 126.752 78.1371 117.791C78.7296 105.043 84.6271 92.9157 94.6032 83.7414C97.4488 81.1681 100.735 78.7777 105.005 76.3243C111.491 72.6321 118.502 69.6896 125.819 67.6947C124.743 69.9229 125.112 74.0882 125.829 78.3674L125.925 79.0152C126.069 79.9868 126.237 81.1203 126.891 82.1818C127.335 82.9435 128.067 83.4142 128.739 83.4801C128.82 83.4681 128.994 83.5251 129.075 83.5131C129.653 83.51 130.925 83.156 131.341 80.9429C131.599 79.3325 131.857 77.7221 131.965 76.2167C131.953 76.1357 132.621 68.9205 130.143 66.7226C133.103 66.0356 136.087 65.5105 139.095 65.1474C139.176 65.1354 139.257 65.1234 139.326 65.0304C139.524 65.2493 139.71 65.3872 139.976 65.5132C140.522 65.846 141.125 66.0048 141.878 66.0587C146.082 66.5111 153.024 63.6616 153.786 63.2177C156.164 61.955 157.603 60.5004 158.173 58.761C158.469 57.9723 158.442 57.2316 158.265 56.5959C157.863 55.0006 156.019 54.281 153.533 54.8151ZM92.3604 55.7747C93.1528 63.3526 94.3621 70.9515 95.5473 78.3884C92.6862 75.8337 91.1234 71.4316 91.2458 66.1177C91.3386 63.9526 91.5813 61.6824 91.8479 59.5742C92.0847 58.3807 92.3095 57.1062 92.3604 55.7747ZM96.3864 72.8855C96.3655 73.3024 96.4255 73.7072 96.4166 74.205C96.4347 75.4435 96.5728 77.4917 96.1381 78.4663L96.1141 78.3044C94.9528 71.0294 93.8365 63.4995 92.9631 55.9336C95.2488 61.3042 96.4369 67.0858 96.3864 72.8855ZM90.1339 72.5713C89.2459 68.8138 90.2081 64.6994 90.9994 61.1067L91.3831 59.2294C91.3951 59.3104 91.3381 59.4843 91.3501 59.5653C91.0954 61.7545 90.7598 63.9556 90.6791 66.2017C90.5117 71.7705 92.1915 76.4035 95.3075 79.0032C95.2265 79.0152 95.0526 78.9582 94.9716 78.9702C92.7224 78.3107 90.7729 75.2071 90.1339 72.5713ZM93.3333 38.3365C94.4218 38.4234 95.5224 38.5912 96.3681 38.7141C97.8855 38.9029 99.124 38.8847 99.7628 39.2865C100.402 39.6883 100.501 40.9148 100.03 41.6466C99.4333 42.6452 98.1168 43.2541 97.1572 43.4791C94.6143 44.1871 91.7774 44.0284 89.4562 42.8831C87.6689 41.9896 85.4945 40.1606 85.5244 39.2459C85.5124 39.165 85.4884 39.003 85.9502 38.7691C87.3236 37.9863 90.4844 38.0969 93.3333 38.3365ZM107.132 23.1342C107.63 23.1432 108.29 23.1281 108.581 23.416C108.965 23.7728 108.623 24.8164 108.071 25.5601C106.68 27.3386 104.545 28.5653 102.572 29.768C100.587 30.8898 98.6135 32.0925 96.4755 32.7404C94.4993 33.3644 90.8946 32.4921 88.2166 31.7307C89.2301 30.7529 90.0007 29.8112 90.7833 28.9505C95.2332 25.4774 101.866 23.3356 107.132 23.1342ZM88.2817 22.1225L88.3236 21.2888C88.4161 16.8895 89.4054 13.5158 91.3964 11.3174C91.4653 11.2245 91.4653 11.2245 91.5343 11.1315C91.5583 11.2934 91.5823 11.4554 91.6183 11.6983C92.0295 15.0299 92.3147 18.6285 91.6853 22.1971C91.4036 23.6456 90.5791 25.34 89.0379 27.2234C88.669 27.5263 88.3692 27.7362 88.0004 28.0391C88.2461 26.3478 88.2819 24.3566 88.2817 22.1225ZM77.4797 19.5865C77.1737 18.6389 76.9487 17.6793 77.1646 16.9026C77.3234 16.2999 77.8182 15.73 78.316 15.739C78.316 15.739 78.316 15.739 78.397 15.727C78.9068 15.8169 79.4886 16.3926 80.0735 17.5471C82.179 21.7032 85.0166 28.5642 84.9029 31.1462C84.765 31.3322 84.615 31.4371 84.5341 31.4491C84.3841 31.5541 83.6884 31.3263 82.5937 30.0819C80.6503 28.1358 78.9766 24.6604 77.4797 19.5865ZM72.7431 34.5211C71.9633 33.7265 71.3695 33.0698 70.8806 32.563C70.4038 32.1372 70.0079 31.6995 69.7859 31.3186C69.6569 31.0068 69.6089 30.6829 69.7469 30.497C69.8848 30.311 70.2776 30.17 70.8684 30.248C71.0303 30.2239 71.2043 30.2809 71.3782 30.3379C73.5224 30.8475 75.5797 32.4456 77.1663 34.7755C78.555 36.8866 79.7607 39.4384 79.8238 40.422C78.0395 40.1073 74.7914 36.617 72.7431 34.5211ZM27.6008 52.6323C27.6307 51.7177 27.7206 51.2079 28.0084 50.917C28.5272 50.5091 29.5948 51.0128 30.2696 51.6575C31.8291 53.2467 32.756 55.5916 32.9902 58.2876C33.1883 60.7406 32.7268 63.2086 32.0341 63.5596C31.9531 63.5716 31.7912 63.5956 31.6982 63.5266C31.6052 63.4576 31.4313 63.4007 31.3383 63.3317C31.2454 63.2627 31.1644 63.2748 31.0834 63.2868C30.9905 63.2178 30.9095 63.2298 30.8975 63.1488C28.6213 61.7486 27.6071 56.024 27.6008 52.6323ZM39.2342 63.5678C39.258 61.4957 39.4468 59.9782 39.9954 58.6557C40.601 57.1593 41.5785 55.9386 42.895 55.3298C42.919 55.4917 42.943 55.6536 42.967 55.8156C43.1802 58.9283 42.032 62.9048 40.227 65.2411C39.8822 65.7059 39.6633 65.9039 39.5134 66.0088C39.4653 65.685 39.2643 64.8873 39.2342 63.5678ZM58.1161 107.768C58.17 107.016 58.2119 106.182 58.2778 105.51C58.2837 104.434 58.5595 104.062 58.7215 104.038C58.8834 104.014 59.2673 104.371 59.4443 105.006C59.9152 106.509 59.7566 109.346 58.6892 111.076C58.4943 111.436 58.1944 111.646 57.9755 111.844C57.8765 110.617 57.9963 109.193 58.1161 107.768ZM42.78 105.905C40.6238 105.314 38.0267 104.541 35.7625 103.221C34.9498 102.763 33.9511 102.166 33.4022 101.254C33.0633 100.643 32.9193 99.6711 33.414 99.1013C33.7709 98.7174 34.4066 98.5404 35.0783 98.6063C35.6691 98.6842 36.3528 98.8311 36.8987 99.1639C39.9156 100.537 42.2669 103.002 43.6257 106.028C43.2898 105.995 43.0349 105.95 42.78 105.905ZM47.3401 94.8026C47.6849 94.3378 47.9728 94.0469 48.2966 93.9989C48.7015 93.9389 49.2953 94.5955 49.7752 95.6001C51.9288 100.08 52.8229 104.995 52.1485 108.819C52.0706 109.409 51.9567 109.757 51.8308 110.024C51.4589 109.748 50.9581 109.161 50.5742 108.804C50.4692 108.654 50.2833 108.516 50.1783 108.366C49.9443 107.904 49.5124 107.223 49.1615 106.531C48.5077 105.469 47.6079 103.865 47.3859 103.484C46.588 101.451 45.4331 97.5677 47.3401 94.8026ZM46.0907 105.91C46.0787 105.829 45.9977 105.841 45.9857 105.76C46.0787 105.829 46.0907 105.91 46.0907 105.91ZM129.763 75.881C129.575 77.3985 129.386 78.9159 129.116 80.4453C129.071 80.7002 129.014 80.8741 128.945 80.9671C128.945 80.9671 128.945 80.9671 128.933 80.8861C128.594 80.2744 128.474 79.4647 128.354 78.6551L128.258 78.0073C126.881 69.2749 128.068 68.3542 128.392 68.3062C128.554 68.2822 128.635 68.2702 128.635 68.2702C128.716 68.2582 128.716 68.2582 128.728 68.3391C129.751 69.0977 130.018 73.6919 129.763 75.881ZM156.154 57.9845C155.744 59.1211 154.661 60.1918 152.826 61.2086C150.91 62.2374 143.248 64.6971 141.332 63.4918C141.158 63.4349 141.053 63.2849 141.086 62.9491C141.089 61.2937 149.071 58.2071 154.112 57.0461C154.598 56.9741 155.084 56.9021 155.5 56.923C155.917 56.944 156.184 57.0699 156.301 57.3008C156.232 57.3938 156.256 57.5557 156.154 57.9845Z" fill="#FFE8D4"/>
<path id="Vector_5" d="M142.705 67.1759C142.357 67.062 142.01 66.9481 141.662 66.8342C139.401 66.0937 136.003 64.9425 134.453 67.3237C132.846 69.8788 135.68 73.927 137.056 75.957C139.051 78.8057 141.426 81.4324 144.146 83.5943C145.646 84.7787 147.493 86.077 149.694 86.4126C149.775 86.4006 149.868 86.4696 149.949 86.4576C151.884 86.6673 153.674 85.9054 154.627 84.5229C155.707 82.8734 155.326 80.8613 154.855 79.3589C153.382 74.447 150.955 70.9176 147.693 69.0017C146.172 68.2342 144.607 67.7215 142.705 67.1759ZM150.03 84.2115C148.339 83.9657 146.851 82.8623 145.55 81.8968C143.003 79.7919 140.745 77.3961 138.844 74.6164C136.522 71.2369 136.039 69.6536 136.255 68.8769C137.572 70.5021 138.969 72.1154 140.505 73.5426C141.378 74.4062 142.412 75.2458 143.273 76.0284C144.122 76.73 145.063 77.5006 145.843 78.2952C146.413 78.79 146.914 79.3777 147.484 79.8724C148.938 81.3117 150.393 82.751 152.123 83.8184C151.593 84.1453 150.702 84.2774 150.03 84.2115ZM152.63 83.3296C150.912 82.3431 149.364 80.8349 147.91 79.3956C147.328 78.8199 146.839 78.3131 146.269 77.8184C145.408 77.0358 144.548 76.2532 143.618 75.5635C142.676 74.7929 141.722 73.9414 140.862 73.1588C139.314 71.6505 137.917 70.0373 136.519 68.4241C136.819 68.2141 137.236 68.2351 137.733 68.244C138.741 68.3429 139.959 68.7416 140.828 69.0264C141.269 69.2093 141.698 69.3112 142.046 69.4251C143.773 69.9138 145.165 70.3694 146.43 71.092C149.879 73.1459 151.625 77.1071 152.567 80.1118C153.05 81.6952 153.113 82.6788 152.63 83.3296Z" fill="#FFE8D4"/>
<path id="Vector_6" d="M23.045 77.7173C23.4258 77.4953 23.8876 77.2614 24.5113 77.0034C28.5295 75.0838 35.0996 71.9584 33.297 68.171C32.805 67.0855 31.9443 66.3029 30.8077 65.8922C27.6649 64.7859 23.1488 66.6966 19.6044 68.4633C16.9026 69.774 13.7181 71.7356 12.5549 75.0524C11.9613 76.6298 12.1114 78.7589 13.5869 79.7814C14.1327 80.1142 14.6546 80.2851 15.1644 80.375C16.091 80.4859 16.8887 80.2849 17.2005 80.1559C19.3626 79.6699 21.3597 78.6291 23.045 77.7173ZM14.6541 75.8168C15.6015 73.2768 18.2553 71.6422 20.5762 70.5534C22.2735 69.7225 27.3532 67.149 29.9743 68.0844C30.4961 68.2553 30.88 68.6121 31.1259 69.1549C32.0377 70.8401 25.6176 73.8605 23.5395 74.9133C22.9278 75.2523 22.304 75.5102 21.9232 75.7322C20.3069 76.551 18.4598 77.4868 16.5526 78.0178C15.7429 78.1378 15.1641 78.1409 14.8852 77.934C14.4204 77.5892 14.4383 76.5936 14.6541 75.8168Z" fill="#FFE8D4"/>
<path id="Vector_7" d="M9.34556 63.4472C12.8003 64.4245 15.7782 64.976 18.0483 65.2186C20.9901 65.5272 23.0263 65.3081 24.0638 64.4923C24.7325 63.9795 25.0413 63.2717 25.0952 62.519C25.1371 61.6853 24.7862 60.9927 24.0994 60.267C21.1903 57.3884 12.0288 56.4297 10.3855 56.5079C9.38985 56.49 8.41825 56.634 7.49467 57.1019C6.25922 57.6988 5.53663 58.9644 5.62371 60.1099C5.71078 61.2554 6.41264 62.6408 9.34556 63.4472ZM7.91478 59.9357C7.87877 59.6928 8.15462 59.321 8.53545 59.099C9.07821 58.8531 9.72594 58.757 10.3857 58.742C12.7008 58.7297 20.4858 59.8925 22.4292 61.8386C22.5342 61.9885 22.7321 62.2074 22.6182 62.5552C21.7306 63.2661 17.8412 63.2634 9.75017 61.1531C8.71855 60.8923 7.9868 60.4215 7.91478 59.9357Z" fill="#FFE8D4"/>
<path id="Vector_8" d="M29.523 78.4135C29.0224 80.0599 29.5294 81.8052 30.738 82.7017C31.2028 83.0465 31.7246 83.2174 32.3154 83.2953C32.9872 83.3612 33.7159 83.2532 34.4205 82.9832C35.5061 82.4913 36.3007 81.7115 36.9333 80.9558C37.0023 80.8628 42.1656 74.3879 40.2192 71.863C38.9955 70.3068 36.4556 71.5935 35.532 72.0614C33.9967 72.8683 32.7643 74.0439 31.6129 75.2076C30.8303 76.0683 29.9098 77.115 29.523 78.4135ZM36.6658 74.1275C37.5894 73.6596 38.1441 73.4946 38.387 73.4586C38.3122 74.6281 36.6272 77.7741 35.2119 79.3906C34.7171 79.9604 34.2224 80.5302 33.5177 80.8002C32.9749 81.0461 32.3962 81.0492 32.1052 80.7613C31.6404 80.4165 31.6013 79.5948 31.7722 79.073C32.057 78.2033 32.7017 77.5285 33.3344 76.7728C34.2669 75.8071 35.3614 74.8174 36.6658 74.1275Z" fill="#FFE8D4"/>
<path id="Vector_9" d="M31.4554 124.96C32.2081 125.014 33.0178 124.894 33.7465 124.786C39.2732 123.553 48.6921 120.667 50.344 115.623C51.0395 113.617 50.2927 112.487 49.5369 111.854C46.3159 109.104 36.2403 112.584 34.705 113.391C30.7797 115.379 28.4919 118.366 28.5312 121.422C28.5253 122.499 28.8313 123.446 29.4251 124.103C30.007 124.679 30.7027 124.907 31.4554 124.96ZM30.8463 121.41C30.876 118.261 34.2914 116.183 35.7458 115.388C37.512 114.464 43.5574 112.823 46.5802 113.12C47.171 113.198 47.6928 113.368 47.9717 113.575C48.0647 113.644 48.3556 113.932 48.0828 114.883C47.1835 117.747 41.561 120.566 33.2485 122.543C32.1269 122.792 31.4552 122.726 31.1643 122.438C30.8854 122.232 30.8374 121.908 30.8463 121.41Z" fill="#FFE8D4"/>
<path id="Vector_10" d="M45.2552 127.052C44.9045 128.593 45.5224 129.412 45.8942 129.688C46.2661 129.964 46.614 130.078 46.9499 130.111C47.2048 130.156 47.4477 130.12 47.6096 130.096C49.7267 129.864 51.4209 128.455 52.5154 127.465C54.1046 125.906 56.4075 123.578 57.019 121.005C57.1209 120.576 56.9679 120.103 56.596 119.827C55.5734 119.068 53.891 118.325 52.2716 118.565C51.2311 118.802 50.4004 119.339 49.8127 119.839C47.5878 121.576 45.9807 124.131 45.2552 127.052ZM52.7696 120.808C52.9316 120.784 53.1745 120.748 53.3484 120.805C53.7652 120.826 54.1131 120.94 54.554 121.122C53.7655 123.06 51.7265 124.934 51.0128 125.702C49.7804 126.878 48.7189 127.532 47.5044 127.712C47.4924 127.631 47.4924 127.631 47.5614 127.538C48.1279 125.219 49.4712 123.117 51.3963 121.591C51.915 121.183 52.3648 120.868 52.7696 120.808Z" fill="#FFE8D4"/>
<path id="Vector_11" d="M123.003 101.708C123.327 101.659 123.614 101.369 123.821 101.09C123.935 100.742 123.968 100.406 123.839 100.094C120.822 94.2527 115.888 89.4401 109.992 86.5078C107.137 85.1107 97.5647 80.8203 94.0085 84.7401C93.076 85.7058 92.6653 86.8424 92.8453 88.0569C93.1965 90.9837 96.5194 93.3045 99.5514 95.3373L100.097 95.6702C105.696 99.3911 111.148 101.562 116.198 102.137C118.538 102.287 120.76 102.206 123.003 101.708ZM95.2472 86.9561C96.7437 87.5617 98.4711 88.0503 100.129 88.632C102.217 89.3155 104.478 90.056 106.241 90.7875C108.712 91.8278 111.345 92.8442 113.553 94.3374C115.481 95.6237 117.041 97.2129 118.624 98.964C118.915 99.2519 119.206 99.5397 119.416 99.8396C111.427 97.3004 103.929 93.6126 97.0977 88.8332C96.3659 88.3624 95.7031 87.7987 95.1213 87.223C95.1093 87.142 95.1783 87.0491 95.2472 86.9561ZM99.4184 85.5103C102.186 85.7619 105.77 87.051 108.892 88.5741C113.894 91.0596 118.117 94.9847 120.885 99.7045C120.642 99.7405 120.4 99.7765 120.157 99.8125C119.761 99.3748 119.377 99.0179 118.981 98.5801C117.397 96.829 115.826 95.1588 113.805 93.8036C111.504 92.2414 108.871 91.2251 106.319 90.1967C104.475 89.4772 102.295 88.7247 100.126 88.0532C98.48 87.5525 96.8216 86.9709 95.3372 86.4463C95.4061 86.3533 95.4061 86.3533 95.4751 86.2604C96.3507 85.4686 97.7271 85.2645 99.4184 85.5103ZM101.303 93.7538L100.757 93.421C99.2812 92.3985 95.8893 90.1708 95.1844 88.2066C95.6612 88.6324 96.2191 89.0462 96.6839 89.391C103.132 93.8136 110.107 97.3305 117.518 99.8728C111.439 99.6155 105.519 96.5213 101.303 93.7538Z" fill="#FFE8D4"/>
<path id="Vector_12" d="M56.334 74.5198C56.8318 74.5287 57.2367 74.4687 57.5485 74.3397C60.3313 73.017 60.7774 65.421 60.3634 63.7447C59.7573 60.7729 58.3656 58.0831 57.0669 55.4623C56.8449 55.0814 56.473 54.8056 55.9752 54.7966C55.4774 54.7877 55.1086 55.0906 54.9257 55.5315C53.8284 58.1765 50.5967 68.7506 53.9528 72.9696C54.9425 74.0641 55.7433 74.4419 56.334 74.5198Z" fill="#FFE8D4"/>
<path id="Vector_13" d="M36.2865 33.0579C35.6628 33.3159 35.1561 33.8047 34.4994 34.3986C33.291 35.7362 32.7784 37.3016 33.2253 38.642C33.4023 39.2777 33.8222 39.8775 34.404 40.4532C35.3697 41.3857 36.5303 41.9584 37.7119 42.1142C37.8858 42.1712 38.1287 42.1351 38.2906 42.1111C39.853 42.045 41.2834 41.0883 42.2248 39.6247C42.8905 38.5331 43.0463 37.3516 42.7403 36.404C42.5753 35.8492 42.1794 35.4114 41.9695 35.1116C40.5719 33.4983 38.3766 32.0861 36.2865 33.0579Z" fill="#FFE8D4"/>
<path id="Vector_14" d="M51.3765 32.1439C51.4664 31.6341 51.3134 31.1603 51.1964 30.9294C51.0675 30.6175 51.0074 30.2127 50.7735 29.7509C50.0836 28.4465 48.8061 27.6429 47.3936 27.6041C45.9932 27.6462 44.8627 28.393 44.1521 29.7396C43.5225 31.0741 43.6816 32.7054 44.4524 33.9978C45.0943 34.9784 46.1049 35.656 47.1125 35.7549C47.2865 35.8118 47.4484 35.7878 47.6103 35.7638C49.1607 35.6167 50.0572 34.4081 50.6779 33.5714C51.0347 33.1875 51.2986 32.7347 51.3765 32.1439ZM48.9654 31.5084C48.9774 31.5894 49.0944 31.8202 49.0254 31.9132C49.0374 31.9942 48.9684 32.0872 48.8305 32.2731C48.3598 33.0048 47.922 33.4007 47.5172 33.4608C47.1933 33.5088 46.7404 33.2449 46.5065 32.7831C46.0866 32.1834 46.0475 31.3617 46.3683 30.7349C46.6202 30.2011 47.07 29.8862 47.4868 29.9072C47.9846 29.9161 48.4495 30.2609 48.7764 30.7917C48.8124 31.0346 48.8484 31.2775 48.9654 31.5084Z" fill="#FFE8D4"/>
<path id="Vector_15" d="M38.9467 28.6918C39.1086 28.6678 39.2016 28.7367 39.3755 28.7937C39.8853 28.8836 40.5451 28.8685 41.2258 28.4366C42.1373 27.8878 42.629 26.7392 42.368 25.5367C42.176 24.2412 41.0813 22.9968 39.8637 22.5981C38.9011 22.2443 37.8485 22.4004 37.0419 23.0992C36.3852 23.693 36.0074 24.4937 35.9086 25.5013C35.8307 26.0921 35.9147 26.6589 36.1486 27.1207C36.8265 28.3441 38.2749 28.6259 38.9467 28.6918ZM38.2597 25.732C38.2926 25.3961 38.4065 25.0483 38.6254 24.8503C38.7754 24.7454 38.9253 24.6404 39.0183 24.7093C39.0992 24.6973 39.0992 24.6973 39.1922 24.7663C39.633 24.9492 40.0409 25.4679 40.1939 25.9417C40.2299 26.1846 40.185 26.4395 40.104 26.4515C40.023 26.4635 39.7801 26.4996 39.3513 26.3976C38.5056 26.2748 38.3077 26.0559 38.3077 26.0559C38.2267 26.0679 38.2147 25.9869 38.2597 25.732Z" fill="#FFE8D4"/>
<path id="Vector_16" d="M93.4987 106.412C92.9679 106.739 92.4731 107.309 92.0834 108.029C91.3038 109.468 91.115 110.986 91.55 112.245C92.0899 113.655 93.4275 114.863 95.0619 115.283C95.3168 115.328 95.5717 115.373 95.8266 115.418C96.7533 115.529 97.6319 115.316 98.3126 114.884C98.8433 114.557 99.1072 114.104 99.3141 113.825C100.462 112.083 101.167 109.578 99.6643 107.815C99.2564 107.297 98.6177 106.895 97.8169 106.517C96.2845 105.668 94.6291 105.666 93.4987 106.412Z" fill="#FFE8D4"/>
<path id="Vector_17" d="M114.297 50.785C112.614 50.0415 111.04 50.0266 109.909 50.7734C109.379 51.1003 108.884 51.6702 108.494 52.3899C107.715 53.8294 107.526 55.3468 107.961 56.6063C108.501 58.0157 109.838 59.2241 111.473 59.6437C111.727 59.6887 111.982 59.7337 112.237 59.7786C113.164 59.8895 114.043 59.6765 114.723 59.2446C115.254 58.9177 115.518 58.4648 115.725 58.1859C116.873 56.4435 117.578 53.9394 116.075 52.1763C115.736 51.5645 115.097 51.1628 114.297 50.785ZM113.865 56.8066C113.739 57.0735 113.59 57.1785 113.44 57.2835C113.14 57.4934 112.642 57.4845 112.132 57.3946C111.181 57.1218 110.438 56.5701 110.249 55.8534C109.991 55.2297 110.114 54.384 110.56 53.4903C110.755 53.1304 110.962 52.8515 111.193 52.7345C111.424 52.6175 111.736 52.4886 112.165 52.5905C112.5 52.6234 112.929 52.7254 113.37 52.9082C113.904 53.1601 114.183 53.367 114.474 53.6548C115.068 54.3115 114.543 55.796 113.865 56.8066Z" fill="#FFE8D4"/>
<path id="Vector_18" d="M104.161 121.961C104.416 122.006 104.659 121.97 104.902 121.934C105.388 121.862 105.768 121.64 106.068 121.43C106.449 121.208 106.749 120.998 107.037 120.707C108.119 119.636 108.563 118.164 108.128 116.905C107.681 115.564 106.553 114.656 105.117 114.455C103.681 114.254 102.109 114.818 101.12 115.958C100.199 117.004 99.9055 118.372 100.316 119.469C100.856 120.879 102.272 121.496 103.303 121.757C103.57 121.883 103.825 121.928 104.161 121.961ZM102.841 117.523C103.336 116.953 104.041 116.683 104.631 116.761L104.712 116.749C105.303 116.827 105.687 117.184 105.828 117.576C105.981 118.05 105.81 118.572 105.384 119.049C105.165 119.247 105.016 119.352 104.785 119.469C104.716 119.562 104.485 119.679 104.404 119.691C104.323 119.703 104.23 119.634 103.975 119.589C103.105 119.304 102.571 119.052 102.43 118.659C102.382 118.336 102.565 117.895 102.841 117.523Z" fill="#FFE8D4"/>
<path id="Vector_19" d="M108.735 111.517C109.89 110.932 110.762 109.562 110.825 108.311C110.912 107.223 110.363 106.311 109.445 105.702C108.714 105.232 107.787 105.121 106.815 105.265C106.168 105.361 105.706 105.595 105.349 105.979C104.336 106.956 104.552 108.414 104.567 109.073C104.651 109.64 104.783 110.531 105.457 111.176C105.841 111.532 106.363 111.703 106.873 111.793C107.545 111.859 108.192 111.763 108.735 111.517ZM107.008 108.794C106.876 107.904 107.014 107.718 107.014 107.718C107.014 107.718 107.082 107.625 107.325 107.589C107.487 107.565 107.73 107.529 107.823 107.598C107.985 107.574 108.078 107.643 108.171 107.712C108.357 107.85 108.462 107.999 108.417 108.254C108.408 108.752 107.994 109.31 107.613 109.532C107.383 109.649 107.14 109.685 107.047 109.616C107.104 109.442 106.987 109.211 107.008 108.794Z" fill="#FFE8D4"/>
<path id="Vector_20" d="M112.852 38.8354C114.007 38.2505 114.891 36.961 114.942 35.6295C115.029 34.5409 114.48 33.6293 113.563 33.0207C112.831 32.5499 111.904 32.4391 110.933 32.5831C110.285 32.6791 109.823 32.9131 109.466 33.297C108.453 34.2747 108.669 35.7321 108.684 36.3918C108.768 36.9586 108.9 37.8492 109.575 38.4939C109.959 38.8507 110.48 39.0216 110.99 39.1115C111.674 39.2584 112.322 39.1624 112.852 38.8354ZM111.326 36.9103C111.233 36.8414 111.197 36.5985 111.137 36.1936C111.005 35.303 111.143 35.1171 111.143 35.1171C111.143 35.1171 111.212 35.0241 111.455 34.9881C111.617 34.9641 111.859 34.9281 111.952 34.997C112.114 34.973 112.207 35.042 112.3 35.111C112.486 35.2489 112.591 35.3988 112.546 35.6537C112.537 36.1515 112.123 36.7093 111.743 36.9313C111.581 36.9553 111.326 36.9103 111.326 36.9103Z" fill="#FFE8D4"/>
</g>
</g>
</svg>
