<svg width="215" height="95" viewBox="0 0 215 95" fill="none" xmlns="http://www.w3.org/2000/svg">
<g id="Group">
<g id="Group_2">
<path id="Vector" d="M52.9218 28.9404C53.7066 29.2033 54.2297 29.7291 53.9681 30.5178C52.3987 36.8271 53.1834 43.3993 56.3223 49.1829C57.8917 52.0747 60.2459 54.9664 62.3385 57.5953L68.8778 65.7449C70.1856 67.3222 71.755 69.1624 73.3245 70.4769C74.6323 71.5285 75.9402 72.3171 77.5096 73.1058L96.0813 84.1471C96.6044 84.41 96.866 85.1987 96.6044 85.9873C96.3428 86.5131 95.5581 86.776 94.7734 86.5131L76.2018 75.4718C74.6323 74.6831 73.3245 73.6316 71.7551 72.58C69.924 71.0027 68.3546 69.1625 67.0467 67.3222L60.5074 59.1727C58.1533 56.5438 56.0607 53.652 54.2297 50.4973C50.8293 44.4509 50.0445 36.8271 51.614 30.2549C51.614 29.4662 52.3987 28.9404 52.9218 28.9404Z" fill="#FFE8D4"/>
</g>
<g id="Group_3">
<path id="Vector_2" d="M53.4457 28.6773C60.7697 30.2547 66.7859 36.3011 68.0937 43.662C68.0937 43.9249 68.0937 44.4507 68.3553 44.7136C68.6169 45.7651 68.6169 46.8167 69.14 47.6054C69.9247 48.9198 71.4942 49.9714 72.802 50.76C84.3112 57.5951 94.251 59.6983 102.883 56.8065C106.545 55.7549 109.684 53.6518 113.084 51.5487C114.392 50.76 115.7 49.9714 117.008 49.1827C127.994 42.8734 140.811 39.9816 153.628 41.0331C154.413 41.0331 154.936 41.8218 154.674 42.3476C154.674 43.1362 153.889 43.662 153.366 43.3991C153.366 43.3991 153.366 43.3991 153.105 43.3991C141.072 42.3476 128.778 45.2394 118.054 51.2858C116.746 52.0745 115.438 52.8631 114.13 53.6518C110.73 55.7549 107.33 57.858 103.144 59.1725C93.9894 62.0643 83.2649 59.9611 71.2326 52.8631C69.4016 51.8116 67.5706 50.4971 66.5243 48.6569C66.0012 47.3425 65.7396 46.028 65.478 44.9765C65.478 44.7136 65.478 44.1878 65.2164 43.9249C63.9086 37.6156 58.9387 32.3578 52.661 31.0433C51.8762 30.7805 51.6147 30.2547 51.6147 29.466C52.1378 28.9402 52.661 28.4145 53.4457 28.6773Z" fill="#FFE8D4"/>
</g>
<g id="Group_4">
<path id="Vector_3" d="M32.5195 30.7803C37.2278 31.0432 41.9361 33.1463 46.1212 36.8267C49.7832 39.7185 52.399 43.9247 55.0147 48.131C55.7994 49.4454 56.5841 50.497 57.3688 51.5485C57.6304 52.0743 57.6304 52.863 57.1073 53.3887C56.5841 53.6516 55.7994 53.6516 55.2763 53.1258C54.4915 52.0743 53.7068 50.7598 52.9221 49.7083C50.3064 45.7649 47.6907 41.8216 44.5518 38.9298C41.6745 36.5638 36.1815 32.6205 29.3806 33.4092C28.5959 33.4092 28.3343 33.6721 28.3343 33.6721C28.3343 33.6721 28.0728 33.9349 28.8575 35.2494C38.0125 49.7083 48.9985 62.8527 61.554 74.157C62.8619 75.4714 64.1697 76.523 65.7392 77.0487C66.7854 77.5745 68.0933 77.5745 69.4012 77.8374L87.1881 79.9405C87.9728 79.9405 88.2344 80.7292 88.2344 81.255C88.2344 82.0436 87.7112 82.5694 86.9265 82.3065L69.1396 80.2034C67.8317 79.9405 66.2623 79.9405 64.9544 79.4148C63.1234 78.6261 61.554 77.3116 59.9846 75.9972C47.1675 64.4301 35.9199 51.2856 26.7649 36.5638C26.2417 36.0381 25.1955 33.9349 26.2417 32.3576C27.0265 31.3061 28.3343 31.0432 29.119 31.0432C30.4269 30.7803 31.4732 30.7803 32.5195 30.7803Z" fill="#FFE8D4"/>
</g>
<g id="Group_5">
<path id="Vector_4" d="M18.3932 43.6627C19.9627 43.6627 21.2705 44.1885 22.8399 44.4513C27.2867 45.7658 30.9487 48.6576 34.6107 51.2865C35.657 52.0751 36.4417 52.6009 37.2264 53.1267C39.5806 54.9669 41.6731 56.5442 44.812 57.3329C45.5967 57.5958 45.8583 58.1216 45.5967 58.9102C45.3352 59.6989 44.812 59.9618 44.0273 59.6989C40.3653 58.6473 38.2727 57.07 35.657 54.9669C34.8723 54.4411 34.3491 53.9153 33.5644 53.3896C29.9024 50.7607 26.2404 48.1318 22.3168 46.8173C18.3932 45.5029 14.7312 45.7658 11.8539 47.3431L26.7635 62.0649C28.5945 63.9051 30.6871 66.0082 33.0413 67.0598C35.1338 68.1114 37.7496 68.6371 40.3653 69.1629C42.7194 69.6887 45.0736 69.6887 47.6893 69.6887C50.8282 69.9516 54.2286 69.9516 57.8906 71.0031C58.6753 71.266 58.9369 71.7918 58.6753 72.5805C58.4138 73.3691 57.8906 73.632 57.1059 73.3691C53.7055 72.5805 50.5666 72.3176 47.4277 72.0547C45.0736 72.0547 42.4579 71.7918 39.8421 71.266C36.9648 70.7402 34.3491 70.2145 31.995 68.9C29.3792 67.5856 27.0251 65.4825 25.1941 63.3794L9.23819 47.3431C8.97661 47.0802 8.71505 46.8173 8.97662 46.2916C8.97662 46.0287 9.23818 45.5029 9.49975 45.5029C11.3308 44.1884 14.7312 43.3998 18.3932 43.6627Z" fill="#FFE8D4"/>
</g>
<g id="Group_6">
<path id="Vector_5" d="M14.9942 52.6006C15.2558 52.6006 15.5173 52.6006 15.5173 52.6006C16.3021 52.6006 16.5636 53.3893 16.5636 54.1779C16.5636 54.9666 15.7789 55.2295 14.9942 55.2295C12.64 54.7037 10.2859 56.5439 8.45487 58.3841C4.53129 62.0646 2.70028 65.2193 2.96186 68.111C2.96186 68.6368 3.22342 68.8997 3.22342 68.8997C3.22342 68.8997 3.48501 69.1626 4.00815 69.1626C7.67016 69.4255 11.5937 68.6368 15.7789 67.8482C21.0103 66.7966 26.5034 66.0079 31.4732 67.0595C32.258 67.3224 32.5195 67.8482 32.5195 68.6368C32.258 69.4255 31.7348 69.6884 30.9501 69.6884C26.5034 68.6368 21.2719 69.6884 16.302 70.477C12.1169 71.2657 7.93173 72.0544 4.00815 71.7915C3.22343 71.7915 2.43871 71.5286 1.654 71.0028C0.86928 70.2142 0.869276 69.4255 0.607702 68.6368C0.0845566 63.6419 4.00815 59.4357 6.88544 56.8068C8.97802 54.4408 11.8553 52.6006 14.9942 52.6006Z" fill="#FFE8D4"/>
</g>
<g id="Group_7">
<path id="Vector_6" d="M126.688 22.1055C126.95 22.1055 127.473 22.3684 127.734 22.6312C128.258 23.157 127.996 23.9457 127.473 24.4715C121.718 28.4148 115.44 29.9921 109.686 31.5695C104.454 32.8839 98.9614 34.1984 93.4684 37.353C90.8527 38.9304 87.9754 40.2448 85.0981 41.5593L84.3134 41.8221C79.3435 44.1881 74.112 45.7655 68.619 46.2913C67.8343 46.2913 67.3112 45.7655 67.3112 45.2397C67.3112 44.451 67.8343 43.9253 68.3575 43.9253C73.5889 43.3995 78.5588 42.085 83.2671 39.719L84.0518 39.4561C86.6675 38.1417 89.5448 36.8273 92.1605 35.2499C97.9151 31.8324 103.408 30.5179 108.901 29.2035C114.917 27.6261 120.672 26.3117 125.903 22.3684C126.165 22.3684 126.427 22.1055 126.688 22.1055Z" fill="#FFE8D4"/>
</g>
<g id="Group_8">
<path id="Vector_7" d="M117.008 1.33663C122.763 1.8624 128.517 3.17685 134.011 4.49129L148.397 7.90885C151.797 8.69752 155.721 9.48619 158.86 11.8522C163.568 14.744 166.184 20.0017 168.538 23.9451L175.601 37.8782C175.862 38.404 175.601 39.1926 175.077 39.4555C174.554 39.7184 173.77 39.4555 173.508 38.9298L166.184 25.2595C164.091 21.0533 161.737 16.3213 157.552 13.6924C154.675 11.8522 151.274 11.0635 147.874 10.2749L133.487 6.8573C127.733 5.54285 121.717 3.96552 115.7 3.70263C111.777 3.43974 107.853 3.70263 103.93 3.96552L71.4947 5.80574C70.4484 5.80574 69.6637 6.33152 69.6637 6.33152C69.6637 6.59441 69.9253 6.8573 69.9253 6.8573C74.1105 13.4295 81.1729 17.6357 89.0201 18.4244C91.3742 18.6873 93.7284 18.6873 96.0825 18.6873C97.9135 18.6873 99.483 18.6873 101.314 18.6873C103.145 18.6873 105.499 18.9502 107.33 20.2646C108.9 21.3162 109.684 22.8935 110.469 24.4709C111.254 25.7853 111.777 27.3626 113.085 27.8884C113.608 28.1513 113.869 28.94 113.346 29.7286C113.085 30.2544 112.3 30.5173 111.515 29.9915C109.946 28.94 108.9 27.0998 108.115 25.5224C107.33 24.208 106.807 22.8935 105.761 22.1049C104.453 21.0533 102.883 21.0533 101.314 20.7904C99.483 20.7904 97.9135 20.7904 96.0825 20.7904C93.7284 20.7904 91.1127 20.7904 88.7585 20.5275C80.3882 19.7389 72.541 14.744 68.0943 7.64596C67.8327 7.38307 67.5711 6.59441 67.3096 5.80574C67.3096 3.96552 68.879 2.65107 71.4947 2.65107L103.668 1.33663C107.592 1.07374 111.777 0.810847 115.7 1.07374C116.224 1.07374 116.747 1.33663 117.008 1.33663Z" fill="#FFE8D4"/>
</g>
<g id="Group_9">
<path id="Vector_8" d="M177.433 59.1729C177.695 59.1729 177.695 59.1729 177.956 59.1729C178.479 59.4357 178.741 60.2244 178.479 60.7502C174.817 68.8997 170.632 77.3122 162.524 80.4669C159.908 81.5184 157.03 81.7813 154.415 82.0442L120.934 85.7246C112.302 86.7762 103.408 87.5649 94.5147 86.2504C93.73 86.2504 93.4684 85.4618 93.4684 84.936C93.4684 84.1473 94.2531 83.8844 94.7763 83.8844C103.408 85.1989 112.04 84.4102 120.672 83.3586L154.153 79.6782C156.769 79.4153 159.385 79.1524 161.739 78.3638C169.063 75.7349 172.986 67.8482 176.387 59.9615C176.387 59.4357 176.91 59.1729 177.433 59.1729Z" fill="#FFE8D4"/>
</g>
<path id="Vector_9" d="M168.276 23.9446C187.894 29.4653 206.989 36.3004 225.56 44.45C230.792 46.816 236.285 49.182 241.516 51.8109C242.824 52.3366 241.778 54.4397 240.47 53.914C222.421 45.2386 203.588 37.6148 184.493 31.5684C179 29.7282 173.246 28.1508 167.753 26.5735C166.445 25.7848 166.968 23.4188 168.276 23.9446Z" fill="#FFE8D4"/>
<path id="Vector_10" d="M170.107 72.5793C177.692 76.2597 185.801 78.6257 193.648 81.5175C201.496 84.4093 209.081 88.0898 216.144 92.8218C217.451 93.6104 215.882 95.4506 214.836 94.662C207.773 90.1929 200.188 86.5124 192.341 83.6206C184.493 80.7289 176.646 78.6257 169.322 74.9453C168.014 73.8937 168.799 71.7906 170.107 72.5793Z" fill="#FFE8D4"/>
</g>
</svg>
