<svg width="32" height="32" viewBox="0 0 32 32" fill="none" xmlns="http://www.w3.org/2000/svg">
<g id="Telegram" clip-path="url(#clip0_3791_31338)">
<path id="Subtract" fill-rule="evenodd" clip-rule="evenodd" d="M32 16C32 24.8366 24.8366 32 16 32C7.16344 32 0 24.8366 0 16C0 7.16344 7.16344 0 16 0C24.8366 0 32 7.16344 32 16ZM6.96001 16.0848L10.8648 17.357C10.9306 17.3685 10.9982 17.3644 11.0621 17.3451L11.0648 17.3434C11.9665 16.774 19.9991 11.7014 20.4629 11.5308C20.536 11.5087 20.5904 11.5336 20.576 11.5841C20.39 12.2364 13.3999 18.4497 13.3999 18.4497C13.3999 18.4497 13.3319 18.5272 13.3443 18.5897C13.3471 18.6138 13.3551 18.6369 13.3677 18.6576C13.3802 18.6783 13.3971 18.6961 13.4171 18.7097C14.3041 19.3031 18.3185 22.0009 19.48 23C19.5844 23.1013 19.7082 23.1806 19.8439 23.2331C19.9797 23.2856 20.1246 23.3103 20.27 23.3056C20.8619 23.2833 21.0271 22.6332 21.0271 22.6332C21.0271 22.6332 23.7881 11.5228 23.8804 10.0341C23.884 9.9777 23.888 9.92918 23.8916 9.8851C23.8974 9.81532 23.9022 9.75663 23.9029 9.69519C23.9077 9.57928 23.8963 9.46328 23.8691 9.35052C23.8552 9.28668 23.8246 9.22767 23.7805 9.17953C23.7363 9.13139 23.6802 9.09584 23.6177 9.07652C23.3655 8.98066 22.9377 9.12479 22.9377 9.12479C22.9377 9.12479 7.78881 14.5697 6.92361 15.1728C6.73695 15.3023 6.67455 15.3776 6.64361 15.4661C6.49335 15.8955 6.96001 16.0848 6.96001 16.0848Z" fill="#4E855C"/>
</g>
<defs>
<clipPath id="clip0_3791_31338">
<rect width="32" height="32" fill="white"/>
</clipPath>
</defs>
</svg>
