<svg width="32" height="32" viewBox="0 0 32 32" fill="none" xmlns="http://www.w3.org/2000/svg">
<g id="whataapp" clip-path="url(#clip0_3791_31333)">
<path id="Subtract" fill-rule="evenodd" clip-rule="evenodd" d="M2.26055 23.7833L0 32L8.44625 29.795C10.7735 31.0583 13.3935 31.7243 16.0599 31.7253H16.0668C24.8481 31.7253 31.9961 24.6112 32 15.8687C32.0015 11.6317 30.3462 7.64774 27.3377 4.65052C24.3292 1.65329 20.3289 0.00215581 16.067 0C7.28447 0 0.137508 7.11288 0.133827 15.856C0.130453 18.6386 0.86401 21.3729 2.26055 23.7833ZM11.1878 8.54236C11.4713 8.55378 11.7853 8.56715 12.0837 9.22704V9.22726C12.2869 9.67746 12.6285 10.5156 12.9014 11.1852C13.1037 11.6814 13.2682 12.085 13.3106 12.1693C13.4102 12.3674 13.4763 12.5994 13.3437 12.8635C13.3234 12.9041 13.3046 12.9423 13.2867 12.9788C13.1879 13.1799 13.115 13.3285 12.9462 13.5242C12.8787 13.6024 12.809 13.6868 12.7394 13.7711C12.603 13.9361 12.467 14.1008 12.3487 14.2184C12.1491 14.4159 11.9412 14.6306 12.1737 15.027C12.4063 15.4235 13.2052 16.7209 14.3886 17.7714C15.6624 18.9021 16.7685 19.3795 17.3284 19.6212C17.4371 19.6681 17.5253 19.7061 17.59 19.7383C17.9885 19.9365 18.2204 19.9033 18.4528 19.6387C18.6851 19.3742 19.4472 18.4819 19.7129 18.0853C19.9786 17.6886 20.2438 17.7544 20.6087 17.8867C20.9736 18.0191 22.9306 18.9778 23.329 19.1761C23.4074 19.2151 23.4806 19.2503 23.5484 19.2828C23.8255 19.4158 24.0125 19.5056 24.0923 19.6387C24.1917 19.8045 24.1915 20.5974 23.86 21.5229C23.5284 22.4484 21.9033 23.3411 21.1731 23.4071C21.1028 23.4135 21.0329 23.4216 20.961 23.43C20.2863 23.509 19.4348 23.6086 16.3958 22.4154C12.6526 20.9459 10.1854 17.3027 9.67918 16.5551C9.63814 16.4945 9.60999 16.4529 9.59508 16.4331L9.59036 16.4268C9.37478 16.1398 7.96967 14.2694 7.96967 12.3342C7.96967 10.5099 8.87016 9.55327 9.28484 9.11273C9.3134 9.08238 9.33966 9.05449 9.36316 9.02892C9.72783 8.63226 10.1592 8.53309 10.4247 8.53309L11.1878 8.54236Z" fill="#4E855C"/>
</g>
<defs>
<clipPath id="clip0_3791_31333">
<rect width="32" height="32" fill="white"/>
</clipPath>
</defs>
</svg>
