<svg width="160" height="160" viewBox="0 0 160 160" fill="none" xmlns="http://www.w3.org/2000/svg">
<g id="Group 3011">
<mask id="mask0_3776_24263" style="mask-type:alpha" maskUnits="userSpaceOnUse" x="0" y="0" width="160" height="160">
<rect id="Rectangle 508" width="160" height="160" rx="80" fill="#D9D9D9"/>
</mask>
<g mask="url(#mask0_3776_24263)">
<rect id="Rectangle 509" width="160" height="160" rx="80" fill="#E27D83"/>
<g id="Group 2986">
<path id="Vector 40" d="M57.0984 64.3638L65.098 45.4547L92.0075 37.8184L104.735 46.5456L105.455 63.6365C105.455 63.6365 108.364 66.182 108.364 69.4547C108.364 72.0617 107.893 74.4123 105.826 76.0002C101.091 79.6365 100.76 77.4555 100.727 78.182C100.364 86.182 94.1819 94.9093 94.1819 94.9093C94.1819 94.9093 92.0001 107.273 105.091 115.637C118.182 124 127.636 122.182 132.727 126.182C137.818 130.182 137.455 129.455 140.371 133.455C143.288 137.455 156.371 157.091 156.371 157.091L110.553 172.727L53.098 174.909C40.9768 165.697 16.4183 144.988 18.189 136.364C20.7274 124 35.6439 123.637 44.7348 120.364C52.693 117.499 58.5456 113.818 62.9166 106.546C67.2876 99.2729 65.098 94.9093 65.098 94.9093C65.098 94.9093 60.7348 89.0911 58.9163 78.5456C58.3102 78.6668 56.2984 78.7638 53.0984 75.2729C49.8984 71.782 51.6439 65.8184 53.8257 64.7275L57.0984 64.3638Z" fill="white"/>
<path id="Vector" d="M79.4658 80.662C78.3159 80.5174 77.26 80.04 76.4789 79.2589C76.0304 78.8105 75.6833 78.2898 75.8641 77.6678C76.0377 77.1037 76.3704 76.5468 76.6163 76.0043C77.6143 73.7768 78.4316 71.4913 79.0681 69.1697C79.1765 68.7647 78.4822 68.5911 78.3737 68.9961C77.6433 71.6432 76.6886 74.2324 75.5025 76.742C75.2566 77.2628 74.989 77.7763 75.1119 78.3549C75.2277 78.8973 75.6037 79.3674 76.016 79.7652C76.8622 80.5897 78.0338 81.1249 79.2706 81.284C79.7262 81.3419 79.9215 80.7199 79.4658 80.662Z" fill="#041F0F"/>
<path id="Vector_2" d="M143.177 147.676C142.931 151.119 142.258 154.547 141.506 157.896C141.311 158.757 141.115 159.61 140.913 160.471C140.884 160.586 140.819 160.659 140.739 160.695C140.653 160.745 140.537 160.738 140.443 160.695C140.421 160.695 140.399 160.68 140.378 160.666C140.349 160.673 140.327 160.688 140.298 160.695H140.284C140.284 160.695 140.24 160.702 140.211 160.702H19.0469C19.0469 160.702 19.0107 160.702 18.9963 160.695H18.9601C18.9601 160.695 18.9095 160.695 18.8878 160.673C18.8733 160.68 18.8516 160.688 18.8372 160.695C18.7359 160.738 18.6274 160.745 18.5334 160.695C18.4539 160.659 18.3888 160.586 18.3671 160.471C18.1646 159.61 17.962 158.757 17.774 157.896C17.0146 154.547 16.342 151.119 16.0961 147.676C15.9659 145.847 15.9587 144.01 16.1323 142.187C16.248 140.943 16.4432 139.699 16.7398 138.462C17.4052 135.7 18.5551 133.024 20.2836 130.753C20.7104 130.196 21.1732 129.668 21.665 129.169C23.0754 127.737 24.7316 126.558 26.5252 125.625C31.4432 123.072 37.005 122.218 42.2702 120.656C45.937 119.571 49.517 118.009 52.7788 115.948C52.909 115.868 53.0464 115.789 53.1766 115.695C55.1004 114.451 56.9013 113.026 58.5358 111.42C62.9259 107.11 65.9563 100.912 64.4953 94.6702C64.4664 94.5545 64.4881 94.4604 64.5387 94.3881C64.6978 94.1639 65.1101 94.135 65.1896 94.4749C65.2041 94.5328 65.2186 94.5979 65.2258 94.6557C65.2837 94.8799 65.3271 95.1114 65.3632 95.3428C65.4283 95.7117 65.4862 96.0877 65.5223 96.4638C65.5296 96.5434 65.5368 96.6302 65.544 96.7097C66.0358 102.865 62.7451 108.556 58.3478 112.599C56.8724 113.959 55.2812 115.174 53.6106 116.266C53.4008 116.404 53.2056 116.534 52.9958 116.664H52.9886C49.6183 118.761 45.9298 120.345 42.1255 121.452C36.8459 122.992 31.219 123.838 26.3589 126.536C25.0353 127.267 23.8058 128.142 22.7137 129.169C21.7735 130.037 20.9273 131.02 20.2113 132.105C18.613 134.521 17.6366 137.298 17.1303 140.14C17.0074 140.82 16.9133 141.507 16.8555 142.187C16.6674 144.017 16.6747 145.847 16.8121 147.676C17.1014 151.828 18.0561 155.958 18.9963 159.993C19.0107 159.986 19.0252 159.979 19.0469 159.979H140.211C140.211 159.979 140.262 159.993 140.284 159.993C141.224 155.965 142.179 151.828 142.468 147.676C142.605 145.847 142.613 144.017 142.424 142.187C142.367 141.5 142.273 140.82 142.15 140.14C141.643 137.298 140.667 134.521 139.069 132.105C138.353 131.02 137.506 130.037 136.566 129.169C135.474 128.142 134.245 127.267 132.921 126.536C128.054 123.838 122.434 122.992 117.147 121.452C113.408 120.36 109.777 118.812 106.451 116.758C106.248 116.635 106.038 116.505 105.843 116.375C104.939 115.796 104.064 115.181 103.218 114.523C102.943 114.313 102.675 114.096 102.408 113.872C101.901 113.467 101.41 113.04 100.932 112.599C96.5276 108.556 93.2441 102.865 93.7359 96.7097C93.7649 96.377 93.801 96.0443 93.8589 95.7117C93.9167 95.2994 93.9963 94.8872 94.0903 94.4749C94.1048 94.4315 94.1193 94.3881 94.141 94.3592C94.1482 94.3447 94.1554 94.3375 94.1627 94.3303C94.3652 94.0771 94.8787 94.2724 94.7846 94.6702C94.7846 94.6774 94.7846 94.6847 94.7774 94.6919C93.3237 100.926 96.3541 107.117 100.737 111.42C101.598 112.259 102.502 113.055 103.442 113.793C107.441 116.946 112.157 119.217 117.01 120.656C122.268 122.218 127.837 123.072 132.755 125.625C134.548 126.558 136.205 127.737 137.615 129.169C138.099 129.668 138.562 130.196 138.989 130.753C140.725 133.024 141.868 135.7 142.533 138.462C142.829 139.699 143.025 140.936 143.14 142.187C143.314 144.01 143.307 145.847 143.177 147.676Z" fill="#041F0F"/>
<path id="Vector_3" d="M58.5344 78.1812C57.8112 78.1812 57.1096 77.8485 56.4804 77.5158C55.8729 77.1976 55.3015 76.8071 54.7808 76.3659C53.7321 75.4691 52.8931 74.348 52.3579 73.0751C51.7793 71.7227 51.5407 70.2111 51.707 68.7502C51.8589 67.3615 52.4881 65.8283 53.884 65.2714C55.4968 64.6277 57.1675 65.7415 57.4206 67.3905C57.4929 67.8461 58.1873 67.6508 58.1149 67.1952C57.8763 65.6185 56.5383 64.4252 54.9399 64.3673C53.3343 64.3095 52.0325 65.4594 51.4394 66.877C50.1087 70.0665 51.396 74.0371 53.7538 76.3876C54.383 77.0168 55.099 77.5592 55.8729 78.0004C56.6757 78.4561 57.6014 78.9045 58.5416 78.9045C59.0045 78.9045 59.0045 78.1812 58.5416 78.1812H58.5344Z" fill="#041F0F"/>
<path id="Vector_4" d="M57.378 75.4108C56.0473 75.1866 56.2281 73.4002 56.3149 72.4239C56.4306 71.2161 56.7416 69.8781 56.3293 68.6992C56.0183 67.8096 55.1866 67.0068 54.1813 67.137C53.3206 67.2527 52.6408 68.1567 52.9373 69.0102C53.0892 69.4441 53.7907 69.2561 53.6316 68.8149C53.5015 68.4316 53.7329 68.041 54.1017 67.8964C54.5212 67.73 54.9841 67.9759 55.2662 68.2869C55.9822 69.0753 55.8014 70.3409 55.7001 71.3028C55.541 72.7927 55.013 75.7435 57.1683 76.1052C57.6239 76.1775 57.8192 75.4832 57.3636 75.4108H57.378Z" fill="#041F0F"/>
<path id="Vector_5" d="M101.076 78.1675C101.799 78.1675 102.501 77.8349 103.13 77.5022C103.738 77.1839 104.309 76.7934 104.83 76.3522C105.878 75.4554 106.717 74.3344 107.253 73.0615C107.831 71.709 108.07 70.1974 107.903 68.7365C107.752 67.3479 107.122 65.8146 105.726 65.2577C104.114 64.614 102.443 65.7278 102.19 67.3768C102.118 67.8324 101.423 67.6372 101.496 67.1815C101.734 65.6049 103.072 64.4115 104.671 64.3537C106.276 64.2958 107.578 65.4457 108.171 66.8633C109.502 70.0528 108.214 74.0234 105.857 76.3739C105.227 77.0031 104.511 77.5456 103.738 77.9867C102.935 78.4424 102.009 78.8908 101.069 78.8908C100.606 78.8908 100.606 78.1675 101.069 78.1675H101.076Z" fill="#041F0F"/>
<path id="Vector_6" d="M102.24 75.3972C103.571 75.173 103.39 73.3866 103.304 72.4102C103.188 71.2024 102.877 69.8644 103.289 68.6855C103.6 67.7959 104.432 66.9931 105.437 67.1233C106.298 67.239 106.978 68.1431 106.681 68.9965C106.529 69.4304 105.828 69.2424 105.987 68.8012C106.117 68.4179 105.886 68.0273 105.517 67.8827C105.097 67.7164 104.634 67.9623 104.352 68.2733C103.636 69.0616 103.817 70.3273 103.918 71.2892C104.078 72.779 104.605 75.7299 102.45 76.0915C101.995 76.1638 101.799 75.4695 102.255 75.3972H102.24Z" fill="#041F0F"/>
<path id="Vector_7" d="M68.1978 69.3932C69.472 69.3932 70.5049 68.234 70.5049 66.804C70.5049 65.3741 69.472 64.2148 68.1978 64.2148C66.9236 64.2148 65.8906 65.3741 65.8906 66.804C65.8906 68.234 66.9236 69.3932 68.1978 69.3932Z" fill="#041F0F"/>
<path id="Vector_8" d="M65.595 84.5674C68.1589 84.3593 70.0511 81.8959 69.8214 79.0652C69.5917 76.2345 67.3269 74.1085 64.763 74.3166C62.1991 74.5247 60.3068 76.9881 60.5366 79.8187C60.7663 82.6494 63.031 84.7754 65.595 84.5674Z" fill="#F4CBCD"/>
<path id="Vector_9" d="M81.0928 101.273C80.6733 101.324 80.2104 101.237 79.7909 101.252C76.5364 101.396 73.2673 100.688 70.3744 99.1832C68.8555 98.3877 67.4452 97.3751 66.2013 96.189C65.912 95.9214 65.6299 95.6394 65.3623 95.3428C65.1887 95.162 65.0224 94.974 64.8705 94.7859C64.7475 94.6557 64.6391 94.5256 64.5378 94.3881C64.2557 94.0555 63.9954 93.7083 63.7495 93.3539C61.8401 90.6273 60.748 87.3655 59.8295 84.1977C57.8695 77.486 57.1535 70.4272 57.7032 63.4624C57.7393 62.9995 58.4626 62.9995 58.4264 63.4624C58.1299 67.2522 58.2022 71.0636 58.6506 74.839C59.0556 78.2165 59.7644 81.5579 60.7697 84.8124C61.7027 87.8645 62.8165 90.9383 64.762 93.513C67.9804 97.7729 72.9997 100.304 78.2649 100.536C78.7712 100.55 79.2774 100.55 79.7909 100.536C80.2104 100.514 80.6733 100.594 81.0928 100.55C81.2157 100.536 81.3025 100.579 81.3676 100.644C81.5195 100.839 81.4255 101.237 81.0928 101.273Z" fill="#041F0F"/>
<path id="Vector_10" d="M99.7527 84.1977C98.827 87.3655 97.7349 90.6273 95.8255 93.3539C95.5001 93.8168 95.1601 94.258 94.7768 94.6919C94.4948 95.0463 94.1838 95.3862 93.8583 95.7117C92.5059 97.1003 90.9292 98.2864 89.2006 99.1832C86.3149 100.688 83.0386 101.396 79.7913 101.252C79.3718 101.237 78.9017 101.324 78.4822 101.273C78.1495 101.237 78.0555 100.847 78.2146 100.651C78.2653 100.579 78.352 100.536 78.4822 100.55C78.9017 100.594 79.3718 100.514 79.7913 100.536C80.2976 100.55 80.8111 100.55 81.3173 100.528C86.2209 100.319 90.9147 98.1056 94.1404 94.3592C94.1476 94.3448 94.1548 94.3375 94.1621 94.3303C94.3863 94.0627 94.6105 93.7951 94.8202 93.513C96.7657 90.9383 97.8723 87.8645 98.8125 84.8124C99.8106 81.5579 100.527 78.2165 100.924 74.839C101.38 71.0636 101.452 67.2522 101.149 63.4624C101.112 62.9995 101.836 62.9995 101.872 63.4624C102.421 70.4272 101.705 77.486 99.7527 84.1977Z" fill="#041F0F"/>
<path id="Vector_11" d="M71.9086 61.0029C71.6193 61.379 71.1419 61.5526 70.7008 61.7045C70.1222 61.8997 69.5363 62.0155 68.9433 62.1239C67.8078 62.3337 66.6868 62.529 65.6236 62.9701C65.0595 63.2016 64.5388 63.5126 63.9891 63.7729C63.6202 63.9465 63.1357 64.1779 62.7524 63.932C61.9857 63.433 62.6439 62.2035 63.0344 61.6972C63.4033 61.2199 63.8589 60.8076 64.3507 60.4533C65.4428 59.542 66.7808 58.9417 68.1839 58.6885C69.153 58.5222 70.209 58.4499 71.113 58.9055C71.8652 59.2816 72.5161 60.2074 71.8941 61.0029H71.9086Z" fill="#041F0F"/>
<path id="Vector_12" d="M90.7774 69.7565C92.0515 69.7565 93.0845 68.5973 93.0845 67.1673C93.0845 65.7374 92.0515 64.5781 90.7774 64.5781C89.5032 64.5781 88.4702 65.7374 88.4702 67.1673C88.4702 68.5973 89.5032 69.7565 90.7774 69.7565Z" fill="#041F0F"/>
<path id="Vector_13" d="M87.0669 61.3662C87.3562 61.7423 87.8335 61.9159 88.2747 62.0677C88.8533 62.263 89.4391 62.3787 90.0321 62.4872C91.1676 62.697 92.2887 62.8922 93.3518 63.3334C93.9159 63.5648 94.4367 63.8758 94.9863 64.1362C95.3552 64.3098 95.8398 64.5412 96.2231 64.2953C96.9897 63.7963 96.3316 62.5668 95.941 62.0605C95.5722 61.5832 95.1165 61.1709 94.6247 60.8165C93.5326 59.9053 92.1946 59.305 90.7915 59.0518C89.8224 58.8855 88.7665 58.8132 87.8624 59.2688C87.1103 59.6449 86.4593 60.5706 87.0813 61.3662H87.0669Z" fill="#041F0F"/>
<path id="Vector_14" d="M97.7237 79.8157C97.9535 76.985 96.0612 74.5216 93.4973 74.3135C90.9334 74.1054 88.6687 76.2314 88.4389 79.0621C88.2092 81.8928 90.1014 84.3562 92.6654 84.5643C95.2293 84.7724 97.494 82.6463 97.7237 79.8157Z" fill="#F4CBCD"/>
<path id="Vector_15" d="M87.0808 85.0309C82.9005 88.0107 77.3243 88.2783 72.8909 85.6818C72.4858 85.4432 72.1242 86.0724 72.5292 86.3038C77.1724 89.0232 83.0669 88.7773 87.4497 85.6529C87.8258 85.3853 87.4642 84.7561 87.0881 85.0309H87.0808Z" fill="#041F0F"/>
<path id="Vector_16" d="M134.706 127.109C129.774 130.718 124.299 133.56 118.527 135.578C112.778 137.589 106.746 138.797 100.671 139.166C94.2554 139.556 87.7969 139.035 81.5119 137.705C75.2197 136.367 69.0939 134.24 63.3224 131.405C57.8981 128.744 52.6763 125.467 48.4526 121.099C47.9391 120.564 47.4401 120.014 46.9555 119.457C46.6517 119.103 46.1455 119.616 46.442 119.971C50.427 124.614 55.5259 128.158 60.914 130.993C66.6348 134.009 72.7245 136.338 79.0023 137.871C85.3306 139.419 91.8615 140.171 98.3779 139.99C104.547 139.824 110.695 138.811 116.582 136.981C122.447 135.159 128.067 132.512 133.166 129.076C133.809 128.642 134.446 128.194 135.075 127.731C135.444 127.456 135.09 126.834 134.713 127.109H134.706Z" fill="#041F0F"/>
<path id="Vector_17" d="M106.84 65.0618C106.884 65.3583 106.5 65.6476 106.233 65.38C105.719 64.8592 104.938 64.8665 104.28 65.0618C103.484 65.3004 102.732 65.7633 102.031 66.2045C101.734 66.3925 101.452 66.0815 101.503 65.8139C101.423 64.0998 101.221 62.393 101.04 60.6934C100.729 57.7064 100.403 54.7267 100.042 51.7541C99.8537 50.2498 99.6585 48.7527 99.4415 47.2628C99.333 46.4962 99.2245 45.7295 99.1016 44.9701C99.0509 44.6302 99.0003 44.2903 98.9207 43.9504C97.7346 47.7401 96.4834 51.5082 95.1454 55.2402C95.1382 55.2546 95.131 55.2691 95.1165 55.2835C95.1382 55.4716 95.0225 55.6886 94.7766 55.703C90.4588 56.0429 86.1411 56.3322 81.8161 56.5854C81.5847 56.5998 81.4039 56.3467 81.469 56.1297C82.4743 52.6943 83.2192 49.1866 83.6893 45.6427L81.6642 49.4325C80.8253 51.002 79.9935 52.5714 79.1546 54.1336C78.7351 54.9219 78.3012 55.6958 77.8311 56.4552C77.4405 57.0844 77.0789 57.4894 76.3123 57.5762C72.7177 57.9885 69.1016 58.2344 65.4998 58.5598C65.2539 58.5815 65.102 58.3067 65.1454 58.0969C65.8108 55.2618 66.2303 52.3761 66.4328 49.4759C64.1257 54.4301 61.428 59.1963 58.3687 63.7238C58.3542 63.7455 58.3325 63.7599 58.318 63.7744C58.2385 64.6495 58.1589 65.5319 58.0504 66.407C58.007 66.7614 57.5948 66.8915 57.3778 66.5878C56.9439 65.973 56.3219 65.4812 55.6203 65.1919C55.0635 64.9605 54.21 64.7218 53.7472 65.2426C53.6821 65.3149 53.6097 65.3438 53.5446 65.351C53.3494 65.4812 52.9805 65.3872 52.9371 65.069C52.7997 64.0058 52.6768 62.9354 52.5827 61.865C51.9897 54.6471 53.4723 47.4292 57.1681 41.1659C60.7192 35.1485 66.158 30.4402 72.6165 27.7859C74.063 27.1929 75.5818 26.7083 77.1295 26.3178C75.7554 25.4137 74.9381 23.7864 74.6633 22.1736C74.2293 19.6857 74.7718 17.0748 75.9579 14.8689C80.2539 6.8626 91.6883 5.24255 98.8267 10.2546C102.052 12.5183 104.533 16.149 104.62 20.1847C104.671 22.4918 103.962 24.8496 102.985 26.9181C102.24 28.4947 101.213 29.9484 99.8537 31.0333C102.812 33.8467 104.967 37.5135 106.269 41.419C108.807 49.0347 108.055 57.2797 106.84 65.0618Z" fill="#3677B8"/>
<path id="Vector_18" d="M77.6146 59.8692C76.6238 57.7429 74.7289 55.942 72.6749 54.8427C71.0476 53.9748 69.3697 53.8663 67.6773 54.076C67.5905 54.0399 65.7173 54.3292 64.9579 54.6185C64.9362 54.6185 64.9218 54.6257 64.9001 54.6329C64.835 54.6474 64.7843 54.6836 64.7337 54.7125C61.6672 55.9709 59.4034 58.7626 58.6368 62.0968C57.6894 66.2192 58.8104 71.1879 62.6146 73.5023C70.7872 78.4782 81.5997 68.4251 77.6219 59.8692H77.6146ZM74.7217 69.7053C72.3277 72.591 68.2921 74.2111 64.6469 72.8875C60.9656 71.5495 59.4685 67.5717 59.8012 63.9121C60.105 60.5273 62.1373 57.3089 65.2472 56.0288C65.2617 56.0288 65.2762 56.0288 65.2906 56.0288C67.3157 55.5153 69.4782 54.9873 71.4816 55.8697C73.0944 56.5784 74.606 57.8514 75.6185 59.2906C77.8605 62.4946 77.1445 66.7978 74.7361 69.7053H74.7217Z" fill="#041F0F"/>
<path id="Vector_19" d="M101.539 59.5001C100.548 57.3737 98.6532 55.5729 96.5992 54.4735C94.9719 53.6056 93.294 53.4972 91.6016 53.7069C91.5148 53.6707 89.6416 53.96 88.8822 54.2493C88.8605 54.2493 88.8461 54.2566 88.8244 54.2638C88.7593 54.2783 88.7087 54.3144 88.658 54.3434C85.5915 55.6018 83.3278 58.3935 82.5611 61.7276C81.6137 65.8501 82.7347 70.8188 86.5389 73.1331C94.7116 78.109 105.524 68.056 101.546 59.5001H101.539ZM98.646 69.3361C96.2521 72.2219 92.2164 73.8419 88.5712 72.5184C84.89 71.1804 83.3928 67.2026 83.7255 63.543C84.0293 60.1582 86.0616 56.9398 89.1715 55.6597C89.186 55.6597 89.2005 55.6597 89.2149 55.6597C91.24 55.1462 93.4025 54.6182 95.4059 55.5005C97.0187 56.2093 98.5303 57.4822 99.5428 58.9215C101.785 62.1254 101.069 66.4287 98.6604 69.3361H98.646Z" fill="#041F0F"/>
<path id="Vector_20" d="M82.5322 63.3622C81.6716 63.1887 80.7892 63.1091 79.9141 63.1453C79.4585 63.167 79.0028 63.2176 78.5472 63.2899C78.106 63.3622 77.5057 63.4056 77.2887 63.8685C77.1224 64.2084 77.1803 64.6641 77.5491 64.8594C77.8022 64.9895 78.1494 64.9751 78.3736 64.7943C78.3953 64.7943 78.417 64.787 78.4315 64.7798C78.5255 64.7581 78.6267 64.7436 78.7208 64.7219C78.8003 64.7075 78.8871 64.693 78.9667 64.6785C79.0028 64.6785 79.0318 64.6713 79.0679 64.6641C79.0679 64.6641 79.0824 64.6641 79.1041 64.6641C79.4512 64.6207 79.8056 64.599 80.1528 64.5918C80.8616 64.5773 81.4908 64.6352 82.1345 64.7653C82.5033 64.8377 82.93 64.6569 83.024 64.2591C83.1036 63.8974 82.9156 63.449 82.5178 63.3695L82.5322 63.3622Z" fill="#041F0F"/>
<path id="Vector_21" d="M31.2462 134.428C29.4164 133.661 27.6011 132.844 25.8002 132.005C24.737 131.506 23.4641 131.708 22.8349 132.786C22.2853 133.726 22.5456 135.252 23.616 135.751C25.7568 136.757 27.9193 137.704 30.0962 138.615C31.1811 139.071 32.4829 138.131 32.765 137.097C33.1122 135.845 32.3383 134.883 31.2462 134.428Z" fill="#D95159"/>
<path id="Vector_22" d="M39.6726 125.523C38.689 127.158 37.6186 128.734 36.4615 130.26C35.7527 131.193 36.3168 132.69 37.2426 133.226C38.3563 133.876 39.4991 133.385 40.2078 132.444C41.3578 130.926 42.4282 129.342 43.419 127.707C44.8655 125.306 41.1119 123.129 39.6726 125.516V125.523Z" fill="#D95159"/>
<path id="Vector_23" d="M36.0776 144.003C37.9146 145.11 39.7299 146.253 41.5236 147.439C43.8596 148.979 46.174 145.305 43.8452 143.772C42.0515 142.586 40.2362 141.443 38.3992 140.337C36.0053 138.897 33.6837 142.564 36.0776 144.003Z" fill="#D95159"/>
<path id="Vector_24" d="M31.341 154.122L25.2079 152.212C22.5391 151.38 21.3892 155.568 24.0507 156.4L30.1838 158.309C32.8525 159.141 34.0025 154.953 31.341 154.122Z" fill="#D95159"/>
<path id="Vector_25" d="M53.6607 138.072C51.7731 137.58 49.9216 136.973 48.1424 136.184C47.072 135.707 45.8136 135.873 45.1771 136.965C44.6347 137.891 44.8806 139.461 45.9582 139.931C48.0918 140.871 50.2543 141.666 52.5108 142.252C55.2157 142.954 56.3729 138.773 53.668 138.065L53.6607 138.072Z" fill="#D95159"/>
<path id="Vector_26" d="M53.6235 147.453C51.7575 149.13 49.9205 150.852 48.1196 152.609C46.1163 154.562 49.1828 157.629 51.1862 155.676C52.9871 153.918 54.8241 152.204 56.69 150.519C58.773 148.646 55.692 145.587 53.6235 147.453Z" fill="#D95159"/>
<path id="Vector_27" d="M66.3175 152.691C64.56 152.192 62.7808 151.765 60.9872 151.41C59.8372 151.186 58.6439 151.736 58.3184 152.929C58.0291 153.992 58.6801 155.374 59.8372 155.598C61.6309 155.952 63.41 156.379 65.1675 156.878C67.858 157.645 69.0079 153.457 66.3247 152.691H66.3175Z" fill="#D95159"/>
<path id="Vector_28" d="M68.0032 143.728C66.5494 142.064 65.0017 140.495 63.3527 139.034C62.4776 138.253 61.1468 138.173 60.2862 139.034C59.4978 139.822 59.4038 141.319 60.2862 142.101C61.9352 143.569 63.4901 145.131 64.9366 146.794C65.7033 147.677 67.2148 147.583 68.0032 146.794C68.8783 145.919 68.777 144.61 68.0032 143.728Z" fill="#D95159"/>
<path id="Vector_29" d="M74.2863 144.545C73.1146 146.534 71.8562 148.465 70.4892 150.331C69.7949 151.279 70.3301 152.754 71.2703 153.296C72.3697 153.94 73.5485 153.47 74.2356 152.515C75.5953 150.649 76.861 148.726 78.0326 146.729C79.4502 144.314 75.7038 142.13 74.2863 144.538V144.545Z" fill="#D95159"/>
<path id="Vector_30" d="M88.3469 141.487C86.7847 140.966 85.331 140.287 83.9135 139.448C81.4978 138.03 79.3137 141.777 81.722 143.194C83.4506 144.214 85.2876 145.031 87.197 145.668C89.8513 146.557 90.9868 142.37 88.3542 141.48L88.3469 141.487Z" fill="#D95159"/>
<path id="Vector_31" d="M87.6674 151.88C85.5049 151.649 83.3497 151.338 81.2089 150.962C78.475 150.484 77.3034 154.665 80.0517 155.149C82.5758 155.59 85.1144 155.945 87.6674 156.22C88.8318 156.343 89.8371 155.135 89.8371 154.05C89.8371 152.77 88.8391 152.003 87.6674 151.88Z" fill="#D95159"/>
<path id="Vector_32" d="M96.9756 141.307C95.9631 143.188 94.871 145.017 93.6994 146.804C92.1589 149.14 95.9125 151.317 97.4457 148.995C98.6174 147.209 99.7095 145.379 100.722 143.499C102.046 141.04 98.2992 138.848 96.9756 141.307Z" fill="#D95159"/>
<path id="Vector_33" d="M111.897 140.987C110.342 140.886 108.787 140.749 107.239 140.539C106.082 140.38 104.91 140.821 104.57 142.058C104.296 143.07 104.917 144.567 106.089 144.727C108.02 144.994 109.951 145.204 111.904 145.334C113.076 145.406 114.074 144.285 114.074 143.164C114.074 141.928 113.076 141.067 111.904 140.995L111.897 140.987Z" fill="#D95159"/>
<path id="Vector_34" d="M108.577 151.764C106.567 151.728 104.556 151.699 102.545 151.663C99.7537 151.612 99.7537 155.951 102.545 156.002C104.556 156.038 106.567 156.067 108.577 156.103C111.369 156.154 111.369 151.814 108.577 151.764Z" fill="#D95159"/>
<path id="Vector_35" d="M118.238 141.607C117.674 143.864 116.966 146.07 116.09 148.225C115.649 149.31 116.568 150.612 117.609 150.894C118.846 151.234 119.837 150.467 120.278 149.375C121.146 147.22 121.862 145.014 122.426 142.757C123.099 140.045 118.918 138.888 118.238 141.6V141.607Z" fill="#D95159"/>
<path id="Vector_36" d="M130.693 134.066C128.791 135.014 126.86 135.903 124.893 136.692C123.808 137.126 123.041 138.138 123.374 139.36C123.656 140.395 124.951 141.313 126.043 140.879C128.364 139.946 130.642 138.934 132.877 137.813C135.372 136.562 133.181 132.822 130.686 134.066H130.693Z" fill="#D95159"/>
<path id="Vector_37" d="M138.49 135.969C137.463 135.687 136.002 136.316 135.821 137.488L134.881 143.628C134.7 144.786 135.177 145.964 136.4 146.297C137.427 146.579 138.888 145.95 139.068 144.778L140.009 138.638C140.189 137.481 139.712 136.302 138.49 135.969Z" fill="#D95159"/>
<path id="Vector_38" d="M130.28 149.334C128.371 150.245 126.411 150.99 124.393 151.605C121.732 152.422 122.867 156.61 125.55 155.792C127.923 155.062 130.23 154.151 132.472 153.08C134.989 151.88 132.79 148.133 130.28 149.334Z" fill="#D95159"/>
<path id="Vector_39" d="M25.8014 140.742C23.892 141.653 21.9321 142.398 19.9142 143.013C17.2527 143.83 18.3882 148.018 21.0714 147.201C23.4436 146.47 25.7508 145.559 27.9928 144.488C30.5097 143.288 28.311 139.541 25.8014 140.742Z" fill="#D95159"/>
<path id="Vector_40" d="M41.8946 154.106C40.8893 152.58 39.8189 151.097 38.6835 149.665C37.9602 148.747 36.6945 148.385 35.6675 149.079C34.749 149.694 34.3512 151.17 35.0817 152.095C36.2172 153.535 37.2804 155.01 38.2929 156.536C39.8334 158.872 43.4351 156.442 41.8946 154.113V154.106Z" fill="#D95159"/>
<path id="Vector_41" d="M56.4169 133.437C55.2597 131.643 54.1893 129.799 53.1984 127.911C51.8966 125.43 48.1719 127.658 49.4665 130.124C50.4574 132.012 51.5278 133.856 52.6849 135.65C54.1965 138 57.9284 135.787 56.4169 133.437Z" fill="#D95159"/>
</g>
</g>
</g>
</svg>
