<svg width="80" height="80" viewBox="0 0 80 80" fill="none" xmlns="http://www.w3.org/2000/svg">
<g id="Group 3015">
<circle id="Ellipse 182" cx="40" cy="40" r="35" fill="#CADACE" stroke="#EDF3EF" stroke-width="10"/>
<path id="Vector" d="M52.5319 30.4875C51.9407 29.8764 50.9088 29.8331 50.273 30.3956L35.6934 43.2936C35.5596 43.418 35.3588 43.4234 35.2194 43.3098L31.488 40.3949C31.0474 40.0542 30.5287 39.8704 29.9821 39.8704C29.2459 39.8704 28.5487 40.2057 28.0746 40.7789L27.5893 41.3684C26.7193 42.4283 26.8252 43.9858 27.8236 44.916L33.68 50.3402C34.1373 50.7675 34.7341 51 35.3476 51C36.0504 51 36.7197 50.6972 37.1938 50.1618L52.5765 32.7805C53.1566 32.1261 53.1398 31.1202 52.5319 30.4875Z" fill="#4E855C"/>
</g>
</svg>
