<svg width="32" height="32" viewBox="0 0 32 32" fill="none" xmlns="http://www.w3.org/2000/svg">
<g id="whataapp" clip-path="url(#clip0_3605_62363)">
<path id="Vector" d="M0 32L2.26055 23.7833C0.86401 21.3729 0.130453 18.6386 0.133827 15.856C0.137508 7.11288 7.28447 0 16.067 0C20.3289 0.00215581 24.3292 1.65329 27.3377 4.65052C30.3462 7.64774 32.0015 11.6317 32 15.8687C31.9961 24.6112 24.8481 31.7253 16.0668 31.7253H16.0599C13.3935 31.7243 10.7735 31.0583 8.44625 29.795L0 32Z" fill="#DD8E53"/>
<path id="Vector_2" fill-rule="evenodd" clip-rule="evenodd" d="M12.0827 9.22521C11.7843 8.56531 11.4703 8.55195 11.1869 8.54052L10.4238 8.53125C10.1583 8.53125 9.72691 8.63042 9.36224 9.02709C8.99757 9.42376 7.96875 10.3824 7.96875 12.3324C7.96875 14.2823 9.39537 16.1665 9.59416 16.4312C9.79295 16.696 12.3482 20.825 16.3949 22.4136C19.7576 23.7338 20.4419 23.4712 21.1721 23.4053C21.9023 23.3393 23.5275 22.4466 23.8591 21.5211C24.1906 20.5956 24.1908 19.8027 24.0914 19.6369C23.992 19.4711 23.7265 19.3726 23.3281 19.1743C22.9296 18.9759 20.9727 18.0172 20.6078 17.8849C20.2429 17.7525 19.9777 17.6868 19.7119 18.0834C19.4462 18.4801 18.6842 19.3724 18.4519 19.6369C18.2195 19.9014 17.9876 19.9346 17.5891 19.7365C17.1907 19.5384 15.9087 19.1197 14.3877 17.7695C13.2042 16.719 12.4054 15.4217 12.1728 15.0252C11.9402 14.6287 12.1481 14.414 12.3478 14.2166C12.5264 14.0389 12.7458 13.7537 12.9452 13.5224C13.1447 13.2911 13.2103 13.1257 13.3428 12.8616C13.4754 12.5975 13.4093 12.3656 13.3097 12.1675C13.2101 11.9693 12.4366 10.0093 12.0827 9.22542" fill="white"/>
</g>
<defs>
<clipPath id="clip0_3605_62363">
<rect width="32" height="32" fill="white"/>
</clipPath>
</defs>
</svg>
