<svg width="56" height="56" viewBox="0 0 56 56" fill="none" xmlns="http://www.w3.org/2000/svg">
<rect width="56" height="56" fill="#F0F0F0"/>
<g clip-path="url(#clip0_3605_19190)">
<rect width="1920" height="5416" transform="translate(-344 -3302)" fill="white"/>
<rect width="56" height="56" rx="28" fill="#4E855C"/>
<path d="M37.6399 20.3714C37.1851 19.9058 36.3914 19.8729 35.9023 20.3014L24.6873 30.1285C24.5843 30.2232 24.4298 30.2274 24.3226 30.1408L21.4523 27.92C21.1134 27.6604 20.7144 27.5203 20.2939 27.5203C19.7276 27.5203 19.1913 27.7757 18.8266 28.2125L18.4533 28.6616C17.784 29.4692 17.8656 30.6559 18.6335 31.3646L23.1384 35.4973C23.4902 35.8228 23.9493 36 24.4213 36C24.9618 36 25.4767 35.7693 25.8414 35.3613L37.6742 22.1185C38.1204 21.6199 38.1076 20.8535 37.6399 20.3714Z" fill="white"/>
</g>
<defs>
<clipPath id="clip0_3605_19190">
<rect width="1920" height="5416" fill="white" transform="translate(-344 -3302)"/>
</clipPath>
</defs>
</svg>
